<?xml version="1.0" standalone="no"?>
<!DOCTYPE svg PUBLIC "-//W3C//DTD SVG 1.1//EN" "http://www.w3.org/Graphics/SVG/1.1/DTD/svg11.dtd" >
<svg xmlns="http://www.w3.org/2000/svg" xmlns:xlink="http://www.w3.org/1999/xlink" version="1.1">
<metadata>
Created by FontForge 20190801 at Thu May  2 12:17:56 2013
 By Jimmy Wärting
Copyright (c) 1985, 1987, 1989, 1990, 1992, 1997, 1998, 1999, 2002 Adobe Systems Incorporated.  All Rights Reserved. (c) 1981, 1999, 2002 Heidelberger Druckmaschinen AG. All rights reserved.
</metadata>
<defs>
<font id="PalatinoLTStd-Roman" horiz-adv-x="500" >
  <font-face 
    font-family="Palatino LT Std"
    font-weight="400"
    font-stretch="normal"
    units-per-em="1000"
    panose-1="2 4 5 2 5 5 5 3 3 4"
    ascent="800"
    descent="-200"
    x-height="459"
    cap-height="692"
    bbox="-288 -283 1021 1120"
    underline-thickness="50"
    underline-position="-100"
    stemh="51"
    stemv="84"
    unicode-range="U+0020-FB02"
  />
<missing-glyph 
d="M0 0v700h500v-700h-500zM250 395l170 255h-340zM280 350l170 -255v510zM80 50h340l-170 255zM50 605v-510l170 255z" />
    <glyph glyph-name="f_i" unicode="fi" horiz-adv-x="605" 
d="M341 717v-77l-12 -6c-18 17 -41 28 -66 28c-62 0 -73 -29 -73 -143v-85l121 4l-7 -53h-114v-283c0 -27 1 -47 5 -58c4 -9 15 -13 32 -14l52 -3v-30c-42 1 -82 3 -131 3s-89 -2 -125 -3v30l46 3c17 1 28 5 32 14c4 11 5 31 5 58v283l-69 -4v22l69 31v42
c0 66 13 111 42 144l58 66c26 30 62 42 90 42c15 0 31 -5 45 -11zM504 462v-360c0 -27 1 -47 5 -58c4 -9 15 -13 32 -14l46 -3v-30c-36 1 -76 3 -125 3s-89 -2 -125 -3v30l46 3c17 1 28 5 32 14c4 11 5 31 5 58v223c0 32 -2 54 -7 62c-6 8 -16 11 -37 11h-37v28
c59 6 119 24 156 43zM466 687c29 0 56 -27 56 -56s-27 -55 -56 -55s-55 26 -55 55s26 56 55 56z" />
    <glyph glyph-name="f_l" unicode="fl" horiz-adv-x="608" 
d="M423 102v504c0 22 -3 55 -25 55h-42v-21l-22 -6c-23 17 -46 28 -71 28c-62 0 -73 -29 -73 -143v-85l131 4l-7 -53h-124v-283c0 -27 1 -47 5 -58c4 -9 15 -13 32 -14l52 -3v-30c-42 1 -82 3 -131 3s-89 -2 -125 -3v30l46 3c17 1 28 5 32 14c4 11 5 31 5 58v283l-69 -4v22
l69 31v42c0 66 13 111 42 144l58 66c26 30 62 42 90 42c15 0 31 -5 60 -11v-28c39 8 92 19 142 37l9 -10v-614c0 -27 1 -47 5 -58c4 -9 15 -13 32 -14l46 -3v-30c-36 1 -76 3 -125 3s-89 -2 -125 -3v30l46 3c17 1 28 5 32 14c4 11 5 31 5 58z" />
    <glyph glyph-name="abindu" unicode="a&#x310;" 
d="M225 270l99 18v3c0 76 -39 125 -126 125c-43 0 -57 -4 -70 -21c-6 -8 -11 -20 -17 -33l-13 -31l-26 7v65l53 32c43 26 84 34 116 34c125 0 163 -55 163 -199v-183c0 -16 1 -32 3 -43c2 -10 11 -14 25 -15l39 -2v-30c-25 1 -50 3 -75 3c-26 0 -51 -2 -77 -3l5 85l-124 -86
c-8 -6 -28 -8 -46 -8c-68 0 -122 40 -122 121c0 115 101 144 193 161zM324 124v132c-50 -7 -95 -15 -146 -35c-35 -14 -60 -57 -60 -94c0 -51 38 -82 78 -82c31 0 63 21 96 46c16 12 28 27 32 33zM224 545c-33 5 -117 22 -152 182l33 -20c19 -28 49 -102 122 -102
c67 0 105 58 105 117l20 -9c16 -93 -55 -179 -128 -168zM227 760c27 0 48 -21 48 -48s-21 -49 -48 -49s-49 22 -49 49s22 48 49 48z" />
    <glyph glyph-name="amacronbindu" unicode="&#x101;&#x310;" 
d="M225 270l99 18v3c0 76 -39 125 -126 125c-43 0 -57 -4 -70 -21c-6 -8 -11 -20 -17 -33l-13 -31l-26 7v65l53 32c43 26 84 34 116 34c125 0 163 -55 163 -199v-183c0 -16 1 -32 3 -43c2 -10 11 -14 25 -15l39 -2v-30c-25 1 -50 3 -75 3c-26 0 -51 -2 -77 -3l5 85l-124 -86
c-8 -6 -28 -8 -46 -8c-68 0 -122 40 -122 121c0 115 101 144 193 161zM324 124v132c-50 -7 -95 -15 -146 -35c-35 -14 -60 -57 -60 -94c0 -51 38 -82 78 -82c31 0 63 21 96 46c16 12 28 27 32 33zM403 588h-312v53h312v-53zM244 695c-33 5 -117 22 -152 182l33 -20
c19 -28 49 -102 122 -102c67 0 105 58 105 117l20 -9c16 -93 -55 -179 -128 -168zM247 910c27 0 48 -21 48 -48s-21 -49 -48 -49s-49 22 -49 49s22 48 49 48z" />
    <glyph glyph-name="ebindu" unicode="e&#x310;" horiz-adv-x="479" 
d="M253 436c-74 0 -132 -53 -132 -153v-13c43 -5 86 -6 127 -6c39 0 76 1 111 3c0 93 -34 169 -106 169zM258 469c109 0 190 -70 190 -183c0 -14 0 -28 -2 -42c-60 -10 -121 -14 -181 -14h-146c0 -117 58 -197 181 -197c48 0 86 24 124 47l13 -10l-20 -34
c-7 -12 -92 -56 -160 -56c-151 0 -231 96 -231 231c0 97 26 155 72 191c19 15 40 30 62 40c35 16 64 27 98 27zM244 545c-33 5 -117 22 -152 182l33 -20c19 -28 49 -102 122 -102c67 0 105 58 105 117l20 -9c16 -93 -55 -179 -128 -168zM247 760c27 0 48 -21 48 -48
s-21 -49 -48 -49s-49 22 -49 49s22 48 49 48z" />
    <glyph glyph-name="ibindu" unicode="i&#x310;" horiz-adv-x="291" 
d="M188 465v-363c0 -27 1 -47 5 -58c4 -9 15 -13 32 -14l46 -3v-30c-36 1 -76 3 -125 3s-89 -2 -125 -3v30l46 3c17 1 28 5 32 14c4 11 5 31 5 58v225c0 32 -2 54 -7 62c-6 8 -16 11 -37 11h-37v28c59 6 119 25 156 41zM141 687c29 0 56 -27 56 -56s-27 -55 -56 -55
s-55 26 -55 55s26 56 55 56zM134 735c-33 5 -117 22 -152 182l33 -20c19 -28 49 -102 122 -102c67 0 105 58 105 117l20 -9c16 -93 -55 -179 -128 -168zM137 950c27 0 48 -21 48 -48s-21 -49 -48 -49s-49 22 -49 49s22 48 49 48z" />
    <glyph glyph-name="imacronbindu" unicode="&#x12b;&#x310;" horiz-adv-x="291" 
d="M188 465v-363c0 -27 1 -47 5 -58c4 -9 15 -13 32 -14l46 -3v-30c-36 1 -76 3 -125 3s-89 -2 -125 -3v30l46 3c17 1 28 5 32 14c4 11 5 31 5 58v225c0 32 -2 54 -7 62c-6 8 -16 11 -37 11h-37v28c59 6 119 25 156 41zM272 587h-250v53h250v-53zM144 695
c-33 5 -117 22 -152 182l33 -20c19 -28 49 -102 122 -102c67 0 105 58 105 117l20 -9c16 -93 -55 -179 -128 -168zM147 910c27 0 48 -21 48 -48s-21 -49 -48 -49s-49 22 -49 49s22 48 49 48z" />
    <glyph glyph-name="obindu" unicode="o&#x310;" horiz-adv-x="546" 
d="M252 -20h-7c-123 0 -213 99 -213 234c0 150 94 255 255 255c128 0 227 -100 227 -228c0 -153 -109 -261 -262 -261zM264 436c-106 0 -139 -86 -139 -179c0 -105 38 -244 166 -244c91 0 130 91 130 184c0 129 -61 239 -157 239zM254 545c-33 5 -117 22 -152 182l33 -20
c19 -28 49 -102 122 -102c67 0 105 58 105 117l20 -9c16 -93 -55 -179 -128 -168zM257 760c27 0 48 -21 48 -48s-21 -49 -48 -49s-49 22 -49 49s22 48 49 48z" />
    <glyph glyph-name="ubindu" unicode="u&#x310;" horiz-adv-x="603" 
d="M503 465v-363c0 -27 1 -47 5 -58c4 -9 15 -13 32 -14l41 -3v-30c-25 1 -54 3 -82 3c-29 0 -58 -2 -84 -3c2 28 4 55 4 92l-67 -62c-28 -25 -64 -39 -112 -39c-141 0 -141 90 -141 171v168c0 32 -2 54 -7 62c-6 8 -16 11 -37 11h-37v28c59 6 119 25 156 41l9 -4v-295
c0 -79 17 -121 109 -121c65 0 127 67 127 115v163c0 32 -2 54 -7 62c-6 8 -16 11 -37 11h-37v28c59 6 119 25 156 41zM284 545c-33 5 -117 22 -152 182l33 -20c19 -28 49 -102 122 -102c67 0 105 58 105 117l20 -9c16 -93 -55 -179 -128 -168zM287 760c27 0 48 -21 48 -48
s-21 -49 -48 -49s-49 22 -49 49s22 48 49 48z" />
    <glyph glyph-name="umacronbindu" unicode="&#x16b;&#x310;" horiz-adv-x="603" 
d="M503 465v-363c0 -27 1 -47 5 -58c4 -9 15 -13 32 -14l41 -3v-30c-25 1 -54 3 -82 3c-29 0 -58 -2 -84 -3c2 28 4 55 4 92l-67 -62c-28 -25 -64 -39 -112 -39c-141 0 -141 90 -141 171v168c0 32 -2 54 -7 62c-6 8 -16 11 -37 11h-37v28c59 6 119 25 156 41l9 -4v-295
c0 -79 17 -121 109 -121c65 0 127 67 127 115v163c0 32 -2 54 -7 62c-6 8 -16 11 -37 11h-37v28c59 6 119 25 156 41zM472 588h-351v53h351v-53zM294 695c-33 5 -117 22 -152 182l33 -20c19 -28 49 -102 122 -102c67 0 105 58 105 117l20 -9c16 -93 -55 -179 -128 -168z
M297 910c27 0 48 -21 48 -48s-21 -49 -48 -49s-49 22 -49 49s22 48 49 48z" />
    <glyph glyph-name="Abindu" unicode="A&#x310;" horiz-adv-x="778" 
d="M408 700l242 -568c9 -20 20 -47 32 -68c11 -19 22 -32 40 -34l34 -3v-30c-44 1 -88 3 -133 3c-35 0 -79 -2 -133 -3v30l47 3c21 1 41 8 41 20c0 14 -11 40 -21 64l-46 115h-288l-28 -67c-9 -21 -35 -88 -35 -104c0 -21 17 -25 48 -28l37 -3v-30c-48 1 -86 3 -115 3
c-39 0 -77 -2 -115 -3v30l37 3c24 2 43 23 54 49l178 405c31 70 65 144 92 216h32zM240 269h253l-126 298zM384 775c-33 5 -117 22 -152 182l33 -20c19 -28 49 -102 122 -102c67 0 105 58 105 117l20 -9c16 -93 -55 -179 -128 -168zM387 990c27 0 48 -21 48 -48
s-21 -49 -48 -49s-49 22 -49 49s22 48 49 48z" />
    <glyph glyph-name="Amacronbindu" unicode="&#x100;&#x310;" horiz-adv-x="778" 
d="M408 700l242 -568c9 -20 20 -47 32 -68c11 -19 22 -32 40 -34l34 -3v-30c-44 1 -88 3 -133 3c-35 0 -79 -2 -133 -3v30l47 3c21 1 41 8 41 20c0 14 -11 40 -21 64l-46 115h-288l-28 -67c-9 -21 -35 -88 -35 -104c0 -21 17 -25 48 -28l37 -3v-30c-48 1 -86 3 -115 3
c-39 0 -77 -2 -115 -3v30l37 3c24 2 43 23 54 49l178 405c31 70 65 144 92 216h32zM240 269h253l-126 298zM553 800h-312v53h312v-53zM394 905c-33 5 -117 22 -152 182l33 -20c19 -28 49 -102 122 -102c67 0 105 58 105 117l20 -9c16 -93 -55 -179 -128 -168zM397 1120
c27 0 48 -21 48 -48s-21 -49 -48 -49s-49 22 -49 49s22 48 49 48z" />
    <glyph glyph-name="Ebindu" unicode="E&#x310;" horiz-adv-x="611" 
d="M121 120v449c0 38 -2 64 -9 75c-6 10 -18 14 -42 15l-48 3v30c28 0 56 -1 84 -2c28 0 57 -1 85 -1c87 0 179 3 236 3c45 0 90 -1 129 -3c-11 -44 -16 -101 -16 -152h-35v65c0 13 -1 24 -9 27c-53 20 -132 21 -196 21c-27 0 -56 -1 -84 -8v-267c32 -2 68 -3 116 -3
c61 0 95 4 106 11c5 4 7 13 8 26l5 52h30c-1 -41 -3 -79 -3 -116s2 -75 3 -111h-30l-5 59c-1 13 -3 22 -8 25c-11 8 -45 12 -106 12c-48 0 -85 0 -116 -3v-280c28 -7 57 -8 84 -8c82 0 184 3 202 13c15 8 28 52 35 112h35c-10 -48 -16 -110 -16 -164c-38 -1 -102 -3 -166 -3
h-31c-77 1 -156 3 -218 3c-38 0 -71 -2 -107 -3v30l36 3c24 2 36 5 42 15c7 11 9 37 9 75zM314 775c-33 5 -117 22 -152 182l33 -20c19 -28 49 -102 122 -102c67 0 105 58 105 117l20 -9c16 -93 -55 -179 -128 -168zM317 990c27 0 48 -21 48 -48s-21 -49 -48 -49
s-49 22 -49 49s22 48 49 48z" />
    <glyph glyph-name="Ibindu" unicode="I&#x310;" horiz-adv-x="337" 
d="M216 569v-449c0 -38 2 -64 9 -75c6 -10 18 -14 42 -15l48 -3v-30c-52 2 -99 3 -145 3c-49 0 -96 -1 -148 -3v30l48 3c24 1 36 5 42 15c7 11 9 37 9 75v449c0 38 -2 64 -9 75c-6 10 -18 14 -42 15l-48 3v30c52 -2 99 -3 148 -3c46 0 93 1 145 3v-30l-48 -3
c-24 -1 -36 -5 -42 -15c-7 -11 -9 -37 -9 -75zM174 775c-33 5 -117 22 -152 182l33 -20c19 -28 49 -102 122 -102c67 0 105 58 105 117l20 -9c16 -93 -55 -179 -128 -168zM177 990c27 0 48 -21 48 -48s-21 -49 -48 -49s-49 22 -49 49s22 48 49 48z" />
    <glyph glyph-name="Imacronbindu" unicode="&#x12a;&#x310;" horiz-adv-x="337" 
d="M216 569v-449c0 -38 2 -64 9 -75c6 -10 18 -14 42 -15l48 -3v-30c-52 2 -99 3 -145 3c-49 0 -96 -1 -148 -3v30l48 3c24 1 36 5 42 15c7 11 9 37 9 75v449c0 38 -2 64 -9 75c-6 10 -18 14 -42 15l-48 3v30c52 -2 99 -3 148 -3c46 0 93 1 145 3v-30l-48 -3
c-24 -1 -36 -5 -42 -15c-7 -11 -9 -37 -9 -75zM322 801h-312v53h312v-53zM174 905c-33 5 -117 22 -152 182l33 -20c19 -28 49 -102 122 -102c67 0 105 58 105 117l20 -9c16 -93 -55 -179 -128 -168zM177 1120c27 0 48 -21 48 -48s-21 -49 -48 -49s-49 22 -49 49s22 48 49 48
z" />
    <glyph glyph-name="Obindu" unicode="O&#x310;" horiz-adv-x="786" 
d="M377 -20c-203 0 -355 140 -355 364c0 206 144 365 376 365c214 0 366 -120 366 -342c0 -215 -168 -387 -387 -387zM382 667c-174 0 -253 -122 -253 -286c0 -175 82 -359 280 -359c167 0 248 130 248 314c0 198 -89 331 -275 331zM394 775c-33 5 -117 22 -152 182l33 -20
c19 -28 49 -102 122 -102c67 0 105 58 105 117l20 -9c16 -93 -55 -179 -128 -168zM397 990c27 0 48 -21 48 -48s-21 -49 -48 -49s-49 22 -49 49s22 48 49 48z" />
    <glyph glyph-name="Ubindu" unicode="U&#x310;" horiz-adv-x="778" 
d="M111 214v355c0 38 -2 64 -9 75c-6 10 -18 14 -42 15l-48 3v30c52 -2 99 -3 148 -3c46 0 93 1 145 3v-30l-48 -3c-24 -1 -36 -5 -42 -15c-7 -11 -9 -37 -9 -75v-344c0 -142 74 -183 206 -183c108 0 206 41 206 207v320c0 38 -2 64 -9 75c-6 10 -18 13 -42 15l-44 3v30
c40 -1 80 -3 116 -3c40 0 76 2 120 3v-30l-44 -3c-24 -2 -36 -5 -42 -15c-7 -11 -9 -37 -9 -75v-289c0 -214 -81 -300 -283 -300c-170 0 -270 51 -270 234zM384 775c-33 5 -117 22 -152 182l33 -20c19 -28 49 -102 122 -102c67 0 105 58 105 117l20 -9
c16 -93 -55 -179 -128 -168zM387 990c27 0 48 -21 48 -48s-21 -49 -48 -49s-49 22 -49 49s22 48 49 48z" />
    <glyph glyph-name="Umacronbindu" unicode="&#x16a;&#x310;" horiz-adv-x="778" 
d="M111 214v355c0 38 -2 64 -9 75c-6 10 -18 14 -42 15l-48 3v30c52 -2 99 -3 148 -3c46 0 93 1 145 3v-30l-48 -3c-24 -1 -36 -5 -42 -15c-7 -11 -9 -37 -9 -75v-344c0 -142 74 -183 206 -183c108 0 206 41 206 207v320c0 38 -2 64 -9 75c-6 10 -18 13 -42 15l-44 3v30
c40 -1 80 -3 116 -3c40 0 76 2 120 3v-30l-44 -3c-24 -2 -36 -5 -42 -15c-7 -11 -9 -37 -9 -75v-289c0 -214 -81 -300 -283 -300c-170 0 -270 51 -270 234zM662 798h-525v53h525v-53zM394 905c-33 5 -117 22 -152 182l33 -20c19 -28 49 -102 122 -102c67 0 105 58 105 117
l20 -9c16 -93 -55 -179 -128 -168zM397 1120c27 0 48 -21 48 -48s-21 -49 -48 -49s-49 22 -49 49s22 48 49 48z" />
    <glyph glyph-name="abindu.sc" unicode="&#xf761;&#x310;" horiz-adv-x="611" 
d="M290 498h38l174 -395c31 -74 52 -78 90 -78v-28c-16 1 -76 3 -119 3c-42 0 -79 -2 -123 -3v28c59 0 74 8 74 27c0 22 -27 72 -40 100c-34 1 -68 2 -103 2c-33 0 -67 -1 -101 -2c-9 -21 -34 -54 -34 -91c0 -28 23 -36 74 -36v-28c-33 1 -68 3 -104 3c-30 0 -53 -2 -98 -3
v28c45 0 61 6 106 108zM285 390l-88 -196c26 -1 52 -2 81 -2c32 0 58 1 91 2zM364 682c0 -29 -25 -54 -54 -54c-28 0 -54 25 -54 54s26 54 54 54c29 0 54 -25 54 -54zM418 683h31c-3 -39 -18 -71 -43 -97c-26 -27 -58 -40 -97 -40c-76 0 -133 60 -140 137h31
c25 -55 62 -82 111 -82s84 27 107 82z" />
    <glyph glyph-name="amacronbindu.sc" unicode="&#xe04c;&#x310;" horiz-adv-x="611" 
d="M290 498h38l174 -395c31 -74 52 -78 90 -78v-28c-16 1 -76 3 -119 3c-42 0 -79 -2 -123 -3v28c59 0 74 8 74 27c0 22 -27 72 -40 100c-34 1 -68 2 -103 2c-33 0 -67 -1 -101 -2c-9 -21 -34 -54 -34 -91c0 -28 23 -36 74 -36v-28c-33 1 -68 3 -104 3c-30 0 -53 -2 -98 -3
v28c45 0 61 6 106 108zM285 390l-88 -196c26 -1 52 -2 81 -2c32 0 58 1 91 2zM463 563h-312v53h312v-53zM354 792c0 -29 -25 -54 -54 -54c-28 0 -54 25 -54 54s26 54 54 54c29 0 54 -25 54 -54zM408 793h31c-3 -39 -18 -71 -43 -97c-26 -27 -58 -40 -97 -40
c-76 0 -133 60 -140 137h31c25 -55 62 -82 111 -82s84 27 107 82z" />
    <glyph glyph-name="ebindu.sc" unicode="&#xf765;&#x310;" 
d="M116 108v282c0 66 -18 70 -93 70v27c31 -1 59 -3 94 -3c37 0 73 2 109 4s73 4 109 4c40 0 89 -3 121 -8c-6 -34 -10 -72 -12 -120h-28c-3 38 -4 59 -10 80c-39 7 -87 10 -135 10c-24 0 -45 -3 -63 -6c-3 -52 -2 -117 -2 -175c23 -1 50 -2 96 -2c48 0 56 11 56 67h30
c-1 -27 -2 -58 -2 -85c0 -31 1 -65 2 -93h-30c0 63 -8 75 -95 75c-25 0 -41 -1 -57 -2c0 -80 1 -146 4 -193c27 -2 54 -4 88 -4c44 0 88 5 112 12c10 27 17 57 22 90h26c-1 -51 -4 -97 -8 -136c-40 -4 -89 -5 -136 -5c-58 0 -107 3 -155 3c-45 0 -80 -2 -129 -3v28
c80 0 86 12 86 83zM314 682c0 -29 -25 -54 -54 -54c-28 0 -54 25 -54 54s26 54 54 54c29 0 54 -25 54 -54zM368 683h31c-3 -39 -18 -71 -43 -97c-26 -27 -58 -40 -97 -40c-76 0 -133 60 -140 137h31c25 -55 62 -82 111 -82s84 27 107 82z" />
    <glyph glyph-name="ibindu.sc" unicode="&#xf769;&#x310;" horiz-adv-x="333" 
d="M120 92v312c0 53 -24 55 -90 55v28c36 -1 80 -3 132 -3c48 0 83 2 138 3v-28c-74 0 -90 -1 -90 -55v-312c0 -60 8 -67 90 -67v-28c-44 1 -88 3 -133 3c-46 0 -91 -2 -137 -3v28c74 0 90 7 90 67zM224 682c0 -29 -25 -54 -54 -54c-28 0 -54 25 -54 54s26 54 54 54
c29 0 54 -25 54 -54zM278 683h31c-3 -39 -18 -71 -43 -97c-26 -27 -58 -40 -97 -40c-76 0 -133 60 -140 137h31c25 -55 62 -82 111 -82s84 27 107 82z" />
    <glyph glyph-name="imacronbindu.sc" unicode="&#xe04e;&#x310;" horiz-adv-x="333" 
d="M120 92v312c0 53 -24 55 -90 55v28c36 -1 80 -3 132 -3c48 0 83 2 138 3v-28c-74 0 -90 -1 -90 -55v-312c0 -60 8 -67 90 -67v-28c-44 1 -88 3 -133 3c-46 0 -91 -2 -137 -3v28c74 0 90 7 90 67zM323 563h-312v53h312v-53zM224 792c0 -29 -25 -54 -54 -54
c-28 0 -54 25 -54 54s26 54 54 54c29 0 54 -25 54 -54zM278 793h31c-3 -39 -18 -71 -43 -97c-26 -27 -58 -40 -97 -40c-76 0 -133 60 -140 137h31c25 -55 62 -82 111 -82s84 27 107 82z" />
    <glyph glyph-name="obindu.sc" unicode="&#xf76f;&#x310;" horiz-adv-x="611" 
d="M313 498c172 0 257 -116 257 -239c0 -135 -102 -273 -272 -273c-120 0 -258 90 -258 250c0 172 128 262 273 262zM294 464c-86 0 -154 -72 -154 -198c0 -110 42 -240 182 -240c118 0 148 114 148 210c0 124 -52 228 -176 228zM354 682c0 -29 -25 -54 -54 -54
c-28 0 -54 25 -54 54s26 54 54 54c29 0 54 -25 54 -54zM408 683h31c-3 -39 -18 -71 -43 -97c-26 -27 -58 -40 -97 -40c-76 0 -133 60 -140 137h31c25 -55 62 -82 111 -82s84 27 107 82z" />
    <glyph glyph-name="ubindu.sc" unicode="&#xf775;&#x310;" horiz-adv-x="611" 
d="M194 419v-242c0 -86 32 -139 135 -139c87 0 136 39 136 141v216c0 55 -7 64 -85 64v28c36 -1 72 -3 107 -3c44 0 77 2 103 3v-28c-72 0 -85 -7 -85 -60v-215c0 -103 -29 -198 -197 -198c-166 0 -204 68 -204 189v234c0 45 -26 50 -84 50v28c43 -1 86 -3 128 -3
c32 0 64 2 122 3v-26c-64 -2 -76 -13 -76 -42zM364 682c0 -29 -25 -54 -54 -54c-28 0 -54 25 -54 54s26 54 54 54c29 0 54 -25 54 -54zM418 683h31c-3 -39 -18 -71 -43 -97c-26 -27 -58 -40 -97 -40c-76 0 -133 60 -140 137h31c25 -55 62 -82 111 -82s84 27 107 82z" />
    <glyph glyph-name="umacronbindu.sc" unicode="&#xe04d;&#x310;" horiz-adv-x="611" 
d="M194 419v-242c0 -86 32 -139 135 -139c87 0 136 39 136 141v216c0 55 -7 64 -85 64v28c36 -1 72 -3 107 -3c44 0 77 2 103 3v-28c-72 0 -85 -7 -85 -60v-215c0 -103 -29 -198 -197 -198c-166 0 -204 68 -204 189v234c0 45 -26 50 -84 50v28c43 -1 86 -3 128 -3
c32 0 64 2 122 3v-26c-64 -2 -76 -13 -76 -42zM483 563h-312v53h312v-53zM374 792c0 -29 -25 -54 -54 -54c-28 0 -54 25 -54 54s26 54 54 54c29 0 54 -25 54 -54zM428 793h31c-3 -39 -18 -71 -43 -97c-26 -27 -58 -40 -97 -40c-76 0 -133 60 -140 137h31
c25 -55 62 -82 111 -82s84 27 107 82z" />
    <glyph glyph-name=".notdef" 
d="M0 0v700h500v-700h-500zM250 395l170 255h-340zM280 350l170 -255v510zM80 50h340l-170 255zM50 605v-510l170 255z" />
    <glyph glyph-name="space" unicode=" " horiz-adv-x="250" 
 />
    <glyph glyph-name="exclam" unicode="!" horiz-adv-x="278" 
d="M138 -5c-31 0 -57 28 -57 58s27 58 57 58c31 0 59 -28 59 -58s-27 -58 -59 -58zM160 694h34v-25c0 -48 -8 -95 -12 -143l-24 -278v-25l-28 -23l-10 5c0 14 0 27 -2 40l-26 305c-3 35 -5 71 -7 106z" />
    <glyph glyph-name="quotedbl" unicode="&#x22;" horiz-adv-x="371" 
d="M105 469h-20l-33 196v5c0 19 21 39 43 39s43 -20 43 -39v-5zM286 469h-20l-33 196v5c0 19 21 39 43 39s43 -20 43 -39v-5z" />
    <glyph glyph-name="numbersign" unicode="#" 
d="M470 280v-56h-109l-31 -224h-58l31 224h-134l-33 -224h-58l33 224h-107v56h116l21 139h-110v56h118l31 209h58l-31 -209h133l30 209h58l-30 -209h97v-56h-105l-20 -139h100zM332 419h-133l-21 -139h134z" />
    <glyph glyph-name="dollar" unicode="$" 
d="M223 18v279c-109 12 -193 33 -193 161c0 118 78 193 193 208c-1 26 -3 46 -4 65h45c-2 -20 -3 -38 -4 -62c56 -4 115 -12 166 -43c-10 -36 -13 -80 -13 -126h-32v42c0 12 0 24 -3 36c-9 36 -79 53 -118 55v-260c111 -11 211 -30 211 -165s-103 -208 -211 -224
c1 -34 3 -71 4 -100h-45c2 24 3 61 4 98c-45 0 -121 12 -193 42c8 46 10 100 12 148h32v-64c0 -9 0 -20 3 -26c18 -36 93 -61 146 -64zM260 292v-274c70 8 132 72 132 153c0 87 -55 111 -132 121zM223 379v251c-79 -6 -118 -62 -118 -137c0 -78 45 -107 118 -114z" />
    <glyph glyph-name="percent" unicode="%" horiz-adv-x="840" 
d="M202 689c87 0 153 -64 153 -152c0 -95 -65 -169 -163 -169c-87 0 -153 64 -153 152c0 95 65 169 163 169zM199 666c-69 0 -88 -84 -88 -138s12 -137 83 -137c69 0 89 84 89 138s-13 137 -84 137zM649 321c87 0 153 -64 153 -152c0 -95 -65 -169 -163 -169
c-87 0 -153 64 -153 152c0 95 65 169 163 169zM646 298c-69 0 -88 -84 -88 -138s12 -137 83 -137c69 0 89 84 89 138s-13 137 -84 137zM250 -20h-40l366 729h40z" />
    <glyph glyph-name="ampersand" unicode="&#x26;" horiz-adv-x="778" 
d="M548 387l194 7c-8 -26 -12 -48 -12 -72c-46 8 -96 10 -140 12c5 -16 5 -32 5 -46c0 -65 -38 -124 -81 -170c57 -33 112 -63 169 -63c26 0 43 9 64 19l6 -25l-87 -63c-7 -5 -19 -6 -30 -6h-10c-42 0 -137 43 -175 77c-56 -46 -126 -77 -199 -77c-128 0 -209 84 -209 193
c0 100 72 169 155 214c-18 43 -30 90 -30 130c0 41 7 74 24 89l68 60c13 12 32 23 69 23c58 0 95 -32 95 -92c0 -85 -80 -156 -144 -200c57 -94 127 -178 204 -256c29 37 48 75 48 108c0 39 -10 79 -23 84c-14 5 -52 8 -91 11l33 45c26 -1 52 -2 79 -2h18zM213 352
c-51 -38 -83 -79 -83 -145c0 -90 76 -171 167 -171c43 0 89 21 123 46c-76 85 -152 170 -207 270zM303 636c-59 0 -65 -44 -65 -88c0 -32 15 -86 26 -117c39 25 93 87 93 135c0 31 -18 70 -54 70z" />
    <glyph glyph-name="quoteright" unicode="&#x2019;" horiz-adv-x="278" 
d="M104 470l-44 -24l-15 10c44 68 73 145 78 223c33 8 65 20 97 30l13 -13c-31 -81 -75 -158 -129 -226z" />
    <glyph glyph-name="parenleft" unicode="(" horiz-adv-x="333" 
d="M301 -194l-19 -21c-149 127 -222 294 -222 482c0 180 75 338 222 459l19 -26c-116 -124 -155 -267 -155 -433c0 -168 39 -333 155 -461z" />
    <glyph glyph-name="parenright" unicode=")" horiz-adv-x="333" 
d="M51 -215l-19 21c116 128 155 293 155 461c0 166 -39 309 -155 433l19 26c147 -121 222 -279 222 -459c0 -188 -73 -355 -222 -482z" />
    <glyph glyph-name="asterisk" unicode="*" horiz-adv-x="389" 
d="M168 514l-131 64l-3 10l44 52h10l95 -98l26 143l9 4l62 -19l3 -15l-69 -125l139 24l6 -4v-62l-9 -8l-138 20l68 -122v-10l-68 -26l-10 4l-18 142l-106 -88h-10l-36 51l5 9z" />
    <glyph glyph-name="plus" unicode="+" horiz-adv-x="606" 
d="M275 289v223h56v-223h224v-56h-224v-226h-56v226h-224v56h224z" />
    <glyph glyph-name="comma" unicode="," horiz-adv-x="250" 
d="M204 123l14 -14c-32 -90 -89 -170 -147 -245l-41 -19l-14 11c44 72 83 151 90 237c34 8 65 19 98 30z" />
    <glyph glyph-name="hyphen" unicode="-" horiz-adv-x="333" 
d="M282 215h-260l-5 5l27 67h263l5 -5z" />
    <glyph glyph-name="period" unicode="." horiz-adv-x="250" 
d="M124 -5c-31 0 -57 28 -57 58s27 58 57 58c31 0 59 -28 59 -58s-27 -58 -59 -58z" />
    <glyph glyph-name="slash" unicode="/" horiz-adv-x="606" 
d="M519 726l-372 -845h-60l372 845h60z" />
    <glyph glyph-name="zero" unicode="0" 
d="M238 -20c-138 6 -209 102 -209 340c0 162 30 369 237 369c144 0 199 -127 199 -312c0 -155 -20 -397 -227 -397zM248 654h-7c-117 0 -128 -153 -128 -306c0 -194 27 -333 138 -333c117 0 130 153 130 298c0 191 -21 341 -133 341z" />
    <glyph glyph-name="one" unicode="1" 
d="M67 555l-7 43c81 28 163 62 227 96l14 -5v-593c0 -23 2 -43 13 -52c13 -11 31 -13 52 -14l52 -3v-30c-75 1 -117 3 -159 3s-84 -2 -163 -3v30l56 3c21 1 39 3 52 14c11 9 13 29 13 52v485c0 15 0 33 -8 33c-1 0 -2 0 -3 -1l-129 -58h-10z" />
    <glyph glyph-name="two" unicode="2" 
d="M16 23l170 181c128 136 155 205 155 267c0 81 -50 141 -134 141c-67 0 -107 -16 -126 -83l-13 -46h-29c7 45 11 91 17 136c44 50 105 70 170 70c146 0 205 -89 205 -187c0 -83 -41 -141 -127 -232l-182 -193c115 0 231 6 346 10c-1 -15 -2 -30 -2 -45s1 -30 2 -45
c-78 1 -152 3 -228 3s-150 -2 -224 -3v26z" />
    <glyph glyph-name="three" unicode="3" 
d="M43 498l29 124c43 48 98 67 162 67c112 0 184 -59 184 -152c0 -63 -50 -119 -110 -163c98 -14 154 -61 154 -154c0 -123 -142 -240 -284 -240c-33 0 -89 12 -128 26c-4 42 -16 93 -35 147l27 10c29 -94 80 -142 180 -142c93 0 147 79 147 167s-42 146 -133 146
c-34 0 -60 -12 -82 -22l-7 6l12 53c15 -1 29 -3 44 -3c83 0 133 71 133 138s-55 116 -121 116c-51 0 -112 -35 -123 -68l-18 -56h-31z" />
    <glyph glyph-name="four" unicode="4" 
d="M280 181h-267l-11 23l283 463l74 27l12 -5c-5 -31 -7 -153 -7 -305v-139h27c27 0 54 1 81 3v-71c-31 4 -69 4 -108 4v-75c0 -68 18 -73 60 -76l48 -3v-30c-53 1 -105 3 -158 3s-105 -2 -156 -3v30l62 3c42 2 60 8 60 76v75zM280 245v349h-2l-213 -349h215z" />
    <glyph glyph-name="five" unicode="5" 
d="M127 605l-9 -209c41 26 90 50 140 50c116 0 201 -73 201 -194c0 -155 -147 -272 -291 -272c-28 0 -82 8 -106 24c-14 44 -31 89 -49 133l24 14l46 -82c19 -33 82 -44 118 -44c115 0 173 71 173 175c0 107 -58 177 -156 177c-56 0 -86 -23 -123 -61l-20 6
c3 28 6 132 6 232c0 47 0 94 -2 130l5 5c58 -3 115 -5 174 -5s116 2 174 5l5 -5c-1 -13 -2 -26 -2 -39c0 -14 1 -27 2 -40l-5 -5c-106 0 -205 2 -305 5z" />
    <glyph glyph-name="six" unicode="6" 
d="M242 -20c-153 0 -210 132 -210 266c0 222 145 390 347 443l37 -17v-8c-174 -50 -266 -152 -285 -333c54 41 88 78 161 78c112 0 176 -79 176 -191c0 -138 -100 -238 -226 -238zM251 349c-46 0 -102 -28 -120 -71c-7 -18 -8 -38 -8 -57v-13c0 -84 26 -195 131 -195
c94 0 128 92 128 172c0 82 -37 164 -131 164z" />
    <glyph glyph-name="seven" unicode="7" 
d="M56 10l244 392c37 60 72 124 109 201h-267c-48 0 -54 -11 -61 -70l-7 -56h-30c1 34 3 69 3 104c0 34 -2 68 -3 103l10 5c73 -3 147 -5 221 -5c75 0 149 2 222 5v-30l-183 -329c-62 -112 -117 -227 -157 -333c-15 1 -31 3 -46 3s-31 -2 -46 -3z" />
    <glyph glyph-name="eight" unicode="8" 
d="M259 689c91 0 177 -45 177 -146c0 -75 -66 -124 -123 -162c81 -36 151 -76 151 -175c0 -127 -112 -226 -236 -226c-109 0 -198 67 -198 182c0 86 62 153 138 183c-69 43 -115 86 -115 159c0 118 95 185 206 185zM284 295l-80 36c-72 -40 -103 -93 -103 -168
c0 -92 56 -149 146 -149c81 0 138 76 138 150c0 71 -61 113 -101 131zM223 423l55 -27c51 31 90 74 90 136c0 72 -45 123 -119 123c-73 0 -121 -41 -121 -115c0 -56 50 -95 95 -117z" />
    <glyph glyph-name="nine" unicode="9" 
d="M96 -20l-34 17v8c168 39 292 161 298 335l-70 -58c-20 -16 -60 -26 -85 -26c-119 0 -185 90 -185 201c0 129 93 232 225 232c133 0 212 -107 212 -268c0 -201 -107 -373 -361 -441zM242 317c80 0 128 71 128 149c0 81 -28 190 -126 190h-3c-104 -2 -135 -86 -135 -169
c0 -82 42 -170 136 -170z" />
    <glyph glyph-name="colon" unicode=":" horiz-adv-x="250" 
d="M123 -5c-31 0 -57 28 -57 58s27 58 57 58c31 0 59 -28 59 -58s-27 -58 -59 -58zM123 340c-31 0 -57 28 -57 58s27 58 57 58c31 0 59 -28 59 -58s-27 -58 -59 -58z" />
    <glyph glyph-name="semicolon" unicode=";" horiz-adv-x="250" 
d="M204 125l14 -14c-32 -90 -89 -170 -147 -245l-41 -19l-14 11c44 72 83 151 90 237c34 8 65 19 98 30zM150 340c-31 0 -57 28 -57 58s27 58 57 58c31 0 59 -28 59 -58s-27 -58 -59 -58z" />
    <glyph glyph-name="less" unicode="&#x3c;" horiz-adv-x="606" 
d="M558 60v-60l-501 234v54l501 234v-60l-432 -203z" />
    <glyph glyph-name="equal" unicode="=" horiz-adv-x="606" 
d="M555 386v-56h-504v56h504zM555 192v-56h-504v56h504z" />
    <glyph glyph-name="greater" unicode="&#x3e;" horiz-adv-x="606" 
d="M48 60l432 199l-432 203v60l501 -234v-54l-501 -234v60z" />
    <glyph glyph-name="question" unicode="?" horiz-adv-x="444" 
d="M43 546l38 113c37 19 82 35 125 35c98 0 189 -53 189 -156c0 -67 -51 -118 -102 -164s-102 -86 -102 -130c0 -22 12 -37 22 -49l-21 -14c-26 15 -44 43 -44 73c0 45 39 86 77 128c39 43 77 86 77 136c0 62 -50 110 -119 110c-43 0 -78 -11 -91 -42l-20 -48zM198 -5
c-31 0 -57 28 -57 58s27 58 57 58c31 0 59 -28 59 -58s-27 -58 -59 -58z" />
    <glyph glyph-name="at" unicode="@" horiz-adv-x="747" 
d="M658 171h61c-61 -115 -186 -191 -319 -191c-205 0 -376 144 -376 349c0 204 158 365 368 365c169 0 332 -110 332 -285c0 -151 -129 -275 -233 -275c-50 0 -74 42 -76 84c-36 -45 -65 -79 -122 -79c-78 0 -134 63 -134 145c0 109 101 225 216 225c50 0 80 -30 88 -76h2
l17 66h88l-77 -279c-2 -8 -4 -18 -4 -27c0 -16 6 -30 27 -30c58 0 155 105 155 244c0 125 -108 237 -272 237c-182 0 -320 -127 -320 -308c0 -182 143 -306 326 -306c107 0 196 56 253 141zM309 166c89 0 136 175 136 242c0 30 -14 74 -53 74c-88 0 -144 -158 -144 -228
c0 -38 14 -88 61 -88z" />
    <glyph glyph-name="A" unicode="A" horiz-adv-x="778" 
d="M408 700l242 -568c9 -20 20 -47 32 -68c11 -19 22 -32 40 -34l34 -3v-30c-44 1 -88 3 -133 3c-35 0 -79 -2 -133 -3v30l47 3c21 1 41 8 41 20c0 14 -11 40 -21 64l-46 115h-288l-28 -67c-9 -21 -35 -88 -35 -104c0 -21 17 -25 48 -28l37 -3v-30c-48 1 -86 3 -115 3
c-39 0 -77 -2 -115 -3v30l37 3c24 2 43 23 54 49l178 405c31 70 65 144 92 216h32zM240 269h253l-126 298z" />
    <glyph glyph-name="B" unicode="B" horiz-adv-x="611" 
d="M113 95v474c0 38 -2 64 -9 75c-6 10 -18 13 -42 15l-36 3v30c55 -1 112 -3 144 -3c58 0 114 2 193 3h8c90 0 171 -35 171 -138c0 -91 -85 -150 -167 -163v-2c102 -3 201 -45 201 -162c0 -96 -71 -230 -279 -230h-14c-37 1 -73 3 -109 3c-37 0 -73 -2 -109 -3v23l26 10
c18 7 22 38 22 65zM208 362v-315c28 -7 57 -8 84 -8c111 0 181 64 181 171c0 110 -70 154 -198 154c-28 0 -49 -1 -67 -2zM208 644v-243c18 -1 41 -2 71 -2c87 0 164 36 164 135c0 96 -67 118 -151 118c-27 0 -56 -1 -84 -8z" />
    <glyph glyph-name="C" unicode="C" horiz-adv-x="709" 
d="M670 84l-28 -50c-58 -35 -157 -54 -218 -54c-240 0 -402 137 -402 364c0 115 45 206 122 269c75 62 177 96 289 96c93 0 183 -24 231 -41c-10 -47 -19 -100 -19 -152h-31v72c0 28 -40 45 -86 62c-32 11 -75 17 -112 17c-188 0 -287 -137 -287 -307
c0 -198 131 -326 329 -326c72 0 157 26 203 60z" />
    <glyph glyph-name="D" unicode="D" horiz-adv-x="774" 
d="M113 95v474c0 38 -2 64 -9 75c-6 10 -18 13 -42 15l-40 3v30c67 -1 131 -3 197 -3s130 2 174 3h13c198 0 345 -115 345 -305c0 -164 -94 -305 -215 -355c-57 -23 -116 -35 -195 -35h-19c-40 1 -84 3 -129 3s-89 -2 -136 -3v23l31 16c17 9 25 32 25 59zM208 644v-595
c28 -7 80 -8 114 -8c50 0 108 3 163 29c110 51 159 154 159 289c0 248 -142 293 -322 293c-34 0 -86 -1 -114 -8z" />
    <glyph glyph-name="E" unicode="E" horiz-adv-x="611" 
d="M121 120v449c0 38 -2 64 -9 75c-6 10 -18 14 -42 15l-48 3v30c28 0 56 -1 84 -2c28 0 57 -1 85 -1c87 0 179 3 236 3c45 0 90 -1 129 -3c-11 -44 -16 -101 -16 -152h-35v65c0 13 -1 24 -9 27c-53 20 -132 21 -196 21c-27 0 -56 -1 -84 -8v-267c32 -2 68 -3 116 -3
c61 0 95 4 106 11c5 4 7 13 8 26l5 52h30c-1 -41 -3 -79 -3 -116s2 -75 3 -111h-30l-5 59c-1 13 -3 22 -8 25c-11 8 -45 12 -106 12c-48 0 -85 0 -116 -3v-280c28 -7 57 -8 84 -8c82 0 184 3 202 13c15 8 28 52 35 112h35c-10 -48 -16 -110 -16 -164c-38 -1 -102 -3 -166 -3
h-31c-77 1 -156 3 -218 3c-38 0 -71 -2 -107 -3v30l36 3c24 2 36 5 42 15c7 11 9 37 9 75z" />
    <glyph glyph-name="F" unicode="F" horiz-adv-x="556" 
d="M216 327v-207c0 -38 2 -64 9 -75c6 -10 18 -14 42 -15l48 -3v-30c-52 2 -99 3 -145 3c-49 0 -96 -1 -148 -3v30l48 3c24 1 36 5 42 15c7 11 9 37 9 75v449c0 38 -2 64 -9 75c-6 10 -18 14 -42 15l-48 3v30c28 0 56 -1 84 -2c28 0 57 -1 85 -1c67 0 159 3 216 3
c45 0 90 -1 129 -3c-11 -44 -16 -101 -16 -152h-35v65c0 13 -1 24 -9 27c-53 20 -132 21 -176 21c-27 0 -56 -1 -84 -8v-267c32 -2 68 -3 116 -3c61 0 95 4 106 11c5 4 7 13 8 26l5 52h30c-1 -41 -3 -79 -3 -116s2 -75 3 -111h-30l-5 59c-1 13 -3 22 -8 25
c-11 8 -45 12 -106 12c-48 0 -85 0 -116 -3z" />
    <glyph glyph-name="G" unicode="G" horiz-adv-x="763" 
d="M596 98v101c0 23 -8 33 -34 35l-83 7v30c41 -1 82 -2 122 -2c41 0 82 1 123 2l4 -25l-29 -10c-11 -4 -11 -8 -11 -37v-168c-86 -25 -194 -51 -263 -51c-223 0 -403 116 -403 367c0 220 181 362 422 362c124 0 202 -28 248 -41c-12 -47 -20 -100 -20 -152h-31v53
c0 47 -36 63 -83 80c-32 11 -75 18 -140 18c-190 0 -289 -125 -289 -303c0 -199 116 -342 322 -342c77 0 134 17 140 35c4 11 5 16 5 41z" />
    <glyph glyph-name="H" unicode="H" horiz-adv-x="832" 
d="M711 569v-449c0 -38 2 -64 9 -75c6 -10 18 -14 42 -15l48 -3v-30c-52 2 -99 3 -145 3c-49 0 -96 -1 -148 -3v30l48 3c24 1 36 5 42 15c7 11 9 37 9 75v223c-12 1 -39 2 -83 2h-234c-44 0 -71 -1 -83 -2v-223c0 -38 2 -64 9 -75c6 -10 18 -14 42 -15l48 -3v-30
c-52 2 -99 3 -145 3c-49 0 -96 -1 -148 -3v30l48 3c24 1 36 5 42 15c7 11 9 37 9 75v449c0 38 -2 64 -9 75c-6 10 -18 14 -42 15l-48 3v30c52 -2 99 -3 148 -3c46 0 93 1 145 3v-30l-48 -3c-24 -1 -36 -5 -42 -15c-7 -11 -9 -37 -9 -75v-178c12 -1 39 -2 83 -2h234
c44 0 71 1 83 2v178c0 38 -2 64 -9 75c-6 10 -18 14 -42 15l-48 3v30c52 -2 99 -3 148 -3c46 0 93 1 145 3v-30l-48 -3c-24 -1 -36 -5 -42 -15c-7 -11 -9 -37 -9 -75z" />
    <glyph glyph-name="I" unicode="I" horiz-adv-x="337" 
d="M216 569v-449c0 -38 2 -64 9 -75c6 -10 18 -14 42 -15l48 -3v-30c-52 2 -99 3 -145 3c-49 0 -96 -1 -148 -3v30l48 3c24 1 36 5 42 15c7 11 9 37 9 75v449c0 38 -2 64 -9 75c-6 10 -18 14 -42 15l-48 3v30c52 -2 99 -3 148 -3c46 0 93 1 145 3v-30l-48 -3
c-24 -1 -36 -5 -42 -15c-7 -11 -9 -37 -9 -75z" />
    <glyph glyph-name="J" unicode="J" horiz-adv-x="333" 
d="M212 569v-478c0 -61 -4 -134 -62 -205c-35 -43 -85 -80 -143 -80c-7 0 -13 1 -17 2l-5 76l11 6c24 -15 45 -19 70 -19c20 0 35 10 43 33c5 17 8 53 8 79v586c0 38 -2 64 -9 75c-6 10 -18 14 -42 15l-48 3v30c52 -2 99 -3 148 -3c46 0 93 1 145 3v-30l-48 -3
c-24 -1 -36 -5 -42 -15c-7 -11 -9 -37 -9 -75z" />
    <glyph glyph-name="K" unicode="K" horiz-adv-x="726" 
d="M216 325v-205c0 -38 2 -64 9 -75c6 -10 18 -14 42 -15l48 -3v-30c-52 2 -99 3 -145 3c-49 0 -96 -1 -148 -3v30l48 3c24 1 36 5 42 15c7 11 9 37 9 75v449c0 38 -2 64 -9 75c-6 10 -18 14 -42 15l-48 3v30c52 -2 99 -3 148 -3c46 0 93 1 145 3v-30l-48 -3
c-24 -1 -36 -5 -42 -15c-7 -11 -9 -37 -9 -75v-214l278 271c15 15 29 32 29 39v27c32 -1 60 -3 89 -3c28 0 56 2 80 3v-30l-42 -2c-26 -1 -53 -15 -78 -38l-266 -240l330 -312c25 -23 44 -39 62 -41l21 -2v-30c-19 1 -43 3 -66 3c-24 0 -48 -2 -79 -3l-348 335z" />
    <glyph glyph-name="L" unicode="L" horiz-adv-x="611" 
d="M216 569v-522c28 -7 57 -8 84 -8c82 0 204 3 221 19c10 9 16 43 21 64l12 50h32c-6 -55 -13 -122 -21 -172c-38 -1 -102 -3 -166 -3h-31c-90 1 -156 3 -218 3c-34 0 -59 -2 -85 -3v23l31 16c17 9 25 32 25 59v474c0 38 -2 64 -9 75c-6 10 -18 14 -42 15l-48 3v30
c52 -2 99 -3 148 -3c46 0 93 1 145 3v-30l-48 -3c-24 -1 -36 -5 -42 -15c-7 -11 -9 -37 -9 -75z" />
    <glyph glyph-name="M" unicode="M" horiz-adv-x="946" 
d="M827 569v-449c0 -38 2 -64 9 -75c6 -10 18 -14 42 -15l48 -3v-30c-52 2 -99 3 -145 3c-49 0 -96 -1 -134 -3v30l34 3c24 2 36 5 42 15c7 11 9 37 9 75v454h-2c-15 -27 -29 -55 -42 -82l-178 -378c-19 -41 -36 -85 -54 -127h-20l-277 587h-2v-454c0 -38 2 -64 9 -75
c6 -10 18 -13 42 -15l44 -3v-30c-44 1 -80 3 -120 3c-36 0 -76 -2 -116 -3v30l44 3c24 2 36 5 42 15c7 11 9 37 9 75v449c0 38 -2 64 -9 75c-6 10 -18 13 -42 15l-44 3v30c31 -1 63 -3 95 -3s64 2 95 3l264 -556l262 556c32 -1 63 -3 95 -3s64 2 93 3v-30l-42 -3
c-24 -2 -36 -5 -42 -15c-7 -11 -9 -37 -9 -75z" />
    <glyph glyph-name="N" unicode="N" horiz-adv-x="831" 
d="M112 120v449c0 38 -2 64 -9 75c-6 10 -18 13 -42 15l-44 3v30c44 -1 84 -3 120 -3c18 0 36 2 54 3l478 -590h3v467c0 38 -2 64 -9 75c-6 10 -18 13 -42 15l-44 3v30c40 -1 80 -3 116 -3c40 0 76 2 120 3v-30l-44 -3c-24 -2 -36 -5 -42 -15c-7 -11 -9 -37 -9 -75v-552
c0 -12 2 -25 3 -37l-90 16l-471 585h-2v-461c0 -38 2 -64 9 -75c6 -10 18 -13 42 -15l44 -3v-30c-44 1 -80 3 -120 3c-36 0 -76 -2 -116 -3v30l44 3c24 2 36 5 42 15c7 11 9 37 9 75z" />
    <glyph glyph-name="O" unicode="O" horiz-adv-x="786" 
d="M377 -20c-203 0 -355 140 -355 364c0 206 144 365 376 365c214 0 366 -120 366 -342c0 -215 -168 -387 -387 -387zM382 667c-174 0 -253 -122 -253 -286c0 -175 82 -359 280 -359c167 0 248 130 248 314c0 198 -89 331 -275 331z" />
    <glyph glyph-name="P" unicode="P" horiz-adv-x="604" 
d="M216 642v-522c0 -38 2 -64 9 -75c6 -10 18 -14 42 -15l48 -3v-30c-52 2 -99 3 -145 3c-49 0 -96 -1 -148 -3v30l48 3c24 1 36 5 42 15c7 11 9 37 9 75v449c0 35 -3 63 -10 73s-18 15 -43 17l-45 3v30c66 -1 123 -3 180 -3c58 0 116 2 170 3h7c95 0 200 -43 200 -153
c0 -125 -108 -215 -240 -215c-20 0 -40 2 -60 6l-10 36c22 -7 44 -10 66 -10c81 0 144 64 144 149c0 104 -63 149 -162 149c-45 0 -74 -5 -102 -12z" />
    <glyph glyph-name="Q" unicode="Q" horiz-adv-x="786" 
d="M398 709c214 0 366 -120 366 -342c0 -207 -162 -378 -356 -385v-2c54 -6 100 -31 148 -50c56 -22 103 -35 152 -35c18 0 37 2 56 6v-21l-84 -56c-32 6 -64 13 -106 26l-148 46c-33 10 -57 15 -80 15c-11 0 -19 -4 -26 -8l-59 -32l2 32c48 37 90 66 109 72l11 4v2h-6
c-211 0 -355 137 -355 367c0 204 144 361 376 361zM382 667c-174 0 -253 -122 -253 -286c0 -175 82 -358 280 -358c174 0 248 129 248 313c0 198 -89 331 -275 331z" />
    <glyph glyph-name="R" unicode="R" horiz-adv-x="668" 
d="M216 642v-522c0 -38 2 -64 9 -75c6 -10 18 -14 42 -15l48 -3v-30c-52 2 -99 3 -145 3c-49 0 -96 -1 -148 -3v30l48 3c24 1 36 5 42 15c7 11 9 37 9 75v449c0 38 -2 64 -9 75c-6 10 -18 13 -42 15l-41 3v30c53 -1 111 -3 170 -3s117 2 175 3h9c153 0 193 -79 193 -150
c0 -109 -98 -174 -195 -193l227 -296c15 -20 37 -24 61 -26v-30c-26 1 -49 3 -72 3s-45 -2 -68 -3c-13 19 -28 36 -41 54l-184 247c-16 22 -35 41 -52 62l6 12c9 -1 17 -1 27 -1c20 0 40 2 61 5c70 12 130 66 130 140c0 108 -80 138 -158 138c-45 0 -74 -5 -102 -12z" />
    <glyph glyph-name="S" unicode="S" horiz-adv-x="525" 
d="M447 526h-32l-6 57c-3 27 -7 37 -44 60c-28 17 -70 24 -109 24c-70 0 -148 -47 -148 -146c0 -68 40 -110 165 -124c141 -15 230 -50 230 -164c0 -171 -153 -253 -302 -253c-70 0 -138 22 -171 38c6 38 7 78 7 115v38h32l8 -67c5 -42 84 -80 163 -80c90 0 179 55 179 154
c0 95 -74 122 -176 134c-157 18 -219 67 -219 171c0 155 136 226 256 226c80 0 140 -26 181 -42c-10 -51 -14 -94 -14 -141z" />
    <glyph glyph-name="T" unicode="T" horiz-adv-x="613" 
d="M259 120v423c0 38 -1 70 -4 100h-155c-30 0 -38 -9 -40 -33l-4 -79h-31c0 54 -2 109 -7 161c72 0 144 -3 216 -3h145c36 0 72 1 108 2c36 0 72 1 108 1c-5 -52 -7 -107 -7 -161h-31l-4 79c-2 24 -10 33 -40 33h-155c-3 -30 -4 -62 -4 -100v-423c0 -38 2 -64 9 -75
c6 -10 18 -14 42 -15l48 -3v-30c-52 2 -99 3 -145 3c-49 0 -96 -1 -148 -3v30l48 3c24 1 36 5 42 15c7 11 9 37 9 75z" />
    <glyph glyph-name="U" unicode="U" horiz-adv-x="778" 
d="M111 214v355c0 38 -2 64 -9 75c-6 10 -18 14 -42 15l-48 3v30c52 -2 99 -3 148 -3c46 0 93 1 145 3v-30l-48 -3c-24 -1 -36 -5 -42 -15c-7 -11 -9 -37 -9 -75v-344c0 -142 74 -183 206 -183c108 0 206 41 206 207v320c0 38 -2 64 -9 75c-6 10 -18 13 -42 15l-44 3v30
c40 -1 80 -3 116 -3c40 0 76 2 120 3v-30l-44 -3c-24 -2 -36 -5 -42 -15c-7 -11 -9 -37 -9 -75v-289c0 -214 -81 -300 -283 -300c-170 0 -270 51 -270 234z" />
    <glyph glyph-name="V" unicode="V" horiz-adv-x="722" 
d="M188 628l197 -507l183 473c6 15 9 27 9 36c0 23 -16 28 -35 29l-52 3v30c36 -1 71 -3 108 -3s72 2 108 3v-30l-30 -3c-21 -2 -34 -24 -54 -72l-174 -421c-24 -57 -46 -114 -64 -175h-50c-16 59 -38 116 -58 165l-188 462c-13 32 -27 40 -44 41l-36 3v30
c44 -1 88 -3 133 -3s89 2 133 3v-30l-56 -3c-16 -1 -32 -5 -32 -20c0 -3 0 -7 2 -11z" />
    <glyph glyph-name="W" unicode="W" horiz-adv-x="1000" 
d="M613 197l-125 339l-174 -442c-13 -34 -26 -68 -36 -103h-50c-7 37 -15 68 -23 103l-119 515c-10 43 -29 48 -50 50l-28 3v30c42 -1 83 -3 126 -3s84 2 126 3v-30l-42 -3c-20 -2 -37 -5 -37 -35c0 -8 1 -18 4 -31l99 -446h2l123 312c31 79 63 159 90 241h32
c9 -40 27 -86 41 -126l155 -434h2l131 486c1 4 1 7 1 10c0 16 -15 20 -47 23l-40 3v30c35 -1 69 -3 105 -3s70 2 105 3v-30l-32 -3c-22 -2 -33 -12 -38 -29l-153 -538c-8 -29 -19 -60 -27 -101h-50c-22 79 -46 137 -71 206z" />
    <glyph glyph-name="X" unicode="X" horiz-adv-x="667" 
d="M487 21l-168 282c-15 -21 -31 -42 -45 -64l-157 -242c-17 1 -34 3 -51 3c-18 0 -35 -2 -52 -3v30l26 3c31 4 48 33 65 56l189 255l-128 213c-33 55 -68 88 -92 90l-45 3l-2 26l141 27c24 -12 43 -42 57 -65l128 -216l185 270h101v-30l-41 -3c-20 -1 -48 -41 -68 -68
l-154 -208l176 -280c19 -30 42 -68 66 -70l30 -3v-30c-24 1 -48 3 -72 3c-25 0 -49 -2 -73 -3z" />
    <glyph glyph-name="Y" unicode="Y" horiz-adv-x="667" 
d="M220 602l143 -261l103 163c40 63 75 126 108 190h80v-15c-84 -97 -205 -266 -246 -355c-12 -26 -14 -51 -14 -75v-129c0 -38 2 -64 9 -75c6 -10 18 -14 42 -15l48 -3v-30c-52 2 -99 3 -145 3c-49 0 -96 -1 -148 -3v30l48 3c24 1 36 5 42 15c7 11 9 37 9 75v142
c0 16 -3 30 -9 40l-124 216c-52 90 -103 127 -128 130l-29 3v29l115 24c2 0 3 1 5 1c18 0 31 -19 47 -38c17 -21 31 -41 44 -65z" />
    <glyph glyph-name="Z" unicode="Z" horiz-adv-x="667" 
d="M637 663l-486 -619h273c149 0 167 4 174 72l6 57h34c-5 -55 -6 -119 -6 -176c-98 1 -202 3 -305 3c-104 0 -208 -2 -312 -3v28c32 39 66 77 97 117l302 388c30 38 64 80 86 118h-228c-138 0 -149 -14 -152 -47l-6 -71h-34c2 27 3 54 3 81s-1 54 -3 81
c132 -1 265 -3 397 -3c52 0 104 2 156 3z" />
    <glyph glyph-name="bracketleft" unicode="[" horiz-adv-x="333" 
d="M88 14v514c-2 60 0 151 -9 185l9 13c33 -1 65 -2 97 -2c33 0 65 1 97 2l6 -6v-26l-4 -5h-38c-38 0 -68 -11 -70 -35c-3 -37 -4 -91 -4 -126v-514c0 -35 1 -89 4 -126c2 -24 32 -35 70 -35h38l4 -5v-26l-6 -6c-32 1 -64 2 -97 2c-32 0 -64 -1 -97 -2l-9 13
c9 34 7 125 9 185z" />
    <glyph glyph-name="backslash" unicode="\" horiz-adv-x="606" 
d="M81 726h59l372 -726h-59z" />
    <glyph glyph-name="bracketright" unicode="]" horiz-adv-x="333" 
d="M245 528v-514c2 -60 0 -151 9 -185l-9 -13c-33 1 -65 2 -97 2c-33 0 -65 -1 -97 -2l-6 6v26l4 5h38c38 0 68 11 70 35c3 37 4 91 4 126v514c0 35 -1 89 -4 126c-2 24 -32 35 -70 35h-38l-4 5v26l6 6c32 -1 64 -2 97 -2c32 0 64 1 97 2l9 -13c-9 -34 -7 -125 -9 -185z" />
    <glyph glyph-name="asciicircum" unicode="^" horiz-adv-x="606" 
d="M119 283h-68l219 406h66l218 -406h-68l-183 338z" />
    <glyph glyph-name="underscore" unicode="_" 
d="M0 -75h500v-50h-500v50z" />
    <glyph glyph-name="quoteleft" unicode="&#x2018;" horiz-adv-x="278" 
d="M174 685l44 24l15 -10c-44 -68 -73 -145 -78 -223c-33 -8 -65 -20 -97 -30l-13 13c31 81 75 158 129 226z" />
    <glyph glyph-name="a" unicode="a" 
d="M225 270l99 18v3c0 76 -39 125 -126 125c-43 0 -57 -4 -70 -21c-6 -8 -11 -20 -17 -33l-13 -31l-26 7v65l53 32c43 26 84 34 116 34c125 0 163 -55 163 -199v-183c0 -16 1 -32 3 -43c2 -10 11 -14 25 -15l39 -2v-30c-25 1 -50 3 -75 3c-26 0 -51 -2 -77 -3l5 85l-124 -86
c-8 -6 -28 -8 -46 -8c-68 0 -122 40 -122 121c0 115 101 144 193 161zM324 124v132c-50 -7 -95 -15 -146 -35c-35 -14 -60 -57 -60 -94c0 -51 38 -82 78 -82c31 0 63 21 96 46c16 12 28 27 32 33z" />
    <glyph glyph-name="b" unicode="b" horiz-adv-x="553" 
d="M150 718v-347h2l53 54c26 27 78 44 121 44c118 0 182 -92 182 -204c0 -66 -35 -151 -79 -183l-100 -72c-30 -22 -65 -22 -91 -22c-44 0 -89 11 -124 36l-40 -36l-16 6c1 14 3 28 4 43l4 116v467c0 23 -3 41 -25 41h-56v28c53 8 106 17 156 37zM150 308v-215
c0 -21 73 -54 122 -54c81 0 149 63 149 194c0 87 -41 171 -139 171c-77 0 -132 -64 -132 -96z" />
    <glyph glyph-name="c" unicode="c" horiz-adv-x="444" 
d="M399 311h-28l-7 61c-10 22 -69 45 -104 45c-69 0 -146 -32 -146 -163c0 -158 90 -222 187 -222c33 0 73 12 102 29l10 -15l-21 -32c-7 -10 -66 -34 -139 -34c-119 0 -227 82 -227 231c0 93 45 157 86 187c23 17 57 36 85 48c30 13 63 23 96 23c58 0 95 -19 120 -35
c-8 -30 -14 -79 -14 -123z" />
    <glyph glyph-name="d" unicode="d" horiz-adv-x="611" 
d="M412 437v183c0 23 -3 41 -25 41h-56v28c53 8 106 17 156 37l9 -8v-616c0 -27 1 -47 5 -58c4 -9 15 -13 32 -14l46 -3v-30c-41 1 -66 3 -91 3c-26 0 -51 -2 -77 -3l5 92l-111 -93c-9 -7 -38 -8 -64 -8c-140 0 -206 100 -206 231c0 91 44 159 94 185l88 46
c30 16 57 19 74 19c45 0 78 -13 121 -32zM412 221v129c0 20 -78 72 -138 72h-3c-102 -3 -149 -61 -149 -183c0 -93 52 -194 156 -194c42 0 82 29 109 63c23 29 25 57 25 91v22z" />
    <glyph glyph-name="e" unicode="e" horiz-adv-x="479" 
d="M253 436c-74 0 -132 -53 -132 -153v-13c43 -5 86 -6 127 -6c39 0 76 1 111 3c0 93 -34 169 -106 169zM258 469c109 0 190 -70 190 -183c0 -14 0 -28 -2 -42c-60 -10 -121 -14 -181 -14h-146c0 -117 58 -197 181 -197c48 0 86 24 124 47l13 -10l-20 -34
c-7 -12 -92 -56 -160 -56c-151 0 -231 96 -231 231c0 97 26 155 72 191c19 15 40 30 62 40c35 16 64 27 98 27z" />
    <glyph glyph-name="f" unicode="f" horiz-adv-x="333" 
d="M341 717v-77l-12 -6c-18 17 -41 28 -66 28c-62 0 -73 -29 -73 -143v-85l131 4l-7 -53h-124v-283c0 -27 1 -47 5 -58c4 -9 15 -13 32 -14l46 -3v-30c-36 1 -76 3 -125 3s-89 -2 -125 -3v30l46 3c17 1 28 5 32 14c4 11 5 31 5 58v283l-69 -4v22l69 31v42
c0 66 13 111 42 144l58 66c26 30 62 42 90 42c15 0 31 -5 45 -11z" />
    <glyph glyph-name="g" unicode="g" horiz-adv-x="556" 
d="M519 378h-92c8 -18 11 -37 11 -56c0 -54 -27 -97 -67 -124c-44 -31 -94 -48 -140 -48c-7 0 -14 1 -21 2c-14 -14 -46 -34 -46 -56c0 -38 46 -40 76 -40h160c90 0 118 -74 118 -124c0 -106 -102 -215 -271 -215c-121 0 -215 61 -215 150c0 29 7 61 28 80l87 47
c-44 12 -66 30 -66 59c0 15 6 30 15 42l77 59v2c-32 1 -118 30 -118 134c0 64 31 107 76 136c46 30 107 43 145 43c44 0 90 -13 122 -42l142 4l4 -12zM354 290c0 73 -32 145 -115 145c-67 0 -100 -52 -100 -118c0 -88 49 -133 113 -133c59 0 102 45 102 106zM254 -252
c110 0 185 68 185 148c0 59 -28 90 -141 90c-26 0 -61 0 -106 -4c-28 -3 -84 -42 -84 -105c0 -86 66 -129 146 -129z" />
    <glyph glyph-name="h" unicode="h" horiz-adv-x="582" 
d="M88 102v518c0 23 -3 41 -25 41h-56v28c53 8 106 17 156 37l9 -8v-338h2l74 64c22 19 41 25 81 25c117 0 165 -65 165 -174v-193c0 -27 1 -47 5 -58c4 -9 15 -13 32 -14l41 -3v-30c-25 1 -54 3 -82 3s-57 -2 -80 -3v284c0 83 -47 127 -115 127c-61 0 -123 -53 -123 -94
v-212c0 -27 1 -47 5 -58c4 -9 15 -13 32 -14l45 -3v-30c-35 1 -75 3 -124 3s-89 -2 -124 -3v30l45 3c17 1 28 5 32 14c4 11 5 31 5 58z" />
    <glyph glyph-name="i" unicode="i" horiz-adv-x="291" 
d="M188 465v-363c0 -27 1 -47 5 -58c4 -9 15 -13 32 -14l46 -3v-30c-36 1 -76 3 -125 3s-89 -2 -125 -3v30l46 3c17 1 28 5 32 14c4 11 5 31 5 58v225c0 32 -2 54 -7 62c-6 8 -16 11 -37 11h-37v28c59 6 119 25 156 41zM141 687c29 0 56 -27 56 -56s-27 -55 -56 -55
s-55 26 -55 55s26 56 55 56z" />
    <glyph glyph-name="j" unicode="j" horiz-adv-x="234" 
d="M159 465v-484c0 -81 -20 -147 -53 -189c-32 -40 -73 -75 -134 -75l-12 38c10 -2 20 -3 34 -3c16 0 40 14 55 43c15 28 26 98 26 198v334c0 32 -2 54 -7 62c-6 8 -16 11 -37 11h-37v28c59 6 119 25 156 41zM112 577c-29 0 -56 27 -56 56s27 55 56 55s55 -26 55 -55
s-26 -56 -55 -56z" />
    <glyph glyph-name="k" unicode="k" horiz-adv-x="556" 
d="M104 102v518c0 23 -3 41 -25 41h-56v28c53 8 106 17 156 37l9 -8v-457l73 59c53 43 109 98 150 139h100v-30h-5c-39 0 -73 -24 -103 -47l-129 -101c20 -24 42 -46 64 -68l126 -125c21 -21 55 -48 85 -48v-23l-96 -29l-265 252v-138c0 -27 1 -47 5 -58c4 -9 15 -13 32 -14
l44 -3v-30c-34 1 -74 3 -123 3s-89 -2 -125 -3v30l46 3c17 1 28 5 32 14c4 11 5 31 5 58z" />
    <glyph glyph-name="l" unicode="l" horiz-adv-x="291" 
d="M104 102v518c0 23 -3 41 -25 41h-56v28c53 8 106 17 156 37l9 -8v-616c0 -27 1 -47 5 -58c4 -9 15 -13 32 -14l46 -3v-30c-36 1 -76 3 -125 3s-89 -2 -125 -3v30l46 3c17 1 28 5 32 14c4 11 5 31 5 58z" />
    <glyph glyph-name="m" unicode="m" horiz-adv-x="883" 
d="M99 102v225c0 32 -2 54 -7 62c-6 8 -16 11 -37 11h-37v28c59 6 119 25 156 41l9 -4v-85l69 64c21 19 48 25 88 25c58 0 109 -27 137 -93l76 68c22 19 48 25 88 25c79 0 144 -57 144 -161v-206c0 -27 1 -47 5 -58c4 -9 15 -13 32 -14l47 -3v-30c-31 1 -60 3 -88 3
s-57 -2 -80 -3v284c0 67 -29 127 -94 127c-61 0 -123 -53 -123 -94v-212c0 -27 1 -47 5 -58c4 -9 15 -13 32 -14l46 -3v-30c-36 1 -76 3 -125 3s-89 -2 -125 -3v30l46 3c17 1 28 5 32 14c4 11 5 31 5 58v179c0 67 -29 127 -94 127c-61 0 -123 -53 -123 -94v-212
c0 -27 1 -47 5 -58c4 -9 15 -13 32 -14l42 -3v-30c-32 1 -72 3 -121 3s-89 -2 -125 -3v30l46 3c17 1 28 5 32 14c4 11 5 31 5 58z" />
    <glyph glyph-name="n" unicode="n" horiz-adv-x="582" 
d="M172 314v-212c0 -27 1 -47 5 -58c4 -9 15 -13 32 -14l45 -3v-30c-35 1 -75 3 -124 3s-89 -2 -124 -3v30l45 3c17 1 28 5 32 14c4 11 5 31 5 58v225c0 32 -2 54 -7 62c-6 8 -16 11 -37 11h-37v28c59 6 119 25 156 41l9 -4v-85h2l74 64c22 19 41 25 81 25
c117 0 165 -65 165 -174v-193c0 -27 1 -47 5 -58c4 -9 15 -13 32 -14l41 -3v-30c-25 1 -54 3 -82 3s-57 -2 -80 -3v284c0 83 -47 127 -115 127c-61 0 -123 -53 -123 -94z" />
    <glyph glyph-name="o" unicode="o" horiz-adv-x="546" 
d="M252 -20h-7c-123 0 -213 99 -213 234c0 150 94 255 255 255c128 0 227 -100 227 -228c0 -153 -109 -261 -262 -261zM264 436c-106 0 -139 -86 -139 -179c0 -105 38 -244 166 -244c91 0 130 91 130 184c0 129 -61 239 -157 239z" />
    <glyph glyph-name="p" unicode="p" horiz-adv-x="601" 
d="M91 -176v503c0 32 -2 54 -7 62c-6 8 -16 11 -37 11h-37v28c59 6 119 25 156 41l9 -4v-94h2l80 73c17 15 51 25 94 25c106 0 203 -81 203 -204c0 -66 -54 -166 -87 -187l-114 -74c-17 -11 -43 -16 -69 -16c-31 0 -77 4 -109 25v-189c0 -27 1 -47 5 -58c4 -9 15 -13 32 -14
l46 -3v-30c-36 1 -76 3 -125 3s-89 -2 -125 -3v30l46 3c17 1 28 5 32 14c4 11 5 31 5 58zM175 301v-203c38 -44 85 -59 142 -59c81 0 150 83 150 196c0 94 -51 169 -156 169c-74 0 -114 -45 -131 -76c-5 -9 -5 -18 -5 -27z" />
    <glyph glyph-name="q" unicode="q" horiz-adv-x="560" 
d="M393 -176v242l-104 -66c-13 -9 -32 -12 -49 -12h-7c-150 8 -198 115 -198 214c0 101 42 161 97 196l84 54c16 9 46 17 75 17c49 0 97 -12 141 -33l49 31l19 -11c-19 -38 -23 -97 -23 -138v-494c0 -27 1 -47 5 -58c4 -9 15 -13 32 -14l46 -3v-30c-36 1 -76 3 -125 3
s-89 -2 -137 -3v30l58 3c17 1 28 5 32 14c4 11 5 31 5 58zM393 120v261c-35 33 -83 41 -127 41c-64 0 -144 -44 -144 -169c0 -100 38 -208 155 -208c53 0 116 51 116 75z" />
    <glyph glyph-name="r" unicode="r" horiz-adv-x="395" 
d="M104 102v225c0 32 -2 54 -7 62c-6 8 -16 11 -37 11h-37v28c59 6 119 25 156 41l9 -4v-101h2l54 64c24 29 58 41 84 41c17 0 38 -5 46 -11l-9 -120h-21c-11 24 -32 46 -68 46c-44 0 -88 -46 -88 -110v-172c0 -27 1 -47 5 -58c4 -9 19 -13 42 -14l52 -3v-30
c-52 1 -92 3 -141 3s-89 -2 -125 -3v30l46 3c17 1 28 5 32 14c4 11 5 31 5 58z" />
    <glyph glyph-name="s" unicode="s" horiz-adv-x="424" 
d="M41 143h30v-41c0 -62 71 -85 129 -85c63 0 117 37 117 91c0 32 -17 58 -48 66c-44 11 -99 22 -147 40s-85 48 -85 109c0 108 94 146 188 146c47 0 90 -11 129 -25c-3 -36 -4 -73 -5 -113h-28v23c0 52 -59 82 -116 82c-85 0 -98 -47 -98 -81c0 -43 33 -66 109 -79
c119 -20 175 -50 175 -128c0 -110 -110 -168 -221 -168c-48 0 -91 7 -140 24c10 44 11 92 11 139z" />
    <glyph glyph-name="t" unicode="t" horiz-adv-x="326" 
d="M98 382l-76 -4v21l78 35v70c0 26 -1 52 -4 79c36 11 68 27 85 38l12 -11c-6 -44 -11 -100 -11 -142v-38l137 6l-9 -54h-128v-262c0 -46 13 -69 55 -69c26 0 45 11 59 19l13 -17l-48 -53c-9 -10 -44 -12 -65 -12c-53 0 -98 25 -98 106v288z" />
    <glyph glyph-name="u" unicode="u" horiz-adv-x="603" 
d="M503 465v-363c0 -27 1 -47 5 -58c4 -9 15 -13 32 -14l41 -3v-30c-25 1 -54 3 -82 3c-29 0 -58 -2 -84 -3c2 28 4 55 4 92l-67 -62c-28 -25 -64 -39 -112 -39c-141 0 -141 90 -141 171v168c0 32 -2 54 -7 62c-6 8 -16 11 -37 11h-37v28c59 6 119 25 156 41l9 -4v-295
c0 -79 17 -121 109 -121c65 0 127 67 127 115v163c0 32 -2 54 -7 62c-6 8 -16 11 -37 11h-37v28c59 6 119 25 156 41z" />
    <glyph glyph-name="v" unicode="v" horiz-adv-x="565" 
d="M452 362l-118 -260c-17 -37 -27 -75 -41 -109h-50l-172 403c-6 14 -12 32 -31 33l-34 2v28c39 -1 78 -3 117 -3s77 2 116 3v-28l-49 -2c-16 -1 -25 -6 -25 -21c0 -9 3 -21 9 -36l119 -288c21 46 43 93 62 140l42 106c13 32 19 56 19 72c0 18 -8 26 -24 27l-41 2v28
c31 -1 63 -3 94 -3s63 2 94 3v-28l-31 -2c-25 -2 -42 -37 -56 -67z" />
    <glyph glyph-name="w" unicode="w" horiz-adv-x="834" 
d="M290 185l123 284h23c9 -29 19 -55 29 -81l115 -290c16 41 33 82 48 124l50 140c5 13 7 24 7 33c0 22 -13 33 -39 34l-34 2v28c33 -1 65 -3 98 -3s65 2 98 3v-28l-26 -2c-23 -2 -39 -29 -64 -87l-68 -156c-27 -62 -46 -129 -69 -193h-46l-136 342
c-17 -37 -36 -75 -52 -112l-98 -230h-47l-102 336c-26 84 -41 98 -66 100l-28 2v28c40 -1 79 -3 119 -3s79 2 119 3v-28l-40 -2c-26 -2 -38 -8 -38 -27c0 -6 1 -13 4 -22l84 -276c13 27 24 54 36 81z" />
    <glyph glyph-name="x" unicode="x" horiz-adv-x="516" 
d="M288 254l148 -200c8 -11 20 -22 35 -24l25 -3v-30c-20 1 -41 3 -61 3c-21 0 -42 -2 -62 -3c-10 8 -18 21 -26 33l-107 162l-74 -98c-22 -29 -40 -63 -60 -94h-86v27h17c10 0 22 6 30 15l149 176l-120 174c-10 14 -30 27 -50 29l-21 2l-5 26l116 20c22 -22 44 -44 60 -69
l76 -116l124 175h82v-28h-14c-14 0 -26 -2 -34 -11z" />
    <glyph glyph-name="y" unicode="y" horiz-adv-x="556" 
d="M297 86l119 292c4 10 6 17 6 24c0 18 -15 25 -42 27l-26 2v28c32 -1 63 -3 95 -3s63 2 95 3v-28l-28 -2c-24 -2 -46 -33 -84 -121l-203 -468c-32 -73 -68 -123 -152 -123c-17 0 -39 8 -50 15l24 75h13c12 -12 35 -23 49 -23h2c58 4 90 85 109 131l23 61l-165 404
c-16 38 -30 47 -52 49l-18 2v28c39 -1 77 -3 116 -3s77 2 116 3v-28l-38 -2c-19 -1 -33 -6 -33 -26c0 -10 2 -22 9 -39z" />
    <glyph glyph-name="z" unicode="z" 
d="M455 432l-314 -397h135c72 0 137 3 142 25l18 79h30c-5 -47 -15 -95 -15 -142c-103 1 -207 3 -310 3c-40 0 -79 -2 -119 -3l-6 20c31 35 61 69 90 105l170 212c23 29 46 60 65 90h-143c-72 0 -92 -4 -96 -26l-12 -68h-30c0 20 9 86 9 132c85 -1 187 -3 280 -3
c35 0 71 2 106 3v-30z" />
    <glyph glyph-name="braceleft" unicode="{" horiz-adv-x="333" 
d="M206 128v-173c0 -72 20 -116 83 -130c-113 0 -155 26 -155 158v168c0 72 -10 103 -76 122c62 19 76 54 76 119v186c0 125 55 148 155 148c-65 -19 -83 -59 -83 -131v-186c0 -74 -12 -117 -81 -135v-2c72 -19 81 -65 81 -144z" />
    <glyph glyph-name="bar" unicode="|" horiz-adv-x="606" 
d="M275 750h56v-1000h-56v1000z" />
    <glyph glyph-name="braceright" unicode="}" horiz-adv-x="333" 
d="M127 -45v173c0 79 9 125 81 144v2c-69 18 -81 61 -81 135v186c0 72 -18 112 -83 131c100 0 155 -23 155 -148v-186c0 -65 14 -100 76 -119c-66 -19 -76 -50 -76 -122v-168c0 -132 -42 -158 -155 -158c63 14 83 58 83 130z" />
    <glyph glyph-name="asciitilde" unicode="~" horiz-adv-x="606" 
d="M520 347l35 -40c-28 -53 -76 -109 -141 -109c-36 0 -101 30 -135 44c-27 11 -57 26 -87 26c-54 0 -82 -51 -106 -92l-35 40c31 55 71 116 142 116c35 0 77 -18 117 -35s79 -36 105 -36c46 0 86 48 105 86z" />
    <glyph glyph-name="exclamdown" unicode="&#xa1;" horiz-adv-x="278" 
d="M115 -225h-34v25c0 48 8 95 12 143l24 278v25l28 23l10 -5c0 -14 0 -27 2 -40l26 -305c3 -35 5 -71 7 -106zM138 353c-31 0 -57 28 -57 58s27 58 57 58c31 0 59 -28 59 -58s-27 -58 -59 -58z" />
    <glyph glyph-name="cent" unicode="&#xa2;" 
d="M347 411l-106 -353c29 -17 61 -22 84 -22c41 0 77 12 114 28l9 -11l-20 -33c-40 -21 -92 -34 -138 -34c-23 0 -46 1 -69 5l-28 -92h-41l32 104c-84 39 -123 121 -123 210c0 96 26 165 102 203l80 40c27 13 63 14 82 14l27 92h40l-27 -92c26 0 58 -12 80 -26
c-7 -41 -11 -78 -11 -117v-13h-28l-9 66c-13 15 -31 24 -50 31zM208 84l101 335c-13 3 -26 5 -38 5c-71 0 -121 -54 -121 -171c0 -63 15 -131 58 -169z" />
    <glyph glyph-name="sterling" unicode="&#xa3;" 
d="M374 360l-4 -48c-60 2 -120 4 -181 5c-3 -91 -42 -175 -94 -248c34 5 68 7 103 7c69 0 137 -4 206 -7h3c23 0 27 14 30 37l7 52h26v-148c-14 -12 -27 -20 -40 -20c-68 0 -132 5 -189 19c-55 13 -112 20 -162 23l-45 -45h-22v49c14 14 32 24 48 32c14 7 48 82 48 218v30
c-32 0 -64 -2 -96 -3l8 45c30 0 58 -2 88 -3v106c0 30 9 55 18 77c18 44 57 79 132 123c36 21 77 33 119 33c35 0 71 -6 101 -26c-6 -29 -10 -68 -10 -105c0 -11 0 -21 1 -31h-33c0 66 -10 98 -62 111c-16 4 -27 4 -44 4c-113 0 -138 -116 -138 -204v-89c60 2 122 4 182 6z
" />
    <glyph glyph-name="fraction" unicode="&#x2044;" horiz-adv-x="167" 
d="M-114 0h-52l451 689h52z" />
    <glyph glyph-name="yen" unicode="&#xa5;" 
d="M334 382h122v-39h-139c-8 -18 -17 -41 -17 -65v-32h156v-39h-156v-87c0 -38 2 -64 8 -75c5 -10 15 -14 36 -15l41 -3v-30c-45 2 -85 3 -125 3c-43 0 -84 -1 -118 -3v30l41 3c21 1 31 5 36 15c6 11 8 37 8 75v87h-156v39h156v16c0 8 -1 22 -6 31l-21 50h-129v39h111
l-75 160c-19 42 -46 109 -94 109c-3 0 -5 -1 -8 -1v29l92 21c3 1 7 1 10 1c20 0 35 -16 43 -34c7 -12 16 -41 25 -65l104 -261l70 163c28 64 53 126 77 190h70v-15c-44 -61 -93 -150 -130 -229z" />
    <glyph glyph-name="florin" unicode="&#x192;" 
d="M311 364l-72 -348c-25 -123 -87 -278 -239 -278c6 26 12 58 15 89l11 7c11 -12 27 -20 45 -20c36 0 52 22 74 134l80 416c-36 -2 -72 -4 -108 -5c2 17 7 33 10 53c36 -2 72 -2 107 -4c15 68 37 141 75 198s91 98 164 100c-8 -28 -12 -60 -14 -92l-10 -8
c-10 6 -21 24 -48 24c-37 0 -46 -27 -54 -72l-27 -150c35 2 71 2 105 4c-4 -19 -7 -41 -9 -54c-29 3 -66 5 -105 6z" />
    <glyph glyph-name="section" unicode="&#xa7;" 
d="M403 521h-31l-5 87c-37 34 -74 49 -123 49c-73 0 -135 -44 -135 -123c0 -73 89 -95 178 -124c89 -28 178 -62 178 -157c0 -59 -34 -107 -78 -142c44 -21 60 -60 60 -107c0 -107 -119 -223 -243 -223c-56 0 -118 18 -160 44c6 55 10 105 12 157h32l5 -90
c37 -43 77 -59 145 -59c75 0 146 39 146 121s-89 107 -179 136c-89 29 -179 59 -179 155c0 53 37 107 83 137c-34 23 -58 62 -58 103c0 116 103 224 227 224c46 0 93 -8 138 -36c-6 -40 -12 -99 -13 -152zM135 369c-29 -25 -43 -51 -43 -90c0 -45 51 -77 110 -100
c59 -22 127 -39 163 -56c20 30 34 60 34 89c0 53 -40 80 -93 101s-119 34 -171 56z" />
    <glyph glyph-name="currency" unicode="&#xa4;" 
d="M77 531l48 -48c29 25 78 41 125 41s96 -16 125 -41l48 48l47 -47l-49 -49c29 -29 42 -76 42 -123s-14 -90 -42 -122l49 -49l-45 -45l-48 48c-31 -28 -77 -42 -127 -42s-96 14 -127 42l-48 -48l-45 45l49 49c-28 32 -42 75 -42 122s13 94 42 123l-49 49zM250 465
c-84 0 -154 -68 -154 -153c0 -83 70 -151 154 -151s154 68 154 151c0 85 -70 153 -154 153z" />
    <glyph glyph-name="quotesingle" unicode="'" horiz-adv-x="208" 
d="M114 469h-20l-33 196v5c0 19 21 39 43 39s43 -20 43 -39v-5z" />
    <glyph glyph-name="quotedblleft" unicode="&#x201c;" 
d="M180 685l44 24l15 -10c-44 -68 -73 -145 -78 -223c-33 -8 -65 -20 -97 -30l-13 13c31 81 75 158 129 226zM390 685l44 24l15 -10c-44 -68 -73 -145 -78 -223c-33 -8 -65 -20 -97 -30l-13 13c31 81 75 158 129 226z" />
    <glyph glyph-name="guillemotleft" unicode="&#xab;" 
d="M331 248l119 -162l-23 -15c-20 21 -43 42 -66 65l-110 106v12c33 32 66 63 99 96l77 78l23 -13c-11 -13 -21 -27 -30 -40zM130 248l119 -162l-23 -15c-20 21 -43 42 -66 65l-110 106v12c33 32 66 63 99 96l77 78l23 -13c-11 -13 -21 -27 -30 -40z" />
    <glyph glyph-name="guilsinglleft" unicode="&#x2039;" horiz-adv-x="331" 
d="M146 248l119 -162l-23 -15c-20 21 -43 42 -66 65l-110 106v12c33 32 66 63 99 96l77 78l23 -13c-11 -13 -21 -27 -30 -40z" />
    <glyph glyph-name="guilsinglright" unicode="&#x203a;" horiz-adv-x="331" 
d="M66 86l119 162l-89 127c-9 13 -19 27 -30 40l23 13l77 -78c33 -33 66 -64 99 -96v-12l-110 -106c-23 -23 -46 -44 -66 -65z" />
    <glyph glyph-name="endash" unicode="&#x2013;" 
d="M500 219h-500v58h500v-58z" />
    <glyph glyph-name="dagger" unicode="&#x2020;" 
d="M154 460h59v52c0 52 -6 103 -11 155l-2 22l5 5c16 -1 31 -3 45 -3s29 2 45 3l5 -5l-2 -22c-5 -52 -11 -103 -11 -155v-52h59c32 0 64 4 96 6l19 1l5 -5c-2 -11 -3 -22 -3 -34c0 -11 1 -22 3 -33l-5 -5l-19 1c-32 2 -64 6 -96 6h-59v-78c0 -98 0 -196 7 -293l2 -26l-5 -5
c-14 2 -29 4 -41 4s-27 -2 -41 -4l-5 5l2 26c7 97 7 195 7 293v78h-59c-32 0 -64 -4 -96 -6l-19 -1l-5 5c2 11 3 22 3 33c0 12 -1 23 -3 34l5 5l19 -1c32 -2 64 -6 96 -6z" />
    <glyph glyph-name="daggerdbl" unicode="&#x2021;" 
d="M138 483h75v47c0 46 -6 93 -11 140l-2 19l5 5c16 -1 31 -3 45 -3s29 2 45 3l5 -5l-2 -19c-5 -47 -11 -94 -11 -140v-47h75c33 0 66 5 99 7l5 -5c-2 -10 -3 -21 -3 -32c0 -12 1 -23 3 -35l-5 -5c-33 2 -66 7 -99 7h-75c0 -66 3 -131 8 -197c-5 -66 -8 -132 -8 -198h75
c33 0 66 5 99 7l5 -5c-2 -10 -3 -21 -3 -32c0 -12 1 -23 3 -35l-5 -5c-33 2 -66 7 -99 7h-75v-47c0 -46 6 -93 11 -140l2 -19l-5 -5c-16 1 -31 3 -45 3s-29 -2 -45 -3l-5 5l2 19c5 47 11 94 11 140v47h-75c-33 0 -66 -5 -99 -7l-5 5c2 12 3 23 3 35c0 11 -1 22 -3 32l5 5
c33 -2 66 -7 99 -7h75c0 66 -3 132 -8 198c5 66 8 131 8 197h-75c-33 0 -66 -5 -99 -7l-5 5c2 12 3 23 3 35c0 11 -1 22 -3 32l5 5c33 -2 66 -7 99 -7z" />
    <glyph glyph-name="periodcentered" unicode="&#xb7;" horiz-adv-x="250" 
d="M124 203c-31 0 -57 28 -57 58s27 58 57 58c31 0 59 -28 59 -58s-27 -58 -59 -58z" />
    <glyph glyph-name="paragraph" unicode="&#xb6;" horiz-adv-x="628" 
d="M280 382v273c-4 1 -9 1 -14 1c-49 0 -116 -35 -116 -134c0 -74 60 -128 130 -140zM589 694v-30l-32 -3c-48 -5 -63 -15 -63 -87v-601c0 -35 3 -63 10 -73s18 -15 43 -17l42 -3v-30c-48 1 -115 3 -202 3c-90 0 -157 -2 -202 -3v30l42 3c25 2 36 7 43 17s10 38 10 73v372
c-97 0 -241 67 -241 197c0 80 59 152 184 152h18c58 -3 116 -5 175 -5s117 2 173 5zM421 655h-68v-775h68v775z" />
    <glyph glyph-name="bullet" unicode="&#x2022;" horiz-adv-x="606" 
d="M131 344c0 94 78 172 172 172s172 -78 172 -172s-78 -172 -172 -172s-172 78 -172 172z" />
    <glyph glyph-name="quotesinglbase" unicode="&#x201a;" horiz-adv-x="278" 
d="M197 110l13 -13c-31 -81 -75 -158 -129 -226l-44 -24l-15 10c44 68 73 145 78 223c33 8 65 20 97 30z" />
    <glyph glyph-name="quotedblbase" unicode="&#x201e;" 
d="M226 110l13 -13c-31 -81 -75 -158 -129 -226l-44 -24l-15 10c44 68 73 145 78 223c33 8 65 20 97 30zM436 110l13 -13c-31 -81 -75 -158 -129 -226l-44 -24l-15 10c44 68 73 145 78 223c33 8 65 20 97 30z" />
    <glyph glyph-name="quotedblright" unicode="&#x201d;" 
d="M110 470l-44 -24l-15 10c44 68 73 145 78 223c33 8 65 20 97 30l13 -13c-31 -81 -75 -158 -129 -226zM320 470l-44 -24l-15 10c44 68 73 145 78 223c33 8 65 20 97 30l13 -13c-31 -81 -75 -158 -129 -226z" />
    <glyph glyph-name="guillemotright" unicode="&#xbb;" 
d="M251 86l119 162l-89 127c-9 13 -19 27 -30 40l23 13l77 -78c33 -33 66 -64 99 -96v-12l-110 -106c-23 -23 -46 -44 -66 -65zM50 86l119 162l-89 127c-9 13 -19 27 -30 40l23 13l77 -78c33 -33 66 -64 99 -96v-12l-110 -106c-23 -23 -46 -44 -66 -65z" />
    <glyph glyph-name="ellipsis" unicode="&#x2026;" horiz-adv-x="1000" 
d="M499 -5c-31 0 -57 28 -57 58s27 58 57 58c31 0 59 -28 59 -58s-27 -58 -59 -58zM166 -5c-31 0 -57 28 -57 58s27 58 57 58c31 0 59 -28 59 -58s-27 -58 -59 -58zM832 -5c-31 0 -57 28 -57 58s27 58 57 58c31 0 59 -28 59 -58s-27 -58 -59 -58z" />
    <glyph glyph-name="perthousand" unicode="&#x2030;" horiz-adv-x="1144" 
d="M265 689c76 0 135 -63 135 -146c0 -91 -58 -163 -144 -163c-76 0 -133 61 -133 148c0 90 57 161 142 161zM263 666c-62 0 -76 -80 -76 -133c0 -52 9 -130 71 -130c61 0 78 79 78 131c0 53 -11 132 -73 132zM563 309c76 0 135 -63 135 -146c0 -91 -58 -163 -144 -163
c-76 0 -133 61 -133 148c0 90 57 161 142 161zM561 286c-62 0 -76 -80 -76 -133c0 -52 9 -130 71 -130c61 0 78 79 78 131c0 53 -11 132 -73 132zM886 309c76 0 135 -63 135 -146c0 -91 -58 -163 -144 -163c-76 0 -133 61 -133 148c0 90 57 161 142 161zM884 286
c-62 0 -76 -80 -76 -133c0 -52 9 -130 71 -130c61 0 78 79 78 131c0 53 -11 132 -73 132zM238 -20h-40l391 729h40z" />
    <glyph glyph-name="questiondown" unicode="&#xbf;" horiz-adv-x="444" 
d="M395 -83l-38 -113c-37 -19 -82 -35 -125 -35c-98 0 -189 53 -189 156c0 67 51 118 102 164s102 86 102 130c0 22 -12 37 -22 49l21 14c26 -15 44 -43 44 -73c0 -45 -39 -86 -77 -128c-39 -43 -77 -86 -77 -136c0 -62 50 -110 119 -110c43 0 78 11 91 42l20 48zM241 353
c-31 0 -57 28 -57 58s27 58 57 58c31 0 59 -28 59 -58s-27 -58 -59 -58z" />
    <glyph glyph-name="grave" unicode="`" horiz-adv-x="333" 
d="M215 506l-144 90c-17 10 -40 23 -40 46c0 20 12 35 33 35c16 0 38 -18 53 -33l138 -138h-40z" />
    <glyph glyph-name="acute" unicode="&#xb4;" horiz-adv-x="333" 
d="M78 506l138 138c15 15 37 33 53 33c21 0 33 -15 33 -35c0 -23 -23 -36 -40 -46l-144 -90h-40z" />
    <glyph glyph-name="circumflex" unicode="&#x2c6;" horiz-adv-x="333" 
d="M136 677h62l125 -167h-35l-121 103l-121 -103h-35z" />
    <glyph glyph-name="tilde" unicode="&#x2dc;" horiz-adv-x="333" 
d="M303 640h29c0 -15 -8 -41 -26 -64c-17 -22 -43 -41 -80 -41c-41 0 -57 14 -93 30c-13 6 -33 15 -49 15c-27 0 -44 -21 -53 -45h-29c10 58 48 100 109 100c27 0 53 -14 76 -25c16 -7 38 -20 56 -20h4c34 4 44 20 56 50z" />
    <glyph glyph-name="macron" unicode="&#xaf;" horiz-adv-x="333" 
d="M323 538h-312v53h312v-53z" />
    <glyph glyph-name="breve" unicode="&#x2d8;" horiz-adv-x="333" 
d="M26 664h30c0 -61 59 -98 111 -98s111 37 111 98h30c0 -85 -49 -158 -141 -158s-141 73 -141 158z" />
    <glyph glyph-name="dotaccent" unicode="&#x2d9;" horiz-adv-x="250" 
d="M125 687c29 0 56 -27 56 -56s-27 -55 -56 -55s-55 26 -55 55s26 56 55 56z" />
    <glyph glyph-name="dieresis" unicode="&#xa8;" horiz-adv-x="333" 
d="M67 687c29 0 56 -27 56 -56s-27 -55 -56 -55s-55 26 -55 55s26 56 55 56zM266 687c29 0 56 -27 56 -56s-27 -55 -56 -55s-55 26 -55 55s26 56 55 56z" />
    <glyph glyph-name="ring" unicode="&#x2da;" horiz-adv-x="333" 
d="M167 660c-37 0 -62 -25 -62 -64s25 -64 62 -64s62 25 62 64s-25 64 -62 64zM167 696c54 0 100 -44 100 -98v-4c0 -54 -46 -98 -100 -98s-100 44 -100 98v4c0 54 46 98 100 98z" />
    <glyph glyph-name="cedilla" unicode="&#xb8;" horiz-adv-x="333" 
d="M141 -108l39 97l37 1l-25 -65c9 3 19 4 29 4c44 0 83 -23 83 -70c0 -65 -69 -84 -122 -84c-36 0 -50 5 -86 16l14 31c18 -5 42 -11 61 -11c34 0 58 8 58 46c0 23 -21 36 -40 36c-15 0 -27 -3 -41 -7z" />
    <glyph glyph-name="hungarumlaut" unicode="&#x2dd;" horiz-adv-x="380" 
d="M3 506l128 148c14 16 37 33 53 33c21 0 33 -15 33 -35s-23 -36 -39 -48l-135 -98h-40zM163 506l128 148c14 16 37 33 53 33c21 0 33 -15 33 -35s-23 -36 -39 -48l-135 -98h-40z" />
    <glyph glyph-name="ogonek" unicode="&#x2db;" horiz-adv-x="313" 
d="M269 -116l19 -30c-39 -42 -82 -79 -133 -79c-73 0 -105 39 -105 92c0 44 44 95 89 113h43c-21 -20 -57 -55 -57 -89c0 -32 7 -58 58 -58c30 0 65 26 86 51z" />
    <glyph glyph-name="caron" unicode="&#x2c7;" horiz-adv-x="333" 
d="M167 574l122 103h34l-125 -167h-62l-125 167h35z" />
    <glyph glyph-name="emdash" unicode="&#x2014;" horiz-adv-x="1000" 
d="M1000 219h-1000v58h1000v-58z" />
    <glyph glyph-name="AE" unicode="&#xc6;" horiz-adv-x="944" 
d="M450 655l-208 -372h220v372h-12zM76 87l289 512c8 15 19 34 19 49c0 6 -26 9 -54 11l-44 3v30c68 0 117 -1 155 -2c37 0 64 -1 86 -1c87 0 179 3 236 3c45 0 90 -1 129 -3c-11 -44 -16 -101 -16 -152h-35v65c0 13 -1 24 -9 27c-53 20 -132 21 -196 21
c-27 0 -56 -1 -84 -8v-267c32 -2 68 -3 116 -3c61 0 95 4 106 11c5 4 7 13 8 26l5 52h30c-1 -41 -3 -79 -3 -116s2 -75 3 -111h-30l-5 59c-1 13 -3 22 -8 25c-11 8 -45 12 -106 12c-48 0 -85 0 -116 -3v-280c28 -7 57 -8 84 -8c82 0 184 3 202 13c15 8 28 52 35 112h35
c-10 -48 -16 -110 -16 -164c-38 -1 -102 -3 -166 -3h-31c-38 1 -77 1 -115 2c-37 1 -72 1 -103 1c-23 0 -46 -2 -69 -3v23l28 16c22 13 26 38 26 84v122c-41 1 -81 3 -122 3s-81 -2 -122 -3l-64 -114c-18 -32 -28 -48 -28 -70c0 -16 24 -26 53 -28l36 -3v-30
c-25 1 -62 3 -100 3c-39 0 -76 -2 -125 -3v30l34 5c19 3 40 34 52 55z" />
    <glyph glyph-name="ordfeminine" unicode="&#xaa;" horiz-adv-x="333" 
d="M150 590l64 10v3c0 45 -26 74 -82 74c-28 0 -37 -2 -45 -12c-4 -5 -7 -12 -11 -20l-9 -19l-17 4v39l35 20c28 16 54 20 75 20c72 0 108 -33 108 -95c0 -7 -1 -15 -2 -24v-102c0 -13 0 -29 3 -35s10 -8 21 -9l20 -1v-17c-17 0 -33 2 -49 2c-17 0 -33 -2 -50 -2l3 51
l-81 -52c-5 -3 -18 -3 -30 -3c-44 0 -79 22 -79 71c0 69 66 86 126 97zM214 502v79c-33 -4 -62 -9 -95 -21c-23 -8 -39 -34 -39 -56c0 -31 25 -48 51 -48c20 0 40 12 62 26c11 7 18 16 21 20z" />
    <glyph glyph-name="Lslash" unicode="&#x141;" horiz-adv-x="611" 
d="M121 330v239c0 38 -2 64 -9 75c-6 10 -18 14 -42 15l-48 3v30c52 -2 99 -3 148 -3c46 0 93 1 145 3v-30l-48 -3c-24 -1 -36 -5 -42 -15c-7 -11 -9 -37 -9 -75v-181l138 84l16 -32l-154 -94v-299c28 -7 57 -8 84 -8c82 0 204 3 221 19c10 9 16 43 21 64l12 50h32
c-6 -55 -13 -122 -21 -172c-38 -1 -102 -3 -166 -3h-31c-90 1 -156 3 -218 3c-34 0 -59 -2 -85 -3v23l31 16c17 9 25 32 25 59v193l-99 -60l-16 32z" />
    <glyph glyph-name="Oslash" unicode="&#xd8;" horiz-adv-x="833" 
d="M154 67l-91 -85l-33 29l94 88c-53 62 -79 148 -79 249c0 204 144 361 376 361c104 0 193 -28 258 -83l86 83l32 -30l-88 -83c50 -57 78 -134 78 -229c0 -215 -168 -387 -387 -387c-86 0 -175 21 -246 87zM641 531l-422 -400c46 -66 116 -109 213 -109
c167 0 248 130 248 314c0 64 -8 136 -39 195zM196 167l420 403c-49 64 -132 97 -211 97c-174 0 -253 -122 -253 -286c0 -76 11 -152 44 -214z" />
    <glyph glyph-name="OE" unicode="&#x152;" horiz-adv-x="998" 
d="M22 341c0 220 155 368 372 368c40 0 80 -7 120 -11c24 -2 44 -9 67 -9c87 0 179 3 236 3c45 0 90 -1 129 -3c-11 -44 -16 -101 -16 -152h-35v65c0 13 -1 24 -9 27c-53 20 -132 21 -188 21c-27 0 -56 -1 -84 -8v-267c32 -2 68 -3 108 -3c61 0 95 4 106 11c5 4 7 13 8 26
l5 52h30c-1 -41 -3 -79 -3 -116s2 -75 3 -111h-30l-5 59c-1 13 -3 22 -8 25c-11 8 -45 12 -106 12c-40 0 -77 0 -108 -3v-280c28 -7 57 -8 84 -8c74 0 176 3 194 13c15 8 28 52 35 112h35c-10 -48 -16 -110 -16 -164c-38 -1 -102 -3 -166 -3h-31c-19 0 -37 1 -54 1
c-84 0 -150 -5 -207 -12c-32 -4 -67 -6 -100 -6c-208 0 -366 136 -366 361zM519 139v399c0 35 -1 58 -5 83c-31 32 -88 44 -130 44c-162 0 -262 -105 -262 -292c0 -189 92 -349 270 -349c35 0 105 17 122 32c4 25 5 48 5 83z" />
    <glyph glyph-name="ordmasculine" unicode="&#xba;" horiz-adv-x="333" 
d="M176 709c83 0 147 -60 147 -137c0 -92 -71 -156 -170 -156c-82 0 -143 57 -143 140c0 90 61 153 166 153zM161 689c-69 0 -91 -51 -91 -107c0 -63 25 -146 104 -146c58 0 89 54 89 110c0 77 -40 143 -102 143z" />
    <glyph glyph-name="ae" unicode="&#xe6;" horiz-adv-x="758" 
d="M69 399l98 53c13 7 31 17 73 17c59 0 110 -22 144 -71c47 40 94 71 158 71c109 0 190 -70 190 -183c0 -14 0 -28 -2 -42c-60 -10 -121 -14 -181 -14h-146c0 -117 58 -197 181 -197c48 0 85 21 126 47l14 -10l-20 -34c-7 -12 -92 -56 -162 -56c-86 0 -158 34 -198 109
l-123 -96c-12 -10 -39 -13 -59 -13c-66 0 -132 42 -132 121c0 91 41 113 109 133c24 7 71 19 129 25l56 6c-1 81 -27 151 -119 151c-21 0 -77 -12 -88 -31c-7 -12 -16 -32 -22 -54l-26 6v62zM324 117v116c-62 -7 -127 -13 -183 -44c-16 -15 -25 -45 -25 -66
c0 -49 28 -78 89 -78c45 0 85 29 119 72zM547 436c-90 0 -142 -57 -142 -166c43 -5 86 -6 128 -6c40 0 79 1 116 3v13c0 87 -49 156 -102 156z" />
    <glyph glyph-name="dotlessi" unicode="&#x131;" horiz-adv-x="287" 
d="M188 465v-363c0 -27 1 -47 5 -58c4 -9 15 -13 32 -14l46 -3v-30c-36 1 -76 3 -125 3s-89 -2 -125 -3v30l46 3c17 1 28 5 32 14c4 11 5 31 5 58v225c0 32 -2 54 -7 62c-6 8 -16 11 -37 11h-37v28c59 6 119 25 156 41z" />
    <glyph glyph-name="lslash" unicode="&#x142;" horiz-adv-x="291" 
d="M104 390v230c0 23 -3 41 -25 41h-56v28c53 8 106 17 156 37l9 -8v-277l103 63l15 -32l-118 -72v-298c0 -27 1 -47 5 -58c4 -9 15 -13 32 -14l46 -3v-30c-36 1 -76 3 -125 3s-89 -2 -125 -3v30l46 3c17 1 28 5 32 14c4 11 5 31 5 58v246l-102 -62l-16 32z" />
    <glyph glyph-name="oslash" unicode="&#xf8;" horiz-adv-x="556" 
d="M16 0l67 64c-31 43 -46 97 -46 150c0 148 99 255 255 255c57 0 109 -20 149 -55l62 60l27 -25l-63 -61c33 -41 52 -91 52 -147c0 -153 -109 -261 -262 -261c-57 0 -107 16 -151 57l-62 -60zM404 327l-238 -232c26 -47 67 -82 130 -82c86 0 130 89 130 184
c0 42 -8 90 -22 130zM150 130l238 232c-24 42 -70 74 -119 74c-106 0 -139 -86 -139 -179c0 -41 6 -86 20 -127z" />
    <glyph glyph-name="oe" unicode="&#x153;" horiz-adv-x="827" 
d="M617 230h-146c0 -117 58 -197 181 -197c48 0 85 21 126 47l14 -10l-20 -34c-7 -12 -92 -56 -162 -56c-74 0 -126 30 -175 87c-51 -58 -110 -87 -174 -87c-127 0 -229 92 -229 255c0 147 110 234 239 234c71 0 125 -24 174 -76c59 55 106 76 165 76
c109 0 190 -70 190 -183c0 -14 0 -28 -2 -42c-60 -10 -121 -14 -181 -14zM251 436c-87 0 -126 -68 -126 -169c0 -145 57 -254 152 -254c93 0 126 87 126 189c0 98 -29 234 -152 234zM615 436c-90 0 -142 -57 -142 -166c43 -5 86 -6 128 -6c40 0 79 1 116 3v13
c0 87 -49 156 -102 156z" />
    <glyph glyph-name="germandbls" unicode="&#xdf;" horiz-adv-x="556" 
d="M180 466v-359c0 -65 16 -80 46 -80h28l21 85h27v-46c25 -23 42 -32 76 -32c38 0 76 32 76 72c0 65 -46 92 -93 116c-46 24 -93 47 -93 103c0 20 4 42 19 58l39 43c28 30 76 35 103 35c5 26 11 53 11 80c0 81 -42 145 -130 145c-80 0 -130 -38 -130 -220zM96 102v283h-69
v14l69 35v66c0 56 28 91 46 118c20 30 46 52 72 70c33 23 91 43 125 43c99 0 157 -56 157 -153c0 -51 -20 -129 -44 -187c-27 16 -44 23 -75 23c-32 0 -49 -22 -49 -42c0 -48 76 -75 110 -95c42 -25 81 -57 81 -116c0 -25 -10 -78 -37 -99l-58 -44c-26 -19 -52 -27 -75 -27
c-31 0 -63 4 -97 20l-1 -14c-38 1 -75 3 -114 3s-76 -2 -114 -3v30l36 3c17 1 28 5 32 14c4 11 5 31 5 58z" />
    <glyph glyph-name="logicalnot" unicode="&#xac;" horiz-adv-x="606" 
d="M495 120v210h-444v56h500v-266h-56z" />
    <glyph glyph-name="mu" unicode="&#xb5;" horiz-adv-x="574" 
d="M562 25c-50 -8 -101 -21 -153 -40l-12 3l1 87l-61 -53c-31 -27 -58 -36 -98 -36c-54 0 -96 27 -108 67c1 -92 4 -177 4 -209s-14 -60 -48 -60s-36 21 -36 29v2c0 7 7 31 9 39c26 101 36 219 36 321v151c0 67 -5 74 -66 74h-11v28c52 7 108 20 154 42l10 -6l-3 -168v-122
c0 -88 33 -127 100 -127c64 0 118 54 118 118v171c0 55 -4 64 -64 64h-11v28c51 7 103 21 150 42l12 -6c-2 -96 -3 -164 -3 -202v-76c0 -66 1 -106 5 -119c4 -11 16 -16 37 -16c8 0 20 1 38 2v-28z" />
    <glyph glyph-name="trademark" unicode="&#x2122;" horiz-adv-x="979" 
d="M378 689v-96h-23c0 59 -19 72 -77 72h-41v-325c0 -11 1 -24 11 -29c12 -6 35 -6 52 -6v-20h-182v20c17 0 40 0 52 6c10 5 11 18 11 29v325h-41c-58 0 -77 -13 -77 -72h-23v96h338zM563 689l129 -308l132 308h112v-18h-21c-14 0 -27 -3 -27 -20v-300c0 -33 3 -46 40 -46
h11v-20h-158v20h11c37 0 40 13 40 46v298h-2l-150 -364h-8l-152 364h-1v-311c0 -26 12 -30 48 -33v-20h-121v20c36 3 48 7 48 33v296c0 34 -10 37 -26 37h-14v18h109z" />
    <glyph glyph-name="Eth" unicode="&#xd0;" horiz-adv-x="774" 
d="M113 95v251h-99v36h99v187c0 38 -2 64 -9 75c-6 10 -18 13 -42 15l-40 3v30c67 -1 131 -3 197 -3s130 2 174 3h13c198 0 345 -115 345 -305c0 -153 -89 -309 -215 -355c-39 -14 -89 -35 -183 -35h-13c-58 1 -102 3 -147 3s-89 -2 -136 -3v23l31 16c17 9 25 32 25 59z
M208 644v-262h184v-36h-184v-297c28 -7 80 -8 114 -8c50 0 108 3 155 25c118 55 167 158 167 293c0 248 -142 293 -322 293c-34 0 -86 -1 -114 -8z" />
    <glyph glyph-name="onehalf" unicode="&#xbd;" horiz-adv-x="750" 
d="M174 0h-52l451 689h52zM114 379v238c0 9 0 19 -5 19h-2l-81 -34h-7l-4 32c49 17 103 38 161 58l10 -3c-2 -28 -8 -115 -8 -204v-106c0 -68 6 -80 42 -80h33v-26c-57 1 -85 3 -112 3s-55 -2 -106 -3v26h36c36 0 43 12 43 80zM634 162l-115 -109h122c33 0 69 2 94 5
c-1 -12 -1 -23 -1 -33s0 -19 1 -28c-57 1 -105 3 -155 3c-49 0 -97 -2 -146 -3v20l108 104c87 84 100 121 100 161c0 49 -29 82 -83 82c-37 0 -60 -12 -73 -47l-13 -35h-24c5 34 8 62 12 89c28 30 68 42 110 42c95 0 139 -53 139 -112c0 -50 -26 -91 -76 -139z" />
    <glyph glyph-name="plusminus" unicode="&#xb1;" horiz-adv-x="606" 
d="M275 339v173h56v-173h224v-56h-224v-170h-56v170h-224v56h224zM555 0h-504v56h504v-56z" />
    <glyph glyph-name="Thorn" unicode="&#xde;" horiz-adv-x="604" 
d="M226 491v-371c0 -38 2 -64 9 -75c6 -10 18 -14 42 -15l48 -3v-30c-52 2 -99 3 -145 3c-49 0 -96 -1 -148 -3v30l48 3c24 1 36 5 42 15c7 11 9 37 9 75v449c0 38 -2 64 -9 75c-6 10 -18 14 -42 15l-48 3v30c52 -2 99 -3 148 -3c46 0 93 1 145 3v-30l-48 -3
c-24 -1 -36 -5 -42 -15c-7 -11 -9 -37 -9 -75v-27c11 -2 29 -2 51 -2c27 0 58 0 90 1h7c95 0 200 -43 200 -153c0 -125 -108 -212 -213 -212c-27 0 -51 2 -65 6l-11 37c15 -4 39 -9 64 -9c62 0 125 59 125 144c0 104 -63 145 -164 145c-27 0 -56 -1 -84 -8z" />
    <glyph glyph-name="onequarter" unicode="&#xbc;" horiz-adv-x="750" 
d="M595 107h-173l-5 15c9 17 17 34 27 50l158 228l49 16l9 -3c-1 -18 -5 -91 -5 -183v-77h20c17 0 34 1 52 2v-51c-20 3 -45 3 -70 3v-36c0 -41 22 -49 44 -49h21v-25c-39 2 -69 3 -100 3s-61 -1 -107 -3v25h21c39 0 59 8 59 49v36zM595 153v189h-2l-127 -189h129zM208 0
h-52l451 689h52zM129 379v238c0 9 0 19 -5 19h-2l-81 -34h-7l-4 32c49 17 103 38 161 58l10 -3c-2 -28 -8 -115 -8 -204v-106c0 -68 6 -80 42 -80h33v-26c-57 1 -85 3 -112 3s-55 -2 -106 -3v26h36c36 0 43 12 43 80z" />
    <glyph glyph-name="divide" unicode="&#xf7;" horiz-adv-x="606" 
d="M51 233v56h504v-56h-504zM303 396c-31 0 -57 28 -57 58s27 58 57 58c31 0 59 -27 59 -58c0 -32 -27 -58 -59 -58zM303 10c-31 0 -57 28 -57 58s27 58 57 58c31 0 59 -27 59 -58c0 -32 -27 -58 -59 -58z" />
    <glyph glyph-name="brokenbar" unicode="&#xa6;" horiz-adv-x="606" 
d="M275 675h56v-350h-56v350zM275 175h56v-350h-56v350z" />
    <glyph glyph-name="degree" unicode="&#xb0;" horiz-adv-x="400" 
d="M350 539c0 -83 -68 -150 -150 -150c-83 0 -150 67 -150 150v2c0 81 68 148 150 148s150 -68 150 -150zM310 539c0 60 -50 110 -111 110c-59 0 -109 -49 -109 -108v-2c0 -61 49 -110 110 -110c60 0 110 49 110 110z" />
    <glyph glyph-name="thorn" unicode="&#xfe;" horiz-adv-x="601" 
d="M165 301v-203c38 -44 85 -59 142 -59c81 0 150 65 150 196c0 94 -51 169 -156 169c-74 0 -114 -45 -131 -76c-5 -9 -5 -18 -5 -27zM81 -176v796c0 23 -3 41 -25 41h-56v28c53 8 106 17 156 37l9 -8v-347h2l53 54c26 27 78 44 121 44c106 0 203 -81 203 -204
c0 -66 -35 -151 -79 -183l-100 -72c-30 -22 -65 -22 -91 -22c-31 0 -75 10 -109 25v-189c0 -27 1 -47 5 -58c4 -9 15 -13 32 -14l46 -3v-30c-36 1 -76 3 -125 3s-89 -2 -125 -3v30l46 3c17 1 28 5 32 14c4 11 5 31 5 58z" />
    <glyph glyph-name="threequarters" unicode="&#xbe;" horiz-adv-x="750" 
d="M41 578l19 71c28 29 63 40 105 40c73 0 120 -35 120 -91c0 -37 -33 -71 -72 -97c64 -8 100 -36 100 -92c0 -83 -87 -143 -184 -143c-22 0 -58 7 -88 16c-2 25 -14 55 -26 94l31 8c19 -65 56 -86 111 -86c53 0 90 40 90 92s-29 81 -81 81c-22 0 -39 -3 -53 -13l-10 4
l10 43c13 0 22 -1 32 -1c47 0 80 40 80 76c0 34 -31 63 -72 63c-47 0 -80 -28 -87 -65h-25zM217 0h-52l451 689h52zM603 153v189h-2l-127 -189h129zM603 107h-173l-5 15c9 17 17 34 27 50l158 228l49 16l9 -3c-1 -18 -5 -91 -5 -183v-77h20c17 0 34 1 52 2v-51
c-20 3 -45 3 -70 3v-36c0 -41 22 -49 44 -49h21v-25c-39 2 -69 3 -100 3s-61 -1 -107 -3v25h21c39 0 59 8 59 49v36z" />
    <glyph glyph-name="registered" unicode="&#xae;" horiz-adv-x="747" 
d="M371 706c201 0 365 -161 365 -362c0 -200 -164 -362 -364 -362c-198 0 -361 163 -361 361c0 199 162 363 360 363zM371 662c-174 0 -316 -144 -316 -319c0 -174 143 -317 317 -317c175 0 320 142 320 318c0 177 -145 318 -321 318zM205 554h156c69 0 155 -9 155 -99
c0 -64 -54 -97 -111 -104v-2c45 -5 72 -66 87 -103c7 -17 20 -48 32 -60c10 -10 21 -13 39 -13v-16h-41c-16 0 -34 1 -48 12c-18 14 -34 56 -42 76c-9 22 -24 64 -41 81c-13 13 -30 14 -47 14h-35v-129c0 -25 2 -36 28 -37l21 -1v-16h-152v16h16c25 0 32 4 32 31v303
c0 26 -14 28 -32 29l-17 1v17zM309 492v-132h27c63 0 124 14 124 90c0 58 -38 85 -94 85h-29c-26 0 -28 -15 -28 -35v-8z" />
    <glyph glyph-name="minus" unicode="&#x2212;" horiz-adv-x="606" 
d="M555 233h-504v56h504v-56z" />
    <glyph glyph-name="eth" unicode="&#xf0;" horiz-adv-x="546" 
d="M275 13c85 0 141 91 141 239c0 138 -90 184 -152 184c-106 0 -139 -88 -139 -181c0 -105 38 -242 150 -242zM124 550l136 66c-34 32 -82 60 -122 80l34 32c61 -36 101 -62 133 -90l143 70l18 -30l-131 -64c88 -84 169 -200 169 -350s-80 -279 -248 -284h-8
c-126 0 -216 99 -216 234c0 150 94 255 245 255c35 0 81 -13 101 -25l2 2c-26 58 -62 110 -98 142l-140 -68z" />
    <glyph glyph-name="multiply" unicode="&#xd7;" horiz-adv-x="606" 
d="M263 255l-180 180l41 39l179 -179l179 179l41 -39l-181 -180l181 -180l-41 -39l-179 179l-179 -179l-41 39z" />
    <glyph glyph-name="copyright" unicode="&#xa9;" horiz-adv-x="747" 
d="M371 706c201 0 365 -161 365 -362c0 -200 -164 -362 -364 -362c-198 0 -361 163 -361 361c0 199 162 363 360 363zM371 662c-174 0 -316 -144 -316 -319c0 -174 143 -317 317 -317c175 0 320 142 320 318c0 177 -145 318 -321 318zM527 522v-107h-26
c-1 67 -38 107 -108 107c-99 0 -147 -82 -147 -173c0 -86 50 -183 147 -183c55 0 100 28 123 77l21 -9c-25 -64 -96 -99 -163 -99c-119 0 -196 88 -196 205c0 124 82 208 208 208c47 0 97 -11 141 -26z" />
    <glyph glyph-name="Aacute" unicode="&#xc1;" horiz-adv-x="778" 
d="M408 700l242 -568c9 -20 20 -47 32 -68c11 -19 22 -32 40 -34l34 -3v-30c-44 1 -88 3 -133 3c-35 0 -79 -2 -133 -3v30l47 3c21 1 41 8 41 20c0 14 -11 40 -21 64l-46 115h-288l-28 -67c-9 -21 -35 -88 -35 -104c0 -21 17 -25 48 -28l37 -3v-30c-48 1 -86 3 -115 3
c-39 0 -77 -2 -115 -3v30l37 3c24 2 43 23 54 49l178 405c31 70 65 144 92 216h32zM240 269h253l-126 298zM307 737l138 138c15 15 37 33 53 33c21 0 33 -15 33 -35c0 -23 -23 -36 -40 -46l-144 -90h-40z" />
    <glyph glyph-name="Acircumflex" unicode="&#xc2;" horiz-adv-x="778" 
d="M408 700l242 -568c9 -20 20 -47 32 -68c11 -19 22 -32 40 -34l34 -3v-30c-44 1 -88 3 -133 3c-35 0 -79 -2 -133 -3v30l47 3c21 1 41 8 41 20c0 14 -11 40 -21 64l-46 115h-288l-28 -67c-9 -21 -35 -88 -35 -104c0 -21 17 -25 48 -28l37 -3v-30c-48 1 -86 3 -115 3
c-39 0 -77 -2 -115 -3v30l37 3c24 2 43 23 54 49l178 405c31 70 65 144 92 216h32zM240 269h253l-126 298zM359 908h62l125 -167h-35l-121 103l-121 -103h-35z" />
    <glyph glyph-name="Adieresis" unicode="&#xc4;" horiz-adv-x="778" 
d="M408 700l242 -568c9 -20 20 -47 32 -68c11 -19 22 -32 40 -34l34 -3v-30c-44 1 -88 3 -133 3c-35 0 -79 -2 -133 -3v30l47 3c21 1 41 8 41 20c0 14 -11 40 -21 64l-46 115h-288l-28 -67c-9 -21 -35 -88 -35 -104c0 -21 17 -25 48 -28l37 -3v-30c-48 1 -86 3 -115 3
c-39 0 -77 -2 -115 -3v30l37 3c24 2 43 23 54 49l178 405c31 70 65 144 92 216h32zM240 269h253l-126 298zM290 868c29 0 56 -27 56 -56s-27 -55 -56 -55s-55 26 -55 55s26 56 55 56zM489 868c29 0 56 -27 56 -56s-27 -55 -56 -55s-55 26 -55 55s26 56 55 56z" />
    <glyph glyph-name="Agrave" unicode="&#xc0;" horiz-adv-x="778" 
d="M408 700l242 -568c9 -20 20 -47 32 -68c11 -19 22 -32 40 -34l34 -3v-30c-44 1 -88 3 -133 3c-35 0 -79 -2 -133 -3v30l47 3c21 1 41 8 41 20c0 14 -11 40 -21 64l-46 115h-288l-28 -67c-9 -21 -35 -88 -35 -104c0 -21 17 -25 48 -28l37 -3v-30c-48 1 -86 3 -115 3
c-39 0 -77 -2 -115 -3v30l37 3c24 2 43 23 54 49l178 405c31 70 65 144 92 216h32zM240 269h253l-126 298zM430 737l-144 90c-17 10 -40 23 -40 46c0 20 12 35 33 35c16 0 38 -18 53 -33l138 -138h-40z" />
    <glyph glyph-name="Aring" unicode="&#xc5;" horiz-adv-x="778" 
d="M408 700l242 -568c9 -20 20 -47 32 -68c11 -19 22 -32 40 -34l34 -3v-30c-44 1 -88 3 -133 3c-35 0 -79 -2 -133 -3v30l47 3c21 1 41 8 41 20c0 14 -11 40 -21 64l-46 115h-288l-28 -67c-9 -21 -35 -88 -35 -104c0 -21 17 -25 48 -28l37 -3v-30c-48 1 -86 3 -115 3
c-39 0 -77 -2 -115 -3v30l37 3c24 2 43 23 54 49l178 405c31 70 65 144 92 216h32zM240 269h253l-126 298zM390 891c-37 0 -62 -25 -62 -64s25 -64 62 -64s62 25 62 64s-25 64 -62 64zM390 927c54 0 100 -44 100 -98v-4c0 -54 -46 -98 -100 -98s-100 44 -100 98v4
c0 54 46 98 100 98z" />
    <glyph glyph-name="Atilde" unicode="&#xc3;" horiz-adv-x="778" 
d="M408 700l242 -568c9 -20 20 -47 32 -68c11 -19 22 -32 40 -34l34 -3v-30c-44 1 -88 3 -133 3c-35 0 -79 -2 -133 -3v30l47 3c21 1 41 8 41 20c0 14 -11 40 -21 64l-46 115h-288l-28 -67c-9 -21 -35 -88 -35 -104c0 -21 17 -25 48 -28l37 -3v-30c-48 1 -86 3 -115 3
c-39 0 -77 -2 -115 -3v30l37 3c24 2 43 23 54 49l178 405c31 70 65 144 92 216h32zM240 269h253l-126 298zM526 871h29c0 -15 -8 -41 -26 -64c-17 -22 -43 -41 -80 -41c-41 0 -57 14 -93 30c-13 6 -33 15 -49 15c-27 0 -44 -21 -53 -45h-29c10 58 48 100 109 100
c27 0 53 -14 76 -25c16 -7 38 -20 56 -20h4c34 4 44 20 56 50z" />
    <glyph glyph-name="Ccedilla" unicode="&#xc7;" horiz-adv-x="709" 
d="M433 709c93 0 183 -24 231 -41c-10 -47 -19 -100 -19 -152h-31v72c0 28 -40 45 -86 62c-32 11 -75 17 -112 17c-188 0 -287 -137 -287 -307c0 -198 131 -326 329 -326c72 0 157 26 203 60l9 -10l-28 -50c-54 -33 -144 -51 -204 -53l-22 -56c9 3 19 4 29 4
c44 0 83 -23 83 -70c0 -65 -69 -84 -122 -84c-36 0 -50 5 -86 16l14 31c18 -5 42 -11 61 -11c34 0 58 8 58 46c0 23 -21 36 -40 36c-15 0 -27 -3 -41 -7l-7 6l38 89c-229 8 -381 143 -381 363c0 115 45 206 122 269c75 62 177 96 289 96z" />
    <glyph glyph-name="Eacute" unicode="&#xc9;" horiz-adv-x="611" 
d="M121 120v449c0 38 -2 64 -9 75c-6 10 -18 14 -42 15l-48 3v30c28 0 56 -1 84 -2c28 0 57 -1 85 -1c87 0 179 3 236 3c45 0 90 -1 129 -3c-11 -44 -16 -101 -16 -152h-35v65c0 13 -1 24 -9 27c-53 20 -132 21 -196 21c-27 0 -56 -1 -84 -8v-267c32 -2 68 -3 116 -3
c61 0 95 4 106 11c5 4 7 13 8 26l5 52h30c-1 -41 -3 -79 -3 -116s2 -75 3 -111h-30l-5 59c-1 13 -3 22 -8 25c-11 8 -45 12 -106 12c-48 0 -85 0 -116 -3v-280c28 -7 57 -8 84 -8c82 0 184 3 202 13c15 8 28 52 35 112h35c-10 -48 -16 -110 -16 -164c-38 -1 -102 -3 -166 -3
h-31c-77 1 -156 3 -218 3c-38 0 -71 -2 -107 -3v30l36 3c24 2 36 5 42 15c7 11 9 37 9 75zM217 737l138 138c15 15 37 33 53 33c21 0 33 -15 33 -35c0 -23 -23 -36 -40 -46l-144 -90h-40z" />
    <glyph glyph-name="Ecircumflex" unicode="&#xca;" horiz-adv-x="611" 
d="M121 120v449c0 38 -2 64 -9 75c-6 10 -18 14 -42 15l-48 3v30c28 0 56 -1 84 -2c28 0 57 -1 85 -1c87 0 179 3 236 3c45 0 90 -1 129 -3c-11 -44 -16 -101 -16 -152h-35v65c0 13 -1 24 -9 27c-53 20 -132 21 -196 21c-27 0 -56 -1 -84 -8v-267c32 -2 68 -3 116 -3
c61 0 95 4 106 11c5 4 7 13 8 26l5 52h30c-1 -41 -3 -79 -3 -116s2 -75 3 -111h-30l-5 59c-1 13 -3 22 -8 25c-11 8 -45 12 -106 12c-48 0 -85 0 -116 -3v-280c28 -7 57 -8 84 -8c82 0 184 3 202 13c15 8 28 52 35 112h35c-10 -48 -16 -110 -16 -164c-38 -1 -102 -3 -166 -3
h-31c-77 1 -156 3 -218 3c-38 0 -71 -2 -107 -3v30l36 3c24 2 36 5 42 15c7 11 9 37 9 75zM275 908h62l125 -167h-35l-121 103l-121 -103h-35z" />
    <glyph glyph-name="Edieresis" unicode="&#xcb;" horiz-adv-x="611" 
d="M121 120v449c0 38 -2 64 -9 75c-6 10 -18 14 -42 15l-48 3v30c28 0 56 -1 84 -2c28 0 57 -1 85 -1c87 0 179 3 236 3c45 0 90 -1 129 -3c-11 -44 -16 -101 -16 -152h-35v65c0 13 -1 24 -9 27c-53 20 -132 21 -196 21c-27 0 -56 -1 -84 -8v-267c32 -2 68 -3 116 -3
c61 0 95 4 106 11c5 4 7 13 8 26l5 52h30c-1 -41 -3 -79 -3 -116s2 -75 3 -111h-30l-5 59c-1 13 -3 22 -8 25c-11 8 -45 12 -106 12c-48 0 -85 0 -116 -3v-280c28 -7 57 -8 84 -8c82 0 184 3 202 13c15 8 28 52 35 112h35c-10 -48 -16 -110 -16 -164c-38 -1 -102 -3 -166 -3
h-31c-77 1 -156 3 -218 3c-38 0 -71 -2 -107 -3v30l36 3c24 2 36 5 42 15c7 11 9 37 9 75zM206 868c29 0 56 -27 56 -56s-27 -55 -56 -55s-55 26 -55 55s26 56 55 56zM405 868c29 0 56 -27 56 -56s-27 -55 -56 -55s-55 26 -55 55s26 56 55 56z" />
    <glyph glyph-name="Egrave" unicode="&#xc8;" horiz-adv-x="611" 
d="M121 120v449c0 38 -2 64 -9 75c-6 10 -18 14 -42 15l-48 3v30c28 0 56 -1 84 -2c28 0 57 -1 85 -1c87 0 179 3 236 3c45 0 90 -1 129 -3c-11 -44 -16 -101 -16 -152h-35v65c0 13 -1 24 -9 27c-53 20 -132 21 -196 21c-27 0 -56 -1 -84 -8v-267c32 -2 68 -3 116 -3
c61 0 95 4 106 11c5 4 7 13 8 26l5 52h30c-1 -41 -3 -79 -3 -116s2 -75 3 -111h-30l-5 59c-1 13 -3 22 -8 25c-11 8 -45 12 -106 12c-48 0 -85 0 -116 -3v-280c28 -7 57 -8 84 -8c82 0 184 3 202 13c15 8 28 52 35 112h35c-10 -48 -16 -110 -16 -164c-38 -1 -102 -3 -166 -3
h-31c-77 1 -156 3 -218 3c-38 0 -71 -2 -107 -3v30l36 3c24 2 36 5 42 15c7 11 9 37 9 75zM354 737l-144 90c-17 10 -40 23 -40 46c0 20 12 35 33 35c16 0 38 -18 53 -33l138 -138h-40z" />
    <glyph glyph-name="Iacute" unicode="&#xcd;" horiz-adv-x="337" 
d="M216 569v-449c0 -38 2 -64 9 -75c6 -10 18 -14 42 -15l48 -3v-30c-52 2 -99 3 -145 3c-49 0 -96 -1 -148 -3v30l48 3c24 1 36 5 42 15c7 11 9 37 9 75v449c0 38 -2 64 -9 75c-6 10 -18 14 -42 15l-48 3v30c52 -2 99 -3 148 -3c46 0 93 1 145 3v-30l-48 -3
c-24 -1 -36 -5 -42 -15c-7 -11 -9 -37 -9 -75zM80 737l138 138c15 15 37 33 53 33c21 0 33 -15 33 -35c0 -23 -23 -36 -40 -46l-144 -90h-40z" />
    <glyph glyph-name="Icircumflex" unicode="&#xce;" horiz-adv-x="337" 
d="M216 569v-449c0 -38 2 -64 9 -75c6 -10 18 -14 42 -15l48 -3v-30c-52 2 -99 3 -145 3c-49 0 -96 -1 -148 -3v30l48 3c24 1 36 5 42 15c7 11 9 37 9 75v449c0 38 -2 64 -9 75c-6 10 -18 14 -42 15l-48 3v30c52 -2 99 -3 148 -3c46 0 93 1 145 3v-30l-48 -3
c-24 -1 -36 -5 -42 -15c-7 -11 -9 -37 -9 -75zM138 908h62l125 -167h-35l-121 103l-121 -103h-35z" />
    <glyph glyph-name="Idieresis" unicode="&#xcf;" horiz-adv-x="337" 
d="M216 569v-449c0 -38 2 -64 9 -75c6 -10 18 -14 42 -15l48 -3v-30c-52 2 -99 3 -145 3c-49 0 -96 -1 -148 -3v30l48 3c24 1 36 5 42 15c7 11 9 37 9 75v449c0 38 -2 64 -9 75c-6 10 -18 14 -42 15l-48 3v30c52 -2 99 -3 148 -3c46 0 93 1 145 3v-30l-48 -3
c-24 -1 -36 -5 -42 -15c-7 -11 -9 -37 -9 -75zM69 868c29 0 56 -27 56 -56s-27 -55 -56 -55s-55 26 -55 55s26 56 55 56zM268 868c29 0 56 -27 56 -56s-27 -55 -56 -55s-55 26 -55 55s26 56 55 56z" />
    <glyph glyph-name="Igrave" unicode="&#xcc;" horiz-adv-x="337" 
d="M216 569v-449c0 -38 2 -64 9 -75c6 -10 18 -14 42 -15l48 -3v-30c-52 2 -99 3 -145 3c-49 0 -96 -1 -148 -3v30l48 3c24 1 36 5 42 15c7 11 9 37 9 75v449c0 38 -2 64 -9 75c-6 10 -18 14 -42 15l-48 3v30c52 -2 99 -3 148 -3c46 0 93 1 145 3v-30l-48 -3
c-24 -1 -36 -5 -42 -15c-7 -11 -9 -37 -9 -75zM217 737l-144 90c-17 10 -40 23 -40 46c0 20 12 35 33 35c16 0 38 -18 53 -33l138 -138h-40z" />
    <glyph glyph-name="Ntilde" unicode="&#xd1;" horiz-adv-x="831" 
d="M112 120v449c0 38 -2 64 -9 75c-6 10 -18 13 -42 15l-44 3v30c44 -1 84 -3 120 -3c18 0 36 2 54 3l478 -590h3v467c0 38 -2 64 -9 75c-6 10 -18 13 -42 15l-44 3v30c40 -1 80 -3 116 -3c40 0 76 2 120 3v-30l-44 -3c-24 -2 -36 -5 -42 -15c-7 -11 -9 -37 -9 -75v-552
c0 -12 2 -25 3 -37l-90 16l-471 585h-2v-461c0 -38 2 -64 9 -75c6 -10 18 -13 42 -15l44 -3v-30c-44 1 -80 3 -120 3c-36 0 -76 -2 -116 -3v30l44 3c24 2 36 5 42 15c7 11 9 37 9 75zM552 871h29c0 -15 -8 -41 -26 -64c-17 -22 -43 -41 -80 -41c-41 0 -57 14 -93 30
c-13 6 -33 15 -49 15c-27 0 -44 -21 -53 -45h-29c10 58 48 100 109 100c27 0 53 -14 76 -25c16 -7 38 -20 56 -20h4c34 4 44 20 56 50z" />
    <glyph glyph-name="Oacute" unicode="&#xd3;" horiz-adv-x="786" 
d="M377 -20c-203 0 -355 140 -355 364c0 206 144 365 376 365c214 0 366 -120 366 -342c0 -215 -168 -387 -387 -387zM382 667c-174 0 -253 -122 -253 -286c0 -175 82 -359 280 -359c167 0 248 130 248 314c0 198 -89 331 -275 331zM305 737l138 138c15 15 37 33 53 33
c21 0 33 -15 33 -35c0 -23 -23 -36 -40 -46l-144 -90h-40z" />
    <glyph glyph-name="Ocircumflex" unicode="&#xd4;" horiz-adv-x="786" 
d="M377 -20c-203 0 -355 140 -355 364c0 206 144 365 376 365c214 0 366 -120 366 -342c0 -215 -168 -387 -387 -387zM382 667c-174 0 -253 -122 -253 -286c0 -175 82 -359 280 -359c167 0 248 130 248 314c0 198 -89 331 -275 331zM363 908h62l125 -167h-35l-121 103
l-121 -103h-35z" />
    <glyph glyph-name="Odieresis" unicode="&#xd6;" horiz-adv-x="786" 
d="M377 -20c-203 0 -355 140 -355 364c0 206 144 365 376 365c214 0 366 -120 366 -342c0 -215 -168 -387 -387 -387zM382 667c-174 0 -253 -122 -253 -286c0 -175 82 -359 280 -359c167 0 248 130 248 314c0 198 -89 331 -275 331zM294 868c29 0 56 -27 56 -56
s-27 -55 -56 -55s-55 26 -55 55s26 56 55 56zM493 868c29 0 56 -27 56 -56s-27 -55 -56 -55s-55 26 -55 55s26 56 55 56z" />
    <glyph glyph-name="Ograve" unicode="&#xd2;" horiz-adv-x="786" 
d="M377 -20c-203 0 -355 140 -355 364c0 206 144 365 376 365c214 0 366 -120 366 -342c0 -215 -168 -387 -387 -387zM382 667c-174 0 -253 -122 -253 -286c0 -175 82 -359 280 -359c167 0 248 130 248 314c0 198 -89 331 -275 331zM442 737l-144 90c-17 10 -40 23 -40 46
c0 20 12 35 33 35c16 0 38 -18 53 -33l138 -138h-40z" />
    <glyph glyph-name="Otilde" unicode="&#xd5;" horiz-adv-x="786" 
d="M377 -20c-203 0 -355 140 -355 364c0 206 144 365 376 365c214 0 366 -120 366 -342c0 -215 -168 -387 -387 -387zM382 667c-174 0 -253 -122 -253 -286c0 -175 82 -359 280 -359c167 0 248 130 248 314c0 198 -89 331 -275 331zM530 883h29c0 -15 -8 -41 -26 -64
c-17 -22 -43 -41 -80 -41c-41 0 -57 14 -93 30c-13 6 -33 15 -49 15c-27 0 -44 -21 -53 -45h-29c10 58 48 100 109 100c27 0 53 -14 76 -25c16 -7 38 -20 56 -20h4c34 4 44 20 56 50z" />
    <glyph glyph-name="Scaron" unicode="&#x160;" horiz-adv-x="525" 
d="M447 526h-32l-6 57c-3 27 -7 37 -44 60c-28 17 -70 24 -109 24c-70 0 -148 -47 -148 -146c0 -68 40 -110 165 -124c141 -15 230 -50 230 -164c0 -171 -153 -253 -302 -253c-70 0 -138 22 -171 38c6 38 7 78 7 115v38h32l8 -67c5 -42 84 -80 163 -80c90 0 179 55 179 154
c0 95 -74 122 -176 134c-157 18 -219 67 -219 171c0 155 136 226 256 226c80 0 140 -26 181 -42c-10 -51 -14 -94 -14 -141zM263 805l122 103h34l-125 -167h-62l-125 167h35z" />
    <glyph glyph-name="Uacute" unicode="&#xda;" horiz-adv-x="778" 
d="M111 214v355c0 38 -2 64 -9 75c-6 10 -18 14 -42 15l-48 3v30c52 -2 99 -3 148 -3c46 0 93 1 145 3v-30l-48 -3c-24 -1 -36 -5 -42 -15c-7 -11 -9 -37 -9 -75v-344c0 -142 74 -183 206 -183c108 0 206 41 206 207v320c0 38 -2 64 -9 75c-6 10 -18 13 -42 15l-44 3v30
c40 -1 80 -3 116 -3c40 0 76 2 120 3v-30l-44 -3c-24 -2 -36 -5 -42 -15c-7 -11 -9 -37 -9 -75v-289c0 -214 -81 -300 -283 -300c-170 0 -270 51 -270 234zM333 737l138 138c15 15 37 33 53 33c21 0 33 -15 33 -35c0 -23 -23 -36 -40 -46l-144 -90h-40z" />
    <glyph glyph-name="Ucircumflex" unicode="&#xdb;" horiz-adv-x="778" 
d="M111 214v355c0 38 -2 64 -9 75c-6 10 -18 14 -42 15l-48 3v30c52 -2 99 -3 148 -3c46 0 93 1 145 3v-30l-48 -3c-24 -1 -36 -5 -42 -15c-7 -11 -9 -37 -9 -75v-344c0 -142 74 -183 206 -183c108 0 206 41 206 207v320c0 38 -2 64 -9 75c-6 10 -18 13 -42 15l-44 3v30
c40 -1 80 -3 116 -3c40 0 76 2 120 3v-30l-44 -3c-24 -2 -36 -5 -42 -15c-7 -11 -9 -37 -9 -75v-289c0 -214 -81 -300 -283 -300c-170 0 -270 51 -270 234zM383 908h62l125 -167h-35l-121 103l-121 -103h-35z" />
    <glyph glyph-name="Udieresis" unicode="&#xdc;" horiz-adv-x="778" 
d="M111 214v355c0 38 -2 64 -9 75c-6 10 -18 14 -42 15l-48 3v30c52 -2 99 -3 148 -3c46 0 93 1 145 3v-30l-48 -3c-24 -1 -36 -5 -42 -15c-7 -11 -9 -37 -9 -75v-344c0 -142 74 -183 206 -183c108 0 206 41 206 207v320c0 38 -2 64 -9 75c-6 10 -18 13 -42 15l-44 3v30
c40 -1 80 -3 116 -3c40 0 76 2 120 3v-30l-44 -3c-24 -2 -36 -5 -42 -15c-7 -11 -9 -37 -9 -75v-289c0 -214 -81 -300 -283 -300c-170 0 -270 51 -270 234zM290 868c29 0 56 -27 56 -56s-27 -55 -56 -55s-55 26 -55 55s26 56 55 56zM489 868c29 0 56 -27 56 -56
s-27 -55 -56 -55s-55 26 -55 55s26 56 55 56z" />
    <glyph glyph-name="Ugrave" unicode="&#xd9;" horiz-adv-x="778" 
d="M111 214v355c0 38 -2 64 -9 75c-6 10 -18 14 -42 15l-48 3v30c52 -2 99 -3 148 -3c46 0 93 1 145 3v-30l-48 -3c-24 -1 -36 -5 -42 -15c-7 -11 -9 -37 -9 -75v-344c0 -142 74 -183 206 -183c108 0 206 41 206 207v320c0 38 -2 64 -9 75c-6 10 -18 13 -42 15l-44 3v30
c40 -1 80 -3 116 -3c40 0 76 2 120 3v-30l-44 -3c-24 -2 -36 -5 -42 -15c-7 -11 -9 -37 -9 -75v-289c0 -214 -81 -300 -283 -300c-170 0 -270 51 -270 234zM438 737l-144 90c-17 10 -40 23 -40 46c0 20 12 35 33 35c16 0 38 -18 53 -33l138 -138h-40z" />
    <glyph glyph-name="Yacute" unicode="&#xdd;" horiz-adv-x="667" 
d="M220 602l143 -261l103 163c40 63 75 126 108 190h80v-15c-84 -97 -205 -266 -246 -355c-12 -26 -14 -51 -14 -75v-129c0 -38 2 -64 9 -75c6 -10 18 -14 42 -15l48 -3v-30c-52 2 -99 3 -145 3c-49 0 -96 -1 -148 -3v30l48 3c24 1 36 5 42 15c7 11 9 37 9 75v142
c0 16 -3 30 -9 40l-124 216c-52 90 -103 127 -128 130l-29 3v29l115 24c2 0 3 1 5 1c18 0 31 -19 47 -38c17 -21 31 -41 44 -65zM315 737l138 138c15 15 37 33 53 33c21 0 33 -15 33 -35c0 -23 -23 -36 -40 -46l-144 -90h-40z" />
    <glyph glyph-name="Ydieresis" unicode="&#x178;" horiz-adv-x="667" 
d="M220 602l143 -261l103 163c40 63 75 126 108 190h80v-15c-84 -97 -205 -266 -246 -355c-12 -26 -14 -51 -14 -75v-129c0 -38 2 -64 9 -75c6 -10 18 -14 42 -15l48 -3v-30c-52 2 -99 3 -145 3c-49 0 -96 -1 -148 -3v30l48 3c24 1 36 5 42 15c7 11 9 37 9 75v142
c0 16 -3 30 -9 40l-124 216c-52 90 -103 127 -128 130l-29 3v29l115 24c2 0 3 1 5 1c18 0 31 -19 47 -38c17 -21 31 -41 44 -65zM258 868c29 0 56 -27 56 -56s-27 -55 -56 -55s-55 26 -55 55s26 56 55 56zM457 868c29 0 56 -27 56 -56s-27 -55 -56 -55s-55 26 -55 55
s26 56 55 56z" />
    <glyph glyph-name="Zcaron" unicode="&#x17d;" horiz-adv-x="667" 
d="M637 663l-486 -619h273c149 0 167 4 174 72l6 57h34c-5 -55 -6 -119 -6 -176c-98 1 -202 3 -305 3c-104 0 -208 -2 -312 -3v28c32 39 66 77 97 117l302 388c30 38 64 80 86 118h-228c-138 0 -149 -14 -152 -47l-6 -71h-34c2 27 3 54 3 81s-1 54 -3 81
c132 -1 265 -3 397 -3c52 0 104 2 156 3zM346 805l122 103h34l-125 -167h-62l-125 167h35z" />
    <glyph glyph-name="aacute" unicode="&#xe1;" 
d="M225 270l99 18v3c0 76 -39 125 -126 125c-43 0 -57 -4 -70 -21c-6 -8 -11 -20 -17 -33l-13 -31l-26 7v65l53 32c43 26 84 34 116 34c125 0 163 -55 163 -199v-183c0 -16 1 -32 3 -43c2 -10 11 -14 25 -15l39 -2v-30c-25 1 -50 3 -75 3c-26 0 -51 -2 -77 -3l5 85l-124 -86
c-8 -6 -28 -8 -46 -8c-68 0 -122 40 -122 121c0 115 101 144 193 161zM324 124v132c-50 -7 -95 -15 -146 -35c-35 -14 -60 -57 -60 -94c0 -51 38 -82 78 -82c31 0 63 21 96 46c16 12 28 27 32 33zM162 526l138 138c15 15 37 33 53 33c21 0 33 -15 33 -35
c0 -23 -23 -36 -40 -46l-144 -90h-40z" />
    <glyph glyph-name="acircumflex" unicode="&#xe2;" 
d="M225 270l99 18v3c0 76 -39 125 -126 125c-43 0 -57 -4 -70 -21c-6 -8 -11 -20 -17 -33l-13 -31l-26 7v65l53 32c43 26 84 34 116 34c125 0 163 -55 163 -199v-183c0 -16 1 -32 3 -43c2 -10 11 -14 25 -15l39 -2v-30c-25 1 -50 3 -75 3c-26 0 -51 -2 -77 -3l5 85l-124 -86
c-8 -6 -28 -8 -46 -8c-68 0 -122 40 -122 121c0 115 101 144 193 161zM324 124v132c-50 -7 -95 -15 -146 -35c-35 -14 -60 -57 -60 -94c0 -51 38 -82 78 -82c31 0 63 21 96 46c16 12 28 27 32 33zM208 697h62l125 -167h-35l-121 103l-121 -103h-35z" />
    <glyph glyph-name="adieresis" unicode="&#xe4;" 
d="M225 270l99 18v3c0 76 -39 125 -126 125c-43 0 -57 -4 -70 -21c-6 -8 -11 -20 -17 -33l-13 -31l-26 7v65l53 32c43 26 84 34 116 34c125 0 163 -55 163 -199v-183c0 -16 1 -32 3 -43c2 -10 11 -14 25 -15l39 -2v-30c-25 1 -50 3 -75 3c-26 0 -51 -2 -77 -3l5 85l-124 -86
c-8 -6 -28 -8 -46 -8c-68 0 -122 40 -122 121c0 115 101 144 193 161zM324 124v132c-50 -7 -95 -15 -146 -35c-35 -14 -60 -57 -60 -94c0 -51 38 -82 78 -82c31 0 63 21 96 46c16 12 28 27 32 33zM139 657c29 0 56 -27 56 -56s-27 -55 -56 -55s-55 26 -55 55s26 56 55 56z
M338 657c29 0 56 -27 56 -56s-27 -55 -56 -55s-55 26 -55 55s26 56 55 56z" />
    <glyph glyph-name="agrave" unicode="&#xe0;" 
d="M225 270l99 18v3c0 76 -39 125 -126 125c-43 0 -57 -4 -70 -21c-6 -8 -11 -20 -17 -33l-13 -31l-26 7v65l53 32c43 26 84 34 116 34c125 0 163 -55 163 -199v-183c0 -16 1 -32 3 -43c2 -10 11 -14 25 -15l39 -2v-30c-25 1 -50 3 -75 3c-26 0 -51 -2 -77 -3l5 85l-124 -86
c-8 -6 -28 -8 -46 -8c-68 0 -122 40 -122 121c0 115 101 144 193 161zM324 124v132c-50 -7 -95 -15 -146 -35c-35 -14 -60 -57 -60 -94c0 -51 38 -82 78 -82c31 0 63 21 96 46c16 12 28 27 32 33zM275 526l-144 90c-17 10 -40 23 -40 46c0 20 12 35 33 35
c16 0 38 -18 53 -33l138 -138h-40z" />
    <glyph glyph-name="aring" unicode="&#xe5;" 
d="M225 270l99 18v3c0 76 -39 125 -126 125c-43 0 -57 -4 -70 -21c-6 -8 -11 -20 -17 -33l-13 -31l-26 7v65l53 32c43 26 84 34 116 34c125 0 163 -55 163 -199v-183c0 -16 1 -32 3 -43c2 -10 11 -14 25 -15l39 -2v-30c-25 1 -50 3 -75 3c-26 0 -51 -2 -77 -3l5 85l-124 -86
c-8 -6 -28 -8 -46 -8c-68 0 -122 40 -122 121c0 115 101 144 193 161zM324 124v132c-50 -7 -95 -15 -146 -35c-35 -14 -60 -57 -60 -94c0 -51 38 -82 78 -82c31 0 63 21 96 46c16 12 28 27 32 33zM239 680c-37 0 -62 -25 -62 -64s25 -64 62 -64s62 25 62 64s-25 64 -62 64z
M239 716c54 0 100 -44 100 -98v-4c0 -54 -46 -98 -100 -98s-100 44 -100 98v4c0 54 46 98 100 98z" />
    <glyph glyph-name="atilde" unicode="&#xe3;" 
d="M225 270l99 18v3c0 76 -39 125 -126 125c-43 0 -57 -4 -70 -21c-6 -8 -11 -20 -17 -33l-13 -31l-26 7v65l53 32c43 26 84 34 116 34c125 0 163 -55 163 -199v-183c0 -16 1 -32 3 -43c2 -10 11 -14 25 -15l39 -2v-30c-25 1 -50 3 -75 3c-26 0 -51 -2 -77 -3l5 85l-124 -86
c-8 -6 -28 -8 -46 -8c-68 0 -122 40 -122 121c0 115 101 144 193 161zM324 124v132c-50 -7 -95 -15 -146 -35c-35 -14 -60 -57 -60 -94c0 -51 38 -82 78 -82c31 0 63 21 96 46c16 12 28 27 32 33zM375 672h29c0 -15 -8 -41 -26 -64c-17 -22 -43 -41 -80 -41
c-41 0 -57 14 -93 30c-13 6 -33 15 -49 15c-27 0 -44 -21 -53 -45h-29c10 58 48 100 109 100c27 0 53 -14 76 -25c16 -7 38 -20 56 -20h4c34 4 44 20 56 50z" />
    <glyph glyph-name="ccedilla" unicode="&#xe7;" horiz-adv-x="444" 
d="M198 -108l38 90c-112 6 -210 87 -210 229c0 93 45 157 86 187c23 17 57 36 85 48c30 13 63 23 96 23c58 0 95 -19 120 -35c-8 -30 -14 -79 -14 -123h-28l-7 61c-10 22 -69 45 -104 45c-69 0 -146 -32 -146 -163c0 -158 90 -222 187 -222c33 0 73 12 102 29l10 -15
l-21 -32c-6 -9 -56 -30 -121 -33l-22 -56c9 3 19 4 29 4c44 0 83 -23 83 -70c0 -65 -69 -84 -122 -84c-36 0 -50 5 -86 16l14 31c18 -5 42 -11 61 -11c34 0 58 8 58 46c0 23 -21 36 -40 36c-15 0 -27 -3 -41 -7z" />
    <glyph glyph-name="eacute" unicode="&#xe9;" horiz-adv-x="479" 
d="M253 436c-74 0 -132 -53 -132 -153v-13c43 -5 86 -6 127 -6c39 0 76 1 111 3c0 93 -34 169 -106 169zM258 469c109 0 190 -70 190 -183c0 -14 0 -28 -2 -42c-60 -10 -121 -14 -181 -14h-146c0 -117 58 -197 181 -197c48 0 86 24 124 47l13 -10l-20 -34
c-7 -12 -92 -56 -160 -56c-151 0 -231 96 -231 231c0 97 26 155 72 191c19 15 40 30 62 40c35 16 64 27 98 27zM175 526l138 138c15 15 37 33 53 33c21 0 33 -15 33 -35c0 -23 -23 -36 -40 -46l-144 -90h-40z" />
    <glyph glyph-name="ecircumflex" unicode="&#xea;" horiz-adv-x="479" 
d="M253 436c-74 0 -132 -53 -132 -153v-13c43 -5 86 -6 127 -6c39 0 76 1 111 3c0 93 -34 169 -106 169zM258 469c109 0 190 -70 190 -183c0 -14 0 -28 -2 -42c-60 -10 -121 -14 -181 -14h-146c0 -117 58 -197 181 -197c48 0 86 24 124 47l13 -10l-20 -34
c-7 -12 -92 -56 -160 -56c-151 0 -231 96 -231 231c0 97 26 155 72 191c19 15 40 30 62 40c35 16 64 27 98 27zM221 697h62l125 -167h-35l-121 103l-121 -103h-35z" />
    <glyph glyph-name="edieresis" unicode="&#xeb;" horiz-adv-x="479" 
d="M253 436c-74 0 -132 -53 -132 -153v-13c43 -5 86 -6 127 -6c39 0 76 1 111 3c0 93 -34 169 -106 169zM258 469c109 0 190 -70 190 -183c0 -14 0 -28 -2 -42c-60 -10 -121 -14 -181 -14h-146c0 -117 58 -197 181 -197c48 0 86 24 124 47l13 -10l-20 -34
c-7 -12 -92 -56 -160 -56c-151 0 -231 96 -231 231c0 97 26 155 72 191c19 15 40 30 62 40c35 16 64 27 98 27zM140 657c29 0 56 -27 56 -56s-27 -55 -56 -55s-55 26 -55 55s26 56 55 56zM339 657c29 0 56 -27 56 -56s-27 -55 -56 -55s-55 26 -55 55s26 56 55 56z" />
    <glyph glyph-name="egrave" unicode="&#xe8;" horiz-adv-x="479" 
d="M253 436c-74 0 -132 -53 -132 -153v-13c43 -5 86 -6 127 -6c39 0 76 1 111 3c0 93 -34 169 -106 169zM258 469c109 0 190 -70 190 -183c0 -14 0 -28 -2 -42c-60 -10 -121 -14 -181 -14h-146c0 -117 58 -197 181 -197c48 0 86 24 124 47l13 -10l-20 -34
c-7 -12 -92 -56 -160 -56c-151 0 -231 96 -231 231c0 97 26 155 72 191c19 15 40 30 62 40c35 16 64 27 98 27zM288 526l-144 90c-17 10 -40 23 -40 46c0 20 12 35 33 35c16 0 38 -18 53 -33l138 -138h-40z" />
    <glyph glyph-name="iacute" unicode="&#xed;" horiz-adv-x="287" 
d="M188 465v-363c0 -27 1 -47 5 -58c4 -9 15 -13 32 -14l46 -3v-30c-36 1 -76 3 -125 3s-89 -2 -125 -3v30l46 3c17 1 28 5 32 14c4 11 5 31 5 58v225c0 32 -2 54 -7 62c-6 8 -16 11 -37 11h-37v28c59 6 119 25 156 41zM55 526l138 138c15 15 37 33 53 33
c21 0 33 -15 33 -35c0 -23 -23 -36 -40 -46l-144 -90h-40z" />
    <glyph glyph-name="icircumflex" unicode="&#xee;" horiz-adv-x="287" 
d="M188 465v-363c0 -27 1 -47 5 -58c4 -9 15 -13 32 -14l46 -3v-30c-36 1 -76 3 -125 3s-89 -2 -125 -3v30l46 3c17 1 28 5 32 14c4 11 5 31 5 58v225c0 32 -2 54 -7 62c-6 8 -16 11 -37 11h-37v28c59 6 119 25 156 41zM113 697h62l125 -167h-35l-121 103l-121 -103h-35z
" />
    <glyph glyph-name="idieresis" unicode="&#xef;" horiz-adv-x="287" 
d="M188 465v-363c0 -27 1 -47 5 -58c4 -9 15 -13 32 -14l46 -3v-30c-36 1 -76 3 -125 3s-89 -2 -125 -3v30l46 3c17 1 28 5 32 14c4 11 5 31 5 58v225c0 32 -2 54 -7 62c-6 8 -16 11 -37 11h-37v28c59 6 119 25 156 41zM44 657c29 0 56 -27 56 -56s-27 -55 -56 -55
s-55 26 -55 55s26 56 55 56zM243 657c29 0 56 -27 56 -56s-27 -55 -56 -55s-55 26 -55 55s26 56 55 56z" />
    <glyph glyph-name="igrave" unicode="&#xec;" horiz-adv-x="287" 
d="M188 465v-363c0 -27 1 -47 5 -58c4 -9 15 -13 32 -14l46 -3v-30c-36 1 -76 3 -125 3s-89 -2 -125 -3v30l46 3c17 1 28 5 32 14c4 11 5 31 5 58v225c0 32 -2 54 -7 62c-6 8 -16 11 -37 11h-37v28c59 6 119 25 156 41zM192 526l-144 90c-17 10 -40 23 -40 46
c0 20 12 35 33 35c16 0 38 -18 53 -33l138 -138h-40z" />
    <glyph glyph-name="ntilde" unicode="&#xf1;" horiz-adv-x="582" 
d="M172 314v-212c0 -27 1 -47 5 -58c4 -9 15 -13 32 -14l45 -3v-30c-35 1 -75 3 -124 3s-89 -2 -124 -3v30l45 3c17 1 28 5 32 14c4 11 5 31 5 58v225c0 32 -2 54 -7 62c-6 8 -16 11 -37 11h-37v28c59 6 119 25 156 41l9 -4v-85h2l74 64c22 19 41 25 81 25
c117 0 165 -65 165 -174v-193c0 -27 1 -47 5 -58c4 -9 15 -13 32 -14l41 -3v-30c-25 1 -54 3 -82 3s-57 -2 -80 -3v284c0 83 -47 127 -115 127c-61 0 -123 -53 -123 -94zM416 672h29c0 -15 -8 -41 -26 -64c-17 -22 -43 -41 -80 -41c-41 0 -57 14 -93 30c-13 6 -33 15 -49 15
c-27 0 -44 -21 -53 -45h-29c10 58 48 100 109 100c27 0 53 -14 76 -25c16 -7 38 -20 56 -20h4c34 4 44 20 56 50z" />
    <glyph glyph-name="oacute" unicode="&#xf3;" horiz-adv-x="546" 
d="M252 -20h-7c-123 0 -213 99 -213 234c0 150 94 255 255 255c128 0 227 -100 227 -228c0 -153 -109 -261 -262 -261zM264 436c-106 0 -139 -86 -139 -179c0 -105 38 -244 166 -244c91 0 130 91 130 184c0 129 -61 239 -157 239zM185 526l138 138c15 15 37 33 53 33
c21 0 33 -15 33 -35c0 -23 -23 -36 -40 -46l-144 -90h-40z" />
    <glyph glyph-name="ocircumflex" unicode="&#xf4;" horiz-adv-x="546" 
d="M252 -20h-7c-123 0 -213 99 -213 234c0 150 94 255 255 255c128 0 227 -100 227 -228c0 -153 -109 -261 -262 -261zM264 436c-106 0 -139 -86 -139 -179c0 -105 38 -244 166 -244c91 0 130 91 130 184c0 129 -61 239 -157 239zM243 697h62l125 -167h-35l-121 103
l-121 -103h-35z" />
    <glyph glyph-name="odieresis" unicode="&#xf6;" horiz-adv-x="546" 
d="M252 -20h-7c-123 0 -213 99 -213 234c0 150 94 255 255 255c128 0 227 -100 227 -228c0 -153 -109 -261 -262 -261zM264 436c-106 0 -139 -86 -139 -179c0 -105 38 -244 166 -244c91 0 130 91 130 184c0 129 -61 239 -157 239zM174 657c29 0 56 -27 56 -56
s-27 -55 -56 -55s-55 26 -55 55s26 56 55 56zM373 657c29 0 56 -27 56 -56s-27 -55 -56 -55s-55 26 -55 55s26 56 55 56z" />
    <glyph glyph-name="ograve" unicode="&#xf2;" horiz-adv-x="546" 
d="M252 -20h-7c-123 0 -213 99 -213 234c0 150 94 255 255 255c128 0 227 -100 227 -228c0 -153 -109 -261 -262 -261zM264 436c-106 0 -139 -86 -139 -179c0 -105 38 -244 166 -244c91 0 130 91 130 184c0 129 -61 239 -157 239zM310 526l-144 90c-17 10 -40 23 -40 46
c0 20 12 35 33 35c16 0 38 -18 53 -33l138 -138h-40z" />
    <glyph glyph-name="otilde" unicode="&#xf5;" horiz-adv-x="546" 
d="M252 -20h-7c-123 0 -213 99 -213 234c0 150 94 255 255 255c128 0 227 -100 227 -228c0 -153 -109 -261 -262 -261zM264 436c-106 0 -139 -86 -139 -179c0 -105 38 -244 166 -244c91 0 130 91 130 184c0 129 -61 239 -157 239zM410 672h29c0 -15 -8 -41 -26 -64
c-17 -22 -43 -41 -80 -41c-41 0 -57 14 -93 30c-13 6 -33 15 -49 15c-27 0 -44 -21 -53 -45h-29c10 58 48 100 109 100c27 0 53 -14 76 -25c16 -7 38 -20 56 -20h4c34 4 44 20 56 50z" />
    <glyph glyph-name="scaron" unicode="&#x161;" horiz-adv-x="424" 
d="M41 143h30v-41c0 -62 71 -85 129 -85c63 0 117 37 117 91c0 32 -17 58 -48 66c-44 11 -99 22 -147 40s-85 48 -85 109c0 108 94 146 188 146c47 0 90 -11 129 -25c-3 -36 -4 -73 -5 -113h-28v23c0 52 -59 82 -116 82c-85 0 -98 -47 -98 -81c0 -43 33 -66 109 -79
c119 -20 175 -50 175 -128c0 -110 -110 -168 -221 -168c-48 0 -91 7 -140 24c10 44 11 92 11 139zM213 594l122 103h34l-125 -167h-62l-125 167h35z" />
    <glyph glyph-name="uacute" unicode="&#xfa;" horiz-adv-x="603" 
d="M503 465v-363c0 -27 1 -47 5 -58c4 -9 15 -13 32 -14l41 -3v-30c-25 1 -54 3 -82 3c-29 0 -58 -2 -84 -3c2 28 4 55 4 92l-67 -62c-28 -25 -64 -39 -112 -39c-141 0 -141 90 -141 171v168c0 32 -2 54 -7 62c-6 8 -16 11 -37 11h-37v28c59 6 119 25 156 41l9 -4v-295
c0 -79 17 -121 109 -121c65 0 127 67 127 115v163c0 32 -2 54 -7 62c-6 8 -16 11 -37 11h-37v28c59 6 119 25 156 41zM237 526l138 138c15 15 37 33 53 33c21 0 33 -15 33 -35c0 -23 -23 -36 -40 -46l-144 -90h-40z" />
    <glyph glyph-name="ucircumflex" unicode="&#xfb;" horiz-adv-x="603" 
d="M503 465v-363c0 -27 1 -47 5 -58c4 -9 15 -13 32 -14l41 -3v-30c-25 1 -54 3 -82 3c-29 0 -58 -2 -84 -3c2 28 4 55 4 92l-67 -62c-28 -25 -64 -39 -112 -39c-141 0 -141 90 -141 171v168c0 32 -2 54 -7 62c-6 8 -16 11 -37 11h-37v28c59 6 119 25 156 41l9 -4v-295
c0 -79 17 -121 109 -121c65 0 127 67 127 115v163c0 32 -2 54 -7 62c-6 8 -16 11 -37 11h-37v28c59 6 119 25 156 41zM271 697h62l125 -167h-35l-121 103l-121 -103h-35z" />
    <glyph glyph-name="udieresis" unicode="&#xfc;" horiz-adv-x="603" 
d="M503 465v-363c0 -27 1 -47 5 -58c4 -9 15 -13 32 -14l41 -3v-30c-25 1 -54 3 -82 3c-29 0 -58 -2 -84 -3c2 28 4 55 4 92l-67 -62c-28 -25 -64 -39 -112 -39c-141 0 -141 90 -141 171v168c0 32 -2 54 -7 62c-6 8 -16 11 -37 11h-37v28c59 6 119 25 156 41l9 -4v-295
c0 -79 17 -121 109 -121c65 0 127 67 127 115v163c0 32 -2 54 -7 62c-6 8 -16 11 -37 11h-37v28c59 6 119 25 156 41zM202 657c29 0 56 -27 56 -56s-27 -55 -56 -55s-55 26 -55 55s26 56 55 56zM401 657c29 0 56 -27 56 -56s-27 -55 -56 -55s-55 26 -55 55s26 56 55 56z" />
    <glyph glyph-name="ugrave" unicode="&#xf9;" horiz-adv-x="603" 
d="M503 465v-363c0 -27 1 -47 5 -58c4 -9 15 -13 32 -14l41 -3v-30c-25 1 -54 3 -82 3c-29 0 -58 -2 -84 -3c2 28 4 55 4 92l-67 -62c-28 -25 -64 -39 -112 -39c-141 0 -141 90 -141 171v168c0 32 -2 54 -7 62c-6 8 -16 11 -37 11h-37v28c59 6 119 25 156 41l9 -4v-295
c0 -79 17 -121 109 -121c65 0 127 67 127 115v163c0 32 -2 54 -7 62c-6 8 -16 11 -37 11h-37v28c59 6 119 25 156 41zM326 526l-144 90c-17 10 -40 23 -40 46c0 20 12 35 33 35c16 0 38 -18 53 -33l138 -138h-40z" />
    <glyph glyph-name="yacute" unicode="&#xfd;" horiz-adv-x="556" 
d="M297 86l119 292c4 10 6 17 6 24c0 18 -15 25 -42 27l-26 2v28c32 -1 63 -3 95 -3s63 2 95 3v-28l-28 -2c-24 -2 -46 -33 -84 -121l-203 -468c-32 -73 -68 -123 -152 -123c-17 0 -39 8 -50 15l24 75h13c12 -12 35 -23 49 -23h2c58 4 90 85 109 131l23 61l-165 404
c-16 38 -30 47 -52 49l-18 2v28c39 -1 77 -3 116 -3s77 2 116 3v-28l-38 -2c-19 -1 -33 -6 -33 -26c0 -10 2 -22 9 -39zM222 526l138 138c15 15 37 33 53 33c21 0 33 -15 33 -35c0 -23 -23 -36 -40 -46l-144 -90h-40z" />
    <glyph glyph-name="ydieresis" unicode="&#xff;" horiz-adv-x="556" 
d="M297 86l119 292c4 10 6 17 6 24c0 18 -15 25 -42 27l-26 2v28c32 -1 63 -3 95 -3s63 2 95 3v-28l-28 -2c-24 -2 -46 -33 -84 -121l-203 -468c-32 -73 -68 -123 -152 -123c-17 0 -39 8 -50 15l24 75h13c12 -12 35 -23 49 -23h2c58 4 90 85 109 131l23 61l-165 404
c-16 38 -30 47 -52 49l-18 2v28c39 -1 77 -3 116 -3s77 2 116 3v-28l-38 -2c-19 -1 -33 -6 -33 -26c0 -10 2 -22 9 -39zM179 657c29 0 56 -27 56 -56s-27 -55 -56 -55s-55 26 -55 55s26 56 55 56zM378 657c29 0 56 -27 56 -56s-27 -55 -56 -55s-55 26 -55 55s26 56 55 56z
" />
    <glyph glyph-name="zcaron" unicode="&#x17e;" 
d="M455 432l-314 -397h135c72 0 137 3 142 25l18 79h30c-5 -47 -15 -95 -15 -142c-103 1 -207 3 -310 3c-40 0 -79 -2 -119 -3l-6 20c31 35 61 69 90 105l170 212c23 29 46 60 65 90h-143c-72 0 -92 -4 -96 -26l-12 -68h-30c0 20 9 86 9 132c85 -1 187 -3 280 -3
c35 0 71 2 106 3v-30zM251 594l122 103h34l-125 -167h-62l-125 167h35z" />
    <glyph glyph-name="exclam.sc" unicode="&#xf721;" horiz-adv-x="278" 
d="M138 -5c-31 0 -57 28 -57 58s27 58 57 58c31 0 59 -28 59 -58s-27 -58 -59 -58zM160 694h34v-25c0 -48 -8 -95 -12 -143l-24 -278v-25l-28 -23l-10 5c0 14 0 27 -2 40l-26 305c-3 35 -5 71 -7 106z" />
    <glyph glyph-name="hungarumlaut.sc" unicode="&#xf6f8;" horiz-adv-x="380" 
d="M3 531l128 148c14 16 37 33 53 33c21 0 33 -15 33 -35s-23 -36 -39 -48l-135 -98h-40zM163 531l128 148c14 16 37 33 53 33c21 0 33 -15 33 -35s-23 -36 -39 -48l-135 -98h-40z" />
    <glyph glyph-name="ampersand.sc" unicode="&#xf726;" horiz-adv-x="778" 
d="M548 387l194 7c-8 -26 -12 -48 -12 -72c-46 8 -96 10 -140 12c5 -16 5 -32 5 -46c0 -65 -38 -124 -81 -170c57 -33 112 -63 169 -63c26 0 43 9 64 19l6 -25l-87 -63c-9 -7 -26 -6 -40 -6c-42 0 -137 43 -175 77c-56 -46 -126 -77 -199 -77c-128 0 -209 84 -209 193
c0 100 72 169 155 214c-18 43 -30 90 -30 130c0 41 7 74 24 89l68 60c13 12 32 23 69 23c58 0 95 -32 95 -92c0 -85 -80 -156 -144 -200c57 -94 127 -178 204 -256c29 37 48 75 48 108c0 39 -10 79 -23 84c-14 5 -52 8 -91 11l33 45c32 -1 65 -3 97 -2zM213 352
c-51 -38 -83 -79 -83 -145c0 -90 76 -171 167 -171c43 0 89 21 123 46c-76 85 -152 170 -207 270zM303 636c-59 0 -65 -44 -65 -88c0 -32 15 -86 26 -117c39 25 93 87 93 135c0 31 -18 70 -54 70z" />
    <glyph glyph-name="acute.sc" unicode="&#xf7b4;" horiz-adv-x="333" 
d="M78 531l138 138c15 15 37 33 53 33c21 0 33 -15 33 -35c0 -23 -23 -36 -40 -46l-144 -90h-40z" />
    <glyph glyph-name="question.sc" unicode="&#xf73f;" horiz-adv-x="444" 
d="M43 546l38 113c37 19 82 35 125 35c98 0 189 -53 189 -156c0 -67 -51 -118 -102 -164s-102 -86 -102 -130c0 -22 12 -37 22 -49l-21 -14c-26 15 -44 43 -44 73c0 45 39 86 77 128c39 43 77 86 77 136c0 62 -50 110 -119 110c-43 0 -78 -11 -91 -42l-20 -48zM198 -5
c-31 0 -57 28 -57 58s27 58 57 58c31 0 59 -28 59 -58s-27 -58 -59 -58z" />
    <glyph glyph-name="circumflex.sc" unicode="&#xf6f6;" horiz-adv-x="333" 
d="M136 698h62l125 -167h-35l-121 103l-121 -103h-35z" />
    <glyph glyph-name="grave.sc" unicode="&#xf760;" horiz-adv-x="333" 
d="M215 531l-144 90c-17 10 -40 23 -40 46c0 20 12 35 33 35c16 0 38 -18 53 -33l138 -138h-40z" />
    <glyph glyph-name="a.sc" unicode="&#xf761;" horiz-adv-x="611" 
d="M290 498h38l174 -395c31 -74 52 -78 90 -78v-28c-16 1 -76 3 -119 3c-42 0 -79 -2 -123 -3v28c59 0 74 8 74 27c0 22 -27 72 -40 100c-34 1 -68 2 -103 2c-33 0 -67 -1 -101 -2c-9 -21 -34 -54 -34 -91c0 -28 23 -36 74 -36v-28c-33 1 -68 3 -104 3c-30 0 -53 -2 -98 -3
v28c45 0 61 6 106 108zM285 390l-88 -196c26 -1 52 -2 81 -2c32 0 58 1 91 2z" />
    <glyph glyph-name="b.sc" unicode="&#xf762;" 
d="M198 250v-212c14 -2 24 -4 45 -4c95 0 123 65 123 114c0 68 -43 106 -132 106c-13 0 -25 -2 -36 -4zM198 450v-164c62 0 148 -1 148 85c0 61 -38 83 -101 83c-17 0 -30 -2 -47 -4zM108 107v306c0 39 -18 45 -80 45v28c34 -2 72 -2 118 -2c52 0 98 2 154 2
c95 0 140 -32 140 -97c0 -56 -44 -105 -118 -111v-2c88 -1 144 -52 144 -113c0 -111 -86 -165 -196 -165c-42 0 -88 2 -128 2c-24 0 -58 0 -84 -2v20c44 16 50 28 50 89z" />
    <glyph glyph-name="c.sc" unicode="&#xf763;" horiz-adv-x="556" 
d="M510 332h-28l-4 68c-27 32 -68 62 -151 62c-105 0 -183 -82 -183 -217c0 -115 69 -215 212 -215c68 0 113 14 160 51l12 -7l-14 -38c-30 -25 -103 -50 -196 -50c-158 0 -274 106 -274 251c0 169 127 261 295 261c53 0 137 -15 183 -36c-10 -49 -12 -104 -12 -130z" />
    <glyph glyph-name="d.sc" unicode="&#xf764;" horiz-adv-x="611" 
d="M206 377v-335c28 -2 49 -4 66 -4c142 0 194 99 194 213c0 138 -82 199 -184 199c-29 0 -59 -3 -74 -6c-1 -25 -2 -42 -2 -67zM116 113v287c0 42 -16 58 -80 58v28c42 -2 80 -2 124 -2c47 0 90 2 141 2c175 0 265 -84 265 -216c0 -103 -64 -272 -278 -272
c-42 0 -86 2 -127 2c-32 0 -64 -1 -93 -2v20c35 14 48 29 48 95z" />
    <glyph glyph-name="e.sc" unicode="&#xf765;" 
d="M116 108v282c0 66 -18 70 -93 70v27c31 -1 59 -3 94 -3c37 0 73 2 109 4s73 4 109 4c40 0 89 -3 121 -8c-6 -34 -10 -72 -12 -120h-28c-3 38 -4 59 -10 80c-39 7 -87 10 -135 10c-24 0 -45 -3 -63 -6c-3 -52 -2 -117 -2 -175c23 -1 50 -2 96 -2c48 0 56 11 56 67h30
c-1 -27 -2 -58 -2 -85c0 -31 1 -65 2 -93h-30c0 63 -8 75 -95 75c-25 0 -41 -1 -57 -2c0 -80 1 -146 4 -193c27 -2 54 -4 88 -4c44 0 88 5 112 12c10 27 17 57 22 90h26c-1 -51 -4 -97 -8 -136c-40 -4 -89 -5 -136 -5c-58 0 -107 3 -155 3c-45 0 -80 -2 -129 -3v28
c80 0 86 12 86 83z" />
    <glyph glyph-name="f.sc" unicode="&#xf766;" horiz-adv-x="444" 
d="M108 94v300c0 60 -10 65 -88 65v28c31 -1 75 -3 114 -3c31 0 62 2 92 4c31 2 62 4 91 4c47 0 82 -4 103 -8c-6 -35 -10 -72 -12 -118h-28c-2 25 -5 53 -10 78c-53 8 -119 8 -170 8c-2 -45 -2 -103 -2 -189c14 -1 42 -2 72 -2c54 0 60 5 68 67h28c-1 -20 -2 -69 -2 -89
c0 -25 1 -59 2 -87h-28c-5 71 -17 73 -69 73c-29 0 -49 -1 -71 -2v-139c0 -46 10 -59 86 -59v-28c-28 1 -98 3 -136 3c-52 0 -79 -2 -130 -3v28c78 0 90 13 90 69z" />
    <glyph glyph-name="g.sc" unicode="&#xf767;" horiz-adv-x="556" 
d="M487 350h-27l-3 48c-3 44 -81 59 -143 60c-124 2 -182 -92 -182 -212c0 -191 134 -222 186 -222c50 0 78 8 96 20c2 25 2 59 2 86c0 33 -16 38 -78 40v24c54 0 94 -2 128 -2c28 0 49 1 62 2v-24l-27 -14c0 -56 1 -105 3 -132c-75 -28 -144 -38 -205 -38
c-156 0 -271 116 -271 250s112 261 290 261c74 0 134 -18 187 -33z" />
    <glyph glyph-name="h.sc" unicode="&#xf768;" horiz-adv-x="667" 
d="M118 92v306c0 59 -14 61 -94 61v28c41 -1 94 -3 133 -3c46 0 85 2 137 3v-28c-75 0 -86 -2 -86 -61v-121c40 -1 82 -2 129 -2s89 1 129 2v121c0 59 -11 61 -86 61v28c52 -1 91 -3 137 -3c39 0 92 2 133 3v-28c-80 0 -94 -2 -94 -61v-306c0 -56 12 -67 90 -67v-28
c-42 1 -84 3 -126 3c-47 0 -95 -2 -140 -3v28c72 0 86 5 86 67v149c-40 1 -82 2 -129 2s-89 -1 -129 -2v-149c0 -62 14 -67 86 -67v-28c-45 1 -93 3 -140 3c-42 0 -84 -2 -126 -3v28c78 0 90 11 90 67z" />
    <glyph glyph-name="i.sc" unicode="&#xf769;" horiz-adv-x="333" 
d="M120 92v312c0 53 -24 55 -90 55v28c36 -1 80 -3 132 -3c48 0 83 2 138 3v-28c-74 0 -90 -1 -90 -55v-312c0 -60 8 -67 90 -67v-28c-44 1 -88 3 -133 3c-46 0 -91 -2 -137 -3v28c74 0 90 7 90 67z" />
    <glyph glyph-name="j.sc" unicode="&#xf76a;" horiz-adv-x="333" 
d="M124 -24v415c0 62 -14 68 -92 68v28c21 -1 88 -3 132 -3c42 0 91 2 136 3v-28c-78 0 -86 -4 -86 -93v-299c0 -152 -86 -214 -188 -214h-14c1 10 2 19 2 33s-1 26 -2 33l9 3c23 -24 37 -25 53 -25c35 0 50 25 50 79z" />
    <glyph glyph-name="k.sc" unicode="&#xf76b;" horiz-adv-x="556" 
d="M292 487v-28c-78 0 -86 -1 -86 -57v-143l6 -1c72 74 136 132 190 200v29c29 0 48 -1 72 -1c17 0 38 1 60 1v-27c-41 0 -55 -4 -84 -30l-158 -146l209 -225c19 -20 30 -34 51 -34v-28c-18 0 -36 1 -54 1c-22 0 -44 -1 -66 -1l-216 243l-10 -4v-154c0 -52 12 -57 88 -57
v-28c-43 1 -88 3 -132 3s-89 -2 -134 -3v28c72 0 88 5 88 67v300c0 64 -14 67 -88 67v28c55 -1 88 -3 128 -3c52 0 88 2 136 3z" />
    <glyph glyph-name="l.sc" unicode="&#xf76c;" 
d="M110 104v308c0 46 -16 47 -90 47v28c46 -1 82 -3 128 -3c34 0 83 2 138 3v-28c-64 0 -86 -1 -86 -62v-265c0 -34 1 -61 4 -93c20 -1 40 -2 68 -2c62 0 118 4 146 14l20 81h30c-9 -43 -14 -85 -17 -132c-33 -2 -79 -3 -123 -3c-96 0 -125 3 -172 3c-42 0 -69 -2 -104 -3
v28c44 7 58 13 58 79z" />
    <glyph glyph-name="m.sc" unicode="&#xf76d;" horiz-adv-x="778" 
d="M374 -12h-18l-190 410h-2v-318c0 -48 18 -55 86 -55v-28c-37 1 -75 3 -112 3c-34 0 -69 -2 -104 -3v28c68 0 90 5 90 65v312c0 48 -26 57 -90 57v28c34 -1 67 -3 101 -3c30 0 61 2 91 3c32 -83 103 -230 165 -365c79 172 124 262 167 365c24 -1 52 -3 76 -3
c34 0 72 2 104 3v-28c-60 0 -82 -3 -82 -65v-312c0 -48 18 -57 82 -57v-28c-38 1 -78 3 -124 3c-50 0 -83 -2 -130 -3v28c70 0 82 11 82 51v338h-2z" />
    <glyph glyph-name="n.sc" unicode="&#xf76e;" horiz-adv-x="667" 
d="M116 86v331c0 32 -21 41 -88 42v28c26 -1 50 -3 82 -3c26 0 57 2 84 3c102 -133 213 -260 316 -391h2v312c0 46 -29 51 -92 51v28c41 -1 80 -3 112 -3c38 0 74 2 112 3v-28c-76 0 -92 -7 -92 -77v-290c0 -40 4 -73 6 -106l-80 10l-320 388h-2v-304c0 -50 10 -55 86 -55
v-28c-37 1 -75 3 -113 3c-35 0 -71 -2 -105 -3v28c77 0 92 11 92 61z" />
    <glyph glyph-name="o.sc" unicode="&#xf76f;" horiz-adv-x="611" 
d="M313 498c172 0 257 -116 257 -239c0 -135 -102 -273 -272 -273c-120 0 -258 90 -258 250c0 172 128 262 273 262zM294 464c-86 0 -154 -72 -154 -198c0 -110 42 -240 182 -240c118 0 148 114 148 210c0 124 -52 228 -176 228z" />
    <glyph glyph-name="p.sc" unicode="&#xf770;" 
d="M114 86v314c0 52 -8 59 -90 59v28c28 -1 82 -3 123 -3c26 0 50 2 75 4s51 4 77 4c135 0 169 -52 169 -120c0 -67 -56 -146 -176 -146c-18 0 -35 4 -44 8l-6 30c8 -5 20 -8 32 -8c70 0 100 42 100 104c0 60 -48 98 -108 98c-26 0 -45 -7 -62 -12v-360c0 -46 12 -57 88 -61
v-28c-24 1 -59 3 -132 3c-45 0 -90 -2 -136 -3v28c72 0 90 15 90 61z" />
    <glyph glyph-name="q.sc" unicode="&#xf771;" horiz-adv-x="611" 
d="M216 -97v24c43 36 79 55 96 57v3c-5 -1 -9 -1 -14 -1c-120 0 -258 90 -258 250c0 172 128 262 273 262c172 0 257 -116 257 -239c0 -127 -90 -257 -242 -271v-2c18 0 53 -18 93 -34c33 -13 52 -26 95 -26c16 0 38 1 44 8v-22c-28 -18 -43 -31 -68 -50
c-50 6 -79 14 -122 33c-31 14 -66 27 -92 27c-22 0 -38 -7 -62 -19zM294 464c-86 0 -154 -72 -154 -198c0 -110 42 -240 182 -240c118 0 148 114 148 210c0 124 -52 228 -176 228z" />
    <glyph glyph-name="r.sc" unicode="&#xf772;" horiz-adv-x="556" 
d="M24 -3v28c72 0 90 2 90 61v314c0 52 -8 59 -90 59v28c43 0 84 -3 132 -3c52 0 110 3 163 3c89 0 155 -25 155 -108c0 -93 -86 -117 -134 -135l153 -187c20 -24 28 -32 59 -32v-25h-124l-200 242l4 16c11 -1 22 -2 36 -2c60 0 106 44 106 104c0 65 -34 94 -106 94
c-22 0 -46 -2 -64 -10v-370c0 -47 12 -49 88 -49v-28c-24 1 -59 3 -132 3c-45 0 -90 -2 -136 -3z" />
    <glyph glyph-name="s.sc" unicode="&#xf773;" horiz-adv-x="444" 
d="M362 364h-28c-1 48 -7 64 -20 74c-23 17 -44 24 -83 24c-64 0 -107 -38 -107 -93c0 -157 276 -2 276 -207c0 -98 -90 -176 -219 -176c-65 0 -100 11 -135 28c5 35 6 58 6 114h28c0 -75 33 -106 112 -106c62 0 124 32 124 112c0 153 -272 -8 -272 203
c0 101 84 161 191 161c75 0 113 -22 135 -34c-7 -36 -8 -62 -8 -100z" />
    <glyph glyph-name="t.sc" unicode="&#xf774;" 
d="M116 -3v28c70 0 86 7 86 55v366h-52c-87 0 -96 -12 -98 -50l-2 -40h-28l-4 131c48 -3 120 -3 228 -3s180 0 228 3l-4 -131h-28l-2 40c-2 38 -11 50 -98 50h-50v-366c0 -44 14 -55 84 -55v-28c-41 1 -82 3 -124 3c-45 0 -91 -2 -136 -3z" />
    <glyph glyph-name="u.sc" unicode="&#xf775;" horiz-adv-x="611" 
d="M194 419v-242c0 -86 32 -139 135 -139c87 0 136 39 136 141v216c0 55 -7 64 -85 64v28c36 -1 72 -3 107 -3c44 0 77 2 103 3v-28c-72 0 -85 -7 -85 -60v-215c0 -103 -29 -198 -197 -198c-166 0 -204 68 -204 189v234c0 45 -26 50 -84 50v28c43 -1 86 -3 128 -3
c32 0 64 2 122 3v-26c-64 -2 -76 -13 -76 -42z" />
    <glyph glyph-name="v.sc" unicode="&#xf776;" horiz-adv-x="556" 
d="M306 -8h-50l-169 422c-15 39 -29 45 -75 45v28c50 -1 80 -3 108 -3c36 0 84 2 134 3v-28c-58 0 -76 -1 -76 -24c0 -11 14 -40 26 -69l104 -261l109 282c6 15 11 28 11 42c0 24 -23 30 -72 30v28c34 -1 64 -3 103 -3c23 0 49 2 83 3v-28c-50 0 -56 -15 -79 -74z" />
    <glyph glyph-name="w.sc" unicode="&#xf777;" horiz-adv-x="778" 
d="M388 488h38l139 -375h2l72 248c6 22 13 45 13 65s-18 33 -74 33v28c36 -1 66 -3 96 -3c36 0 65 2 88 3v-28c-49 -3 -53 -11 -67 -59l-121 -408h-58l-130 359h-2l-124 -359h-56l-108 384c-19 67 -34 83 -84 83v28c28 -1 65 -3 115 -3c31 0 74 2 121 3v-28
c-57 0 -76 -1 -76 -26c0 -10 4 -23 7 -33l78 -287h2z" />
    <glyph glyph-name="x.sc" unicode="&#xf778;" 
d="M28 442v32c46 4 93 8 138 19c18 -23 26 -38 43 -68l61 -107l110 166h94v-28c-43 0 -51 -11 -75 -42l-105 -138l118 -206c20 -35 31 -39 72 -44v-28c-29 1 -50 2 -65 2c-21 0 -45 -1 -73 -2l-108 202c-50 -72 -90 -140 -126 -202c-14 1 -30 2 -45 2c-21 0 -35 -1 -51 -2
v28c47 2 57 14 81 48l117 166l-79 137c-37 65 -52 69 -80 69c-10 0 -18 -2 -27 -4z" />
    <glyph glyph-name="y.sc" unicode="&#xf779;" 
d="M124 -3v28c74 0 88 15 88 48v131c-45 81 -82 141 -109 179c-42 59 -53 65 -89 65v28c31 5 75 9 103 17c26 -9 52 -36 75 -79l90 -166c22 39 94 167 130 236h68v-14c-59 -67 -122 -173 -178 -272v-103c0 -68 26 -70 86 -70v-28c-44 1 -96 3 -132 3c-52 0 -88 -2 -132 -3z
" />
    <glyph glyph-name="z.sc" unicode="&#xf77a;" 
d="M20 0v24l330 422c-31 1 -77 2 -120 2c-129 0 -138 1 -142 -58l-2 -22l-28 -4c1 20 2 40 2 63c0 20 0 41 -2 60c35 -1 154 -3 256 -3c84 0 129 2 160 3v-29l-335 -422c18 -1 43 -2 71 -2c52 0 98 1 166 4c63 3 65 21 70 94h31c-6 -44 -6 -89 -9 -132
c-55 -3 -114 -3 -184 -3c-82 0 -223 0 -264 3z" />
    <glyph glyph-name="tilde.sc" unicode="&#xf6fe;" horiz-adv-x="333" 
d="M303 665h29c0 -15 -8 -41 -26 -64c-17 -22 -43 -41 -80 -41c-41 0 -57 14 -93 30c-13 6 -33 15 -49 15c-27 0 -44 -21 -53 -45h-29c10 58 48 100 109 100c27 0 53 -14 76 -25c17 -8 41 -22 60 -20c34 4 44 20 56 50z" />
    <glyph glyph-name="exclamdown.sc" unicode="&#xf7a1;" horiz-adv-x="278" 
d="M115 -225h-34v25c0 48 8 95 12 143l24 278v25l28 23l10 -5c0 -14 0 -27 2 -40l26 -305c3 -35 5 -71 7 -106zM138 353c-31 0 -57 28 -57 58s27 58 57 58c31 0 59 -28 59 -58s-27 -58 -59 -58z" />
    <glyph glyph-name="lslash.sc" unicode="&#xf6f9;" 
d="M48 154v44l62 38v176c0 46 -16 47 -90 47v28c46 -1 82 -3 128 -3c34 0 83 2 138 3v-28c-64 0 -86 -1 -86 -62v-106l114 69v-44l-114 -69v-115c0 -34 1 -61 4 -93c20 -1 40 -2 68 -2c62 0 118 4 146 14l20 81h30c-9 -43 -14 -85 -17 -132c-33 -2 -79 -3 -123 -3
c-96 0 -125 3 -172 3c-42 0 -69 -2 -104 -3v28c44 7 58 13 58 79v88z" />
    <glyph glyph-name="scaron.sc" unicode="&#xf6fd;" horiz-adv-x="444" 
d="M362 364h-28c-1 48 -7 64 -20 74c-23 17 -44 24 -83 24c-64 0 -107 -38 -107 -93c0 -157 276 -2 276 -207c0 -98 -90 -176 -219 -176c-65 0 -100 11 -135 28c5 35 6 58 6 114h28c0 -75 33 -106 112 -106c62 0 124 32 124 112c0 153 -272 -8 -272 203
c0 101 84 161 191 161c75 0 113 -22 135 -34c-7 -36 -8 -62 -8 -100zM223 603l122 103h34l-125 -167h-62l-125 167h35z" />
    <glyph glyph-name="zcaron.sc" unicode="&#xf6ff;" 
d="M20 0v24l330 422c-31 1 -77 2 -120 2c-129 0 -138 1 -142 -58l-2 -22l-28 -4c1 20 2 40 2 63c0 20 0 41 -2 60c35 -1 154 -3 256 -3c84 0 129 2 160 3v-29l-335 -422c18 -1 43 -2 71 -2c52 0 98 1 166 4c63 3 65 21 70 94h31c-6 -44 -6 -89 -9 -132
c-55 -3 -114 -3 -184 -3c-82 0 -223 0 -264 3zM251 603l122 103h34l-125 -167h-62l-125 167h35z" />
    <glyph glyph-name="dieresis.sc" unicode="&#xf7a8;" horiz-adv-x="333" 
d="M67 662c30 0 50 -20 50 -50s-20 -50 -50 -50s-50 20 -50 50s20 50 50 50zM266 662c30 0 50 -20 50 -50s-20 -50 -50 -50s-50 20 -50 50s20 50 50 50z" />
    <glyph glyph-name="breve.sc" unicode="&#xf6f4;" horiz-adv-x="333" 
d="M26 689h30c0 -61 59 -98 111 -98s111 37 111 98h30c0 -85 -49 -158 -141 -158s-141 73 -141 158z" />
    <glyph glyph-name="caron.sc" unicode="&#xf6f5;" horiz-adv-x="333" 
d="M167 595l122 103h34l-125 -167h-62l-125 167h35z" />
    <glyph glyph-name="dotaccent.sc" unicode="&#xf6f7;" horiz-adv-x="250" 
d="M125 662c30 0 50 -20 50 -50s-20 -50 -50 -50s-50 20 -50 50s20 50 50 50z" />
    <glyph glyph-name="macron.sc" unicode="&#xf7af;" horiz-adv-x="333" 
d="M323 563h-312v53h312v-53z" />
    <glyph glyph-name="ogonek.sc" unicode="&#xf6fb;" horiz-adv-x="313" 
d="M229 -88l16 -21c-33 -30 -70 -56 -113 -56c-36 0 -64 28 -64 65c0 31 23 64 50 80h37c-18 -14 -40 -39 -40 -63c0 -23 18 -41 41 -41c25 0 55 18 73 36z" />
    <glyph glyph-name="ring.sc" unicode="&#xf6fc;" horiz-adv-x="333" 
d="M167 721c55 0 101 -45 100 -100c1 -55 -45 -100 -100 -100s-101 45 -100 100c-1 55 45 100 100 100zM167 685c-37 0 -62 -25 -62 -64s25 -64 62 -64s62 25 62 64s-25 64 -62 64z" />
    <glyph glyph-name="cedilla.sc" unicode="&#xf7b8;" horiz-adv-x="333" 
d="M141 -108l42 98h34l-25 -65c9 3 19 4 29 4c44 0 83 -23 83 -70c0 -65 -69 -84 -122 -84c-36 0 -50 5 -86 16l14 31c18 -5 42 -11 61 -11c34 0 58 8 58 46c0 23 -21 36 -40 36c-15 0 -27 -3 -41 -7z" />
    <glyph glyph-name="questiondown.sc" unicode="&#xf7bf;" horiz-adv-x="444" 
d="M395 -83l-38 -113c-37 -19 -82 -35 -125 -35c-98 0 -189 53 -189 156c0 67 51 118 102 164s102 86 102 130c0 22 -12 37 -22 49l21 14c26 -15 44 -43 44 -73c0 -45 -39 -86 -77 -128c-39 -43 -77 -86 -77 -136c0 -62 50 -110 119 -110c43 0 78 11 91 42l20 48zM241 353
c-31 0 -57 28 -57 58s27 58 57 58c31 0 59 -28 59 -58s-27 -58 -59 -58z" />
    <glyph glyph-name="one.superior" unicode="&#xb9;" horiz-adv-x="300" 
d="M130 379v238c0 9 0 19 -5 19h-2l-81 -34h-7l-4 32c49 17 103 38 161 58l10 -3c-2 -28 -8 -115 -8 -204v-106c0 -68 6 -80 42 -80h33v-26c-57 1 -85 3 -112 3s-55 -2 -106 -3v26h36c36 0 43 12 43 80z" />
    <glyph glyph-name="two.superior" unicode="&#xb2;" horiz-adv-x="300" 
d="M200 438l-115 -109h122c33 0 69 2 94 5c-1 -12 -1 -23 -1 -33s0 -19 1 -28c-57 1 -105 3 -155 3c-49 0 -97 -2 -146 -3v20l108 104c87 84 100 121 100 161c0 49 -29 82 -83 82c-37 0 -60 -12 -73 -47l-13 -35h-24c5 34 8 62 12 89c28 30 68 42 110 42
c95 0 139 -53 139 -112c0 -50 -26 -91 -76 -139z" />
    <glyph glyph-name="three.superior" unicode="&#xb3;" horiz-adv-x="300" 
d="M27 578l19 71c28 29 63 40 105 40c73 0 120 -35 120 -91c0 -37 -33 -71 -72 -97c64 -8 100 -36 100 -92c0 -83 -87 -143 -184 -143c-22 0 -58 7 -88 16c-2 25 -14 55 -26 94l31 8c19 -65 56 -86 111 -86c53 0 90 40 90 92s-29 81 -81 81c-22 0 -39 -3 -53 -13l-10 4
l10 43c13 0 22 -1 32 -1c47 0 80 40 80 76c0 34 -31 63 -72 63c-47 0 -80 -28 -87 -65h-25z" />
    <glyph glyph-name="agrave.sc" unicode="&#xf7e0;" horiz-adv-x="611" 
d="M290 498h38l174 -395c31 -74 52 -78 90 -78v-28c-16 1 -76 3 -119 3c-42 0 -79 -2 -123 -3v28c59 0 74 8 74 27c0 22 -27 72 -40 100c-34 1 -68 2 -103 2c-33 0 -67 -1 -101 -2c-9 -21 -34 -54 -34 -91c0 -28 23 -36 74 -36v-28c-33 1 -68 3 -104 3c-30 0 -53 -2 -98 -3
v28c45 0 61 6 106 108zM285 390l-88 -196c26 -1 52 -2 81 -2c32 0 58 1 91 2zM330 551l-144 90c-17 10 -40 23 -40 46c0 20 12 35 33 35c16 0 38 -18 53 -33l138 -138h-40z" />
    <glyph glyph-name="aacute.sc" unicode="&#xf7e1;" horiz-adv-x="611" 
d="M290 498h38l174 -395c31 -74 52 -78 90 -78v-28c-16 1 -76 3 -119 3c-42 0 -79 -2 -123 -3v28c59 0 74 8 74 27c0 22 -27 72 -40 100c-34 1 -68 2 -103 2c-33 0 -67 -1 -101 -2c-9 -21 -34 -54 -34 -91c0 -28 23 -36 74 -36v-28c-33 1 -68 3 -104 3c-30 0 -53 -2 -98 -3
v28c45 0 61 6 106 108zM285 390l-88 -196c26 -1 52 -2 81 -2c32 0 58 1 91 2zM217 551l138 138c15 15 37 33 53 33c21 0 33 -15 33 -35c0 -23 -23 -36 -40 -46l-144 -90h-40z" />
    <glyph glyph-name="acircumflex.sc" unicode="&#xf7e2;" horiz-adv-x="611" 
d="M290 498h38l174 -395c31 -74 52 -78 90 -78v-28c-16 1 -76 3 -119 3c-42 0 -79 -2 -123 -3v28c59 0 74 8 74 27c0 22 -27 72 -40 100c-34 1 -68 2 -103 2c-33 0 -67 -1 -101 -2c-9 -21 -34 -54 -34 -91c0 -28 23 -36 74 -36v-28c-33 1 -68 3 -104 3c-30 0 -53 -2 -98 -3
v28c45 0 61 6 106 108zM285 390l-88 -196c26 -1 52 -2 81 -2c32 0 58 1 91 2zM263 718h62l125 -167h-35l-121 103l-121 -103h-35z" />
    <glyph glyph-name="atilde.sc" unicode="&#xf7e3;" horiz-adv-x="611" 
d="M290 498h38l174 -395c31 -74 52 -78 90 -78v-28c-16 1 -76 3 -119 3c-42 0 -79 -2 -123 -3v28c59 0 74 8 74 27c0 22 -27 72 -40 100c-34 1 -68 2 -103 2c-33 0 -67 -1 -101 -2c-9 -21 -34 -54 -34 -91c0 -28 23 -36 74 -36v-28c-33 1 -68 3 -104 3c-30 0 -53 -2 -98 -3
v28c45 0 61 6 106 108zM285 390l-88 -196c26 -1 52 -2 81 -2c32 0 58 1 91 2zM430 677h29c0 -15 -8 -41 -26 -64c-17 -22 -43 -41 -80 -41c-41 0 -57 14 -93 30c-13 6 -33 15 -49 15c-27 0 -44 -21 -53 -45h-29c10 58 48 100 109 100c27 0 53 -14 76 -25
c17 -8 41 -22 60 -20c34 4 44 20 56 50z" />
    <glyph glyph-name="adieresis.sc" unicode="&#xf7e4;" horiz-adv-x="611" 
d="M290 498h38l174 -395c31 -74 52 -78 90 -78v-28c-16 1 -76 3 -119 3c-42 0 -79 -2 -123 -3v28c59 0 74 8 74 27c0 22 -27 72 -40 100c-34 1 -68 2 -103 2c-33 0 -67 -1 -101 -2c-9 -21 -34 -54 -34 -91c0 -28 23 -36 74 -36v-28c-33 1 -68 3 -104 3c-30 0 -53 -2 -98 -3
v28c45 0 61 6 106 108zM285 390l-88 -196c26 -1 52 -2 81 -2c32 0 58 1 91 2zM194 682c30 0 50 -20 50 -50s-20 -50 -50 -50s-50 20 -50 50s20 50 50 50zM393 682c30 0 50 -20 50 -50s-20 -50 -50 -50s-50 20 -50 50s20 50 50 50z" />
    <glyph glyph-name="aring.sc" unicode="&#xf7e5;" horiz-adv-x="611" 
d="M290 498h38l174 -395c31 -74 52 -78 90 -78v-28c-16 1 -76 3 -119 3c-42 0 -79 -2 -123 -3v28c59 0 74 8 74 27c0 22 -27 72 -40 100c-34 1 -68 2 -103 2c-33 0 -67 -1 -101 -2c-9 -21 -34 -54 -34 -91c0 -28 23 -36 74 -36v-28c-33 1 -68 3 -104 3c-30 0 -53 -2 -98 -3
v28c45 0 61 6 106 108zM285 390l-88 -196c26 -1 52 -2 81 -2c32 0 58 1 91 2zM294 741c55 0 101 -45 100 -100c1 -55 -45 -100 -100 -100s-101 45 -100 100c-1 55 45 100 100 100zM294 705c-37 0 -62 -25 -62 -64s25 -64 62 -64s62 25 62 64s-25 64 -62 64z" />
    <glyph glyph-name="ae.sc" unicode="&#xf7e6;" horiz-adv-x="778" 
d="M200 456v28c57 -1 115 -4 170 -4c42 0 78 2 115 4c36 2 72 4 114 4c61 0 103 -4 128 -8l-9 -118h-26l-12 76c-46 6 -104 10 -137 10c-18 0 -45 -2 -63 -6c-1 -57 -1 -113 -2 -171c30 0 66 -1 106 -1c39 0 50 16 51 68h30c-2 -28 -5 -50 -5 -75c0 -34 3 -67 5 -101h-30
c-2 71 -20 72 -96 72c-21 0 -42 -1 -61 -2c1 -64 3 -126 4 -188c18 -3 49 -6 75 -6c47 0 97 4 129 14l20 88h30l-12 -136c-42 -3 -84 -4 -135 -4c-88 0 -131 4 -156 4c-34 0 -54 -2 -89 -4v22l42 18c2 17 4 90 4 130c-26 1 -68 2 -99 2c-35 0 -70 -1 -90 -2
c-18 -35 -53 -90 -53 -114s31 -28 76 -28v-28c-39 2 -78 4 -118 4c-26 0 -55 -2 -98 -4v28c62 0 81 27 131 118l124 226c15 26 29 49 29 62c0 20 -27 22 -92 22zM221 210h171c1 14 2 39 2 61c0 157 -5 183 -20 183c-20 0 -89 -130 -125 -194z" />
    <glyph glyph-name="ccedilla.sc" unicode="&#xf7e7;" horiz-adv-x="556" 
d="M253 -108l42 96c-147 9 -251 112 -251 249c0 169 127 261 295 261c53 0 137 -15 183 -36c-10 -49 -12 -104 -12 -130h-28l-4 68c-27 32 -68 62 -151 62c-105 0 -183 -82 -183 -217c0 -115 69 -215 212 -215c68 0 113 14 160 51l12 -7l-14 -38c-29 -24 -98 -48 -185 -49
l-25 -62c9 3 19 4 29 4c44 0 83 -23 83 -70c0 -65 -69 -84 -122 -84c-36 0 -50 5 -86 16l14 31c18 -5 42 -11 61 -11c34 0 58 8 58 46c0 23 -21 36 -40 36c-15 0 -27 -3 -41 -7z" />
    <glyph glyph-name="egrave.sc" unicode="&#xf7e8;" 
d="M116 108v282c0 66 -18 70 -93 70v27c31 -1 59 -3 94 -3c37 0 73 2 109 4s73 4 109 4c40 0 89 -3 121 -8c-6 -34 -10 -72 -12 -120h-28c-3 38 -4 59 -10 80c-39 7 -87 10 -135 10c-24 0 -45 -3 -63 -6c-3 -52 -2 -117 -2 -175c23 -1 50 -2 96 -2c48 0 56 11 56 67h30
c-1 -27 -2 -58 -2 -85c0 -31 1 -65 2 -93h-30c0 63 -8 75 -95 75c-25 0 -41 -1 -57 -2c0 -80 1 -146 4 -193c27 -2 54 -4 88 -4c44 0 88 5 112 12c10 27 17 57 22 90h26c-1 -51 -4 -97 -8 -136c-40 -4 -89 -5 -136 -5c-58 0 -107 3 -155 3c-45 0 -80 -2 -129 -3v28
c80 0 86 12 86 83zM299 551l-144 90c-17 10 -40 23 -40 46c0 20 12 35 33 35c16 0 38 -18 53 -33l138 -138h-40z" />
    <glyph glyph-name="eacute.sc" unicode="&#xf7e9;" 
d="M116 108v282c0 66 -18 70 -93 70v27c31 -1 59 -3 94 -3c37 0 73 2 109 4s73 4 109 4c40 0 89 -3 121 -8c-6 -34 -10 -72 -12 -120h-28c-3 38 -4 59 -10 80c-39 7 -87 10 -135 10c-24 0 -45 -3 -63 -6c-3 -52 -2 -117 -2 -175c23 -1 50 -2 96 -2c48 0 56 11 56 67h30
c-1 -27 -2 -58 -2 -85c0 -31 1 -65 2 -93h-30c0 63 -8 75 -95 75c-25 0 -41 -1 -57 -2c0 -80 1 -146 4 -193c27 -2 54 -4 88 -4c44 0 88 5 112 12c10 27 17 57 22 90h26c-1 -51 -4 -97 -8 -136c-40 -4 -89 -5 -136 -5c-58 0 -107 3 -155 3c-45 0 -80 -2 -129 -3v28
c80 0 86 12 86 83zM186 551l138 138c15 15 37 33 53 33c21 0 33 -15 33 -35c0 -23 -23 -36 -40 -46l-144 -90h-40z" />
    <glyph glyph-name="ecircumflex.sc" unicode="&#xf7ea;" 
d="M116 108v282c0 66 -18 70 -93 70v27c31 -1 59 -3 94 -3c37 0 73 2 109 4s73 4 109 4c40 0 89 -3 121 -8c-6 -34 -10 -72 -12 -120h-28c-3 38 -4 59 -10 80c-39 7 -87 10 -135 10c-24 0 -45 -3 -63 -6c-3 -52 -2 -117 -2 -175c23 -1 50 -2 96 -2c48 0 56 11 56 67h30
c-1 -27 -2 -58 -2 -85c0 -31 1 -65 2 -93h-30c0 63 -8 75 -95 75c-25 0 -41 -1 -57 -2c0 -80 1 -146 4 -193c27 -2 54 -4 88 -4c44 0 88 5 112 12c10 27 17 57 22 90h26c-1 -51 -4 -97 -8 -136c-40 -4 -89 -5 -136 -5c-58 0 -107 3 -155 3c-45 0 -80 -2 -129 -3v28
c80 0 86 12 86 83zM232 718h62l125 -167h-35l-121 103l-121 -103h-35z" />
    <glyph glyph-name="edieresis.sc" unicode="&#xf7eb;" 
d="M116 108v282c0 66 -18 70 -93 70v27c31 -1 59 -3 94 -3c37 0 73 2 109 4s73 4 109 4c40 0 89 -3 121 -8c-6 -34 -10 -72 -12 -120h-28c-3 38 -4 59 -10 80c-39 7 -87 10 -135 10c-24 0 -45 -3 -63 -6c-3 -52 -2 -117 -2 -175c23 -1 50 -2 96 -2c48 0 56 11 56 67h30
c-1 -27 -2 -58 -2 -85c0 -31 1 -65 2 -93h-30c0 63 -8 75 -95 75c-25 0 -41 -1 -57 -2c0 -80 1 -146 4 -193c27 -2 54 -4 88 -4c44 0 88 5 112 12c10 27 17 57 22 90h26c-1 -51 -4 -97 -8 -136c-40 -4 -89 -5 -136 -5c-58 0 -107 3 -155 3c-45 0 -80 -2 -129 -3v28
c80 0 86 12 86 83zM151 682c30 0 50 -20 50 -50s-20 -50 -50 -50s-50 20 -50 50s20 50 50 50zM350 682c30 0 50 -20 50 -50s-20 -50 -50 -50s-50 20 -50 50s20 50 50 50z" />
    <glyph glyph-name="igrave.sc" unicode="&#xf7ec;" horiz-adv-x="333" 
d="M120 92v312c0 53 -24 55 -90 55v28c36 -1 80 -3 132 -3c48 0 83 2 138 3v-28c-74 0 -90 -1 -90 -55v-312c0 -60 8 -67 90 -67v-28c-44 1 -88 3 -133 3c-46 0 -91 -2 -137 -3v28c74 0 90 7 90 67zM227 551l-144 90c-17 10 -40 23 -40 46c0 20 12 35 33 35
c16 0 38 -18 53 -33l138 -138h-40z" />
    <glyph glyph-name="iacute.sc" unicode="&#xf7ed;" horiz-adv-x="333" 
d="M120 92v312c0 53 -24 55 -90 55v28c36 -1 80 -3 132 -3c48 0 83 2 138 3v-28c-74 0 -90 -1 -90 -55v-312c0 -60 8 -67 90 -67v-28c-44 1 -88 3 -133 3c-46 0 -91 -2 -137 -3v28c74 0 90 7 90 67zM90 551l138 138c15 15 37 33 53 33c21 0 33 -15 33 -35
c0 -23 -23 -36 -40 -46l-144 -90h-40z" />
    <glyph glyph-name="icircumflex.sc" unicode="&#xf7ee;" horiz-adv-x="333" 
d="M120 92v312c0 53 -24 55 -90 55v28c36 -1 80 -3 132 -3c48 0 83 2 138 3v-28c-74 0 -90 -1 -90 -55v-312c0 -60 8 -67 90 -67v-28c-44 1 -88 3 -133 3c-46 0 -91 -2 -137 -3v28c74 0 90 7 90 67zM148 718h62l125 -167h-35l-121 103l-121 -103h-35z" />
    <glyph glyph-name="idieresis.sc" unicode="&#xf7ef;" horiz-adv-x="333" 
d="M120 92v312c0 53 -24 55 -90 55v28c36 -1 80 -3 132 -3c48 0 83 2 138 3v-28c-74 0 -90 -1 -90 -55v-312c0 -60 8 -67 90 -67v-28c-44 1 -88 3 -133 3c-46 0 -91 -2 -137 -3v28c74 0 90 7 90 67zM79 682c30 0 50 -20 50 -50s-20 -50 -50 -50s-50 20 -50 50s20 50 50 50z
M278 682c30 0 50 -20 50 -50s-20 -50 -50 -50s-50 20 -50 50s20 50 50 50z" />
    <glyph glyph-name="eth.sc" unicode="&#xf7f0;" horiz-adv-x="611" 
d="M206 236v-194c28 -2 49 -4 66 -4c142 0 194 99 194 213c0 138 -82 199 -184 199c-29 0 -59 -3 -74 -6c-1 -25 -2 -42 -2 -67v-101h130v-40h-130zM116 113v123h-80v40h80v124c0 42 -16 58 -80 58v28c42 -2 80 -2 124 -2c47 0 90 2 141 2c175 0 265 -84 265 -216
c0 -103 -64 -272 -278 -272c-42 0 -86 2 -127 2c-32 0 -64 -1 -93 -2v20c35 14 48 29 48 95z" />
    <glyph glyph-name="ntilde.sc" unicode="&#xf7f1;" horiz-adv-x="667" 
d="M116 86v331c0 32 -21 41 -88 42v28c26 -1 50 -3 82 -3c26 0 57 2 84 3c102 -133 213 -260 316 -391h2v312c0 46 -29 51 -92 51v28c41 -1 80 -3 112 -3c38 0 74 2 112 3v-28c-76 0 -92 -7 -92 -77v-290c0 -40 4 -73 6 -106l-80 10l-320 388h-2v-304c0 -50 10 -55 86 -55
v-28c-37 1 -75 3 -113 3c-35 0 -71 -2 -105 -3v28c77 0 92 11 92 61zM458 677h29c0 -15 -8 -41 -26 -64c-17 -22 -43 -41 -80 -41c-41 0 -57 14 -93 30c-13 6 -33 15 -49 15c-27 0 -44 -21 -53 -45h-29c10 58 48 100 109 100c27 0 53 -14 76 -25c17 -8 41 -22 60 -20
c34 4 44 20 56 50z" />
    <glyph glyph-name="ograve.sc" unicode="&#xf7f2;" horiz-adv-x="611" 
d="M313 498c172 0 257 -116 257 -239c0 -135 -102 -273 -272 -273c-120 0 -258 90 -258 250c0 172 128 262 273 262zM294 464c-86 0 -154 -72 -154 -198c0 -110 42 -240 182 -240c118 0 148 114 148 210c0 124 -52 228 -176 228zM342 551l-144 90c-17 10 -40 23 -40 46
c0 20 12 35 33 35c16 0 38 -18 53 -33l138 -138h-40z" />
    <glyph glyph-name="oacute.sc" unicode="&#xf7f3;" horiz-adv-x="611" 
d="M313 498c172 0 257 -116 257 -239c0 -135 -102 -273 -272 -273c-120 0 -258 90 -258 250c0 172 128 262 273 262zM294 464c-86 0 -154 -72 -154 -198c0 -110 42 -240 182 -240c118 0 148 114 148 210c0 124 -52 228 -176 228zM217 551l138 138c15 15 37 33 53 33
c21 0 33 -15 33 -35c0 -23 -23 -36 -40 -46l-144 -90h-40z" />
    <glyph glyph-name="ocircumflex.sc" unicode="&#xf7f4;" horiz-adv-x="611" 
d="M313 498c172 0 257 -116 257 -239c0 -135 -102 -273 -272 -273c-120 0 -258 90 -258 250c0 172 128 262 273 262zM294 464c-86 0 -154 -72 -154 -198c0 -110 42 -240 182 -240c118 0 148 114 148 210c0 124 -52 228 -176 228zM275 718h62l125 -167h-35l-121 103
l-121 -103h-35z" />
    <glyph glyph-name="otilde.sc" unicode="&#xf7f5;" horiz-adv-x="611" 
d="M313 498c172 0 257 -116 257 -239c0 -135 -102 -273 -272 -273c-120 0 -258 90 -258 250c0 172 128 262 273 262zM294 464c-86 0 -154 -72 -154 -198c0 -110 42 -240 182 -240c118 0 148 114 148 210c0 124 -52 228 -176 228zM442 677h29c0 -15 -8 -41 -26 -64
c-17 -22 -43 -41 -80 -41c-41 0 -57 14 -93 30c-13 6 -33 15 -49 15c-27 0 -44 -21 -53 -45h-29c10 58 48 100 109 100c27 0 53 -14 76 -25c17 -8 41 -22 60 -20c34 4 44 20 56 50z" />
    <glyph glyph-name="odieresis.sc" unicode="&#xf7f6;" horiz-adv-x="611" 
d="M313 498c172 0 257 -116 257 -239c0 -135 -102 -273 -272 -273c-120 0 -258 90 -258 250c0 172 128 262 273 262zM294 464c-86 0 -154 -72 -154 -198c0 -110 42 -240 182 -240c118 0 148 114 148 210c0 124 -52 228 -176 228zM206 682c30 0 50 -20 50 -50
s-20 -50 -50 -50s-50 20 -50 50s20 50 50 50zM405 682c30 0 50 -20 50 -50s-20 -50 -50 -50s-50 20 -50 50s20 50 50 50z" />
    <glyph glyph-name="oe.sc" unicode="&#xf6fa;" horiz-adv-x="833" 
d="M442 181v175c0 28 -2 49 -4 74c-38 19 -71 32 -113 32c-89 0 -183 -62 -183 -211c0 -102 50 -225 206 -225c46 0 75 11 88 18c4 37 6 74 6 137zM532 228v-186c26 -2 46 -4 84 -4c54 0 92 5 128 12l22 88h28l-10 -138c-23 1 -106 4 -172 4c-103 0 -167 -4 -212 -9
c-44 -4 -69 -9 -92 -9c-164 0 -266 134 -266 268c0 128 91 244 275 244c30 0 60 -4 89 -9c30 -4 59 -9 88 -9c48 0 97 8 158 8c58 0 102 -5 134 -8l-10 -120h-24c-4 26 -6 50 -14 78c-32 6 -95 10 -130 10c-26 0 -51 -3 -76 -4v-172c15 -1 38 -2 105 -2c49 0 55 8 55 64h30
c-2 -32 -4 -54 -4 -84c0 -28 2 -56 4 -88h-30c0 61 -10 70 -84 70c-22 0 -41 -2 -76 -4z" />
    <glyph glyph-name="oslash.sc" unicode="&#xf7f8;" horiz-adv-x="611" 
d="M164 135l265 260c-29 43 -73 69 -135 69c-86 0 -154 -72 -154 -198c0 -43 7 -90 24 -131zM448 360l-265 -261c27 -43 71 -73 139 -73c118 0 148 114 148 210c0 46 -7 89 -22 124zM570 480l-60 -59c40 -44 60 -102 60 -162c0 -135 -102 -273 -272 -273
c-58 0 -119 21 -168 61l-70 -69l-28 28l69 68c-37 41 -61 95 -61 162c0 172 128 262 273 262c72 0 128 -20 168 -52l61 60z" />
    <glyph glyph-name="ugrave.sc" unicode="&#xf7f9;" horiz-adv-x="611" 
d="M194 419v-242c0 -86 32 -139 135 -139c87 0 136 39 136 141v216c0 55 -7 64 -85 64v28c36 -1 72 -3 107 -3c44 0 77 2 103 3v-28c-72 0 -85 -7 -85 -60v-215c0 -103 -29 -198 -197 -198c-166 0 -204 68 -204 189v234c0 45 -26 50 -84 50v28c43 -1 86 -3 128 -3
c32 0 64 2 122 3v-26c-64 -2 -76 -13 -76 -42zM330 551l-144 90c-17 10 -40 23 -40 46c0 20 12 35 33 35c16 0 38 -18 53 -33l138 -138h-40z" />
    <glyph glyph-name="uacute.sc" unicode="&#xf7fa;" horiz-adv-x="611" 
d="M194 419v-242c0 -86 32 -139 135 -139c87 0 136 39 136 141v216c0 55 -7 64 -85 64v28c36 -1 72 -3 107 -3c44 0 77 2 103 3v-28c-72 0 -85 -7 -85 -60v-215c0 -103 -29 -198 -197 -198c-166 0 -204 68 -204 189v234c0 45 -26 50 -84 50v28c43 -1 86 -3 128 -3
c32 0 64 2 122 3v-26c-64 -2 -76 -13 -76 -42zM241 551l138 138c15 15 37 33 53 33c21 0 33 -15 33 -35c0 -23 -23 -36 -40 -46l-144 -90h-40z" />
    <glyph glyph-name="ucircumflex.sc" unicode="&#xf7fb;" horiz-adv-x="611" 
d="M194 419v-242c0 -86 32 -139 135 -139c87 0 136 39 136 141v216c0 55 -7 64 -85 64v28c36 -1 72 -3 107 -3c44 0 77 2 103 3v-28c-72 0 -85 -7 -85 -60v-215c0 -103 -29 -198 -197 -198c-166 0 -204 68 -204 189v234c0 45 -26 50 -84 50v28c43 -1 86 -3 128 -3
c32 0 64 2 122 3v-26c-64 -2 -76 -13 -76 -42zM275 718h62l125 -167h-35l-121 103l-121 -103h-35z" />
    <glyph glyph-name="udieresis.sc" unicode="&#xf7fc;" horiz-adv-x="611" 
d="M194 419v-242c0 -86 32 -139 135 -139c87 0 136 39 136 141v216c0 55 -7 64 -85 64v28c36 -1 72 -3 107 -3c44 0 77 2 103 3v-28c-72 0 -85 -7 -85 -60v-215c0 -103 -29 -198 -197 -198c-166 0 -204 68 -204 189v234c0 45 -26 50 -84 50v28c43 -1 86 -3 128 -3
c32 0 64 2 122 3v-26c-64 -2 -76 -13 -76 -42zM206 682c30 0 50 -20 50 -50s-20 -50 -50 -50s-50 20 -50 50s20 50 50 50zM405 682c30 0 50 -20 50 -50s-20 -50 -50 -50s-50 20 -50 50s20 50 50 50z" />
    <glyph glyph-name="yacute.sc" unicode="&#xf7fd;" 
d="M124 -3v28c74 0 88 15 88 48v131c-45 81 -82 141 -109 179c-42 59 -53 65 -89 65v28c31 5 75 9 103 17c26 -9 52 -36 75 -79l90 -166c22 39 94 167 130 236h68v-14c-59 -67 -122 -173 -178 -272v-103c0 -68 26 -70 86 -70v-28c-44 1 -96 3 -132 3c-52 0 -88 -2 -132 -3z
M194 551l138 138c15 15 37 33 53 33c21 0 33 -15 33 -35c0 -23 -23 -36 -40 -46l-144 -90h-40z" />
    <glyph glyph-name="thorn.sc" unicode="&#xf7fe;" 
d="M114 92v312c0 54 -24 55 -90 55v28c36 -2 80 -3 132 -3c48 0 83 2 138 3v-28c-74 0 -90 -1 -90 -55v-44c28 6 54 10 95 10c135 0 169 -44 169 -120c0 -67 -54 -146 -180 -146c-22 0 -33 4 -40 8l-6 30c8 -5 20 -8 32 -8c68 0 100 42 100 104s-42 98 -110 98
c-24 0 -42 -6 -60 -12v-232c0 -60 8 -67 90 -67v-28c-44 1 -88 3 -133 3c-46 0 -91 -2 -137 -3v28c74 0 90 7 90 67z" />
    <glyph glyph-name="ydieresis.sc" unicode="&#xf7ff;" 
d="M124 -3v28c74 0 88 15 88 48v131c-45 81 -82 141 -109 179c-42 59 -53 65 -89 65v28c31 5 75 9 103 17c26 -9 52 -36 75 -79l90 -166c22 39 94 167 130 236h68v-14c-59 -67 -122 -173 -178 -272v-103c0 -68 26 -70 86 -70v-28c-44 1 -96 3 -132 3c-52 0 -88 -2 -132 -3z
M151 682c30 0 50 -20 50 -50s-20 -50 -50 -50s-50 20 -50 50s20 50 50 50zM350 682c30 0 50 -20 50 -50s-20 -50 -50 -50s-50 20 -50 50s20 50 50 50z" />
    <glyph glyph-name="Delta" unicode="&#x2206;" horiz-adv-x="575" 
d="M542 0h-510v22l235 661l33 10l242 -671v-22zM450 43l-187 527l-183 -527h370z" />
    <glyph glyph-name="Omega" unicode="&#x2126;" horiz-adv-x="655" 
d="M623 133l-22 -133h-211l-5 17c40 85 120 219 119 362c-1 208 -89 286 -178 286c-96 0 -176 -77 -176 -291c0 -139 68 -263 117 -357l-7 -17h-209l-21 133l23 2c19 -65 34 -75 69 -75h96c-56 55 -154 160 -154 321c0 192 117 312 264 312c150 0 260 -114 260 -305
c0 -145 -92 -257 -156 -328h99c38 0 49 8 68 75z" />
    <glyph glyph-name="uni03BC" unicode="&#x3bc;" horiz-adv-x="574" 
d="M562 25c-50 -8 -101 -21 -153 -40l-12 3l1 87l-61 -53c-31 -27 -58 -36 -98 -36c-54 0 -96 27 -108 67c1 -92 4 -177 4 -209s-14 -60 -48 -60s-36 21 -36 29v2c0 7 7 31 9 39c26 101 36 219 36 321v151c0 67 -5 74 -66 74h-11v28c52 7 108 20 154 42l10 -6l-3 -168v-122
c0 -88 33 -127 100 -127c64 0 118 54 118 118v171c0 55 -4 64 -64 64h-11v28c51 7 103 21 150 42l12 -6c-2 -96 -3 -164 -3 -202v-76c0 -66 1 -106 5 -119c4 -11 16 -16 37 -16c8 0 20 1 38 2v-28z" />
    <glyph glyph-name="pi" unicode="&#x3c0;" horiz-adv-x="516" 
d="M467 462l23 -8c-8 -36 -21 -63 -33 -80c-15 -4 -37 -4 -64 -4c-5 -61 -4 -169 -4 -238c0 -58 11 -91 42 -91c19 0 30 10 47 30l12 -18c-23 -45 -60 -65 -93 -65c-47 0 -80 26 -80 126c0 91 5 177 10 258c-54 1 -107 2 -146 2v-20c0 -227 -48 -332 -62 -349
c-15 -7 -40 -15 -54 -17l-6 16c70 90 88 268 88 371c-64 1 -87 -18 -120 -44l-14 20c26 30 62 84 157 83c67 0 151 -3 242 -3c29 0 40 5 55 31z" />
    <glyph glyph-name="Euro" unicode="&#x20ac;" 
d="M482 76l-19 -47c-36 -35 -98 -49 -137 -49c-128 0 -223 97 -249 262h-57l8 39h45c-2 18 -3 36 -3 56c0 14 0 27 1 41h-51l8 39h47c11 76 36 139 73 186c48 61 112 91 184 91c61 0 121 -23 152 -40c-10 -46 -19 -99 -19 -149h-30v64c0 53 -57 84 -116 84
c-95 0 -149 -101 -162 -236h254l-8 -39h-249v-25c0 -25 1 -49 4 -72h227l-8 -39h-214c24 -131 92 -211 186 -211c42 0 94 25 124 60z" />
    <glyph glyph-name="afii61289" unicode="&#x2113;" horiz-adv-x="375" 
d="M340 100l18 -15c-34 -67 -84 -103 -149 -103c-43 0 -74 15 -92 38c-21 28 -31 62 -31 142v87l-54 -43l-12 22l66 55v126c0 164 8 217 48 265c23 30 48 45 77 45c54 0 81 -57 81 -128c0 -120 -61 -213 -135 -293v-99c0 -131 31 -167 83 -167c43 0 75 29 100 68zM157 467
v-126c53 67 91 164 91 249c0 60 -15 101 -44 101c-34 0 -47 -59 -47 -224z" />
    <glyph glyph-name="estimated" unicode="&#x212e;" horiz-adv-x="854" 
d="M820 324h-637c-3 0 -5 -1 -5 -4v-193c0 -8 3 -16 8 -22c62 -64 147 -105 241 -105c101 0 191 47 253 118h57c-70 -83 -185 -137 -311 -137c-217 0 -393 158 -393 352c0 196 176 354 393 354c218 0 394 -158 394 -354v-9zM675 349v194c0 8 -3 17 -9 23
c-62 61 -146 101 -239 101s-178 -41 -240 -104c-6 -6 -9 -15 -9 -24v-190c0 -2 2 -6 5 -6h488c3 0 4 4 4 6z" />
    <glyph glyph-name="partialdiff" unicode="&#x2202;" horiz-adv-x="481" 
d="M240 413h1c42 0 92 -20 123 -67c3 32 7 68 8 106c1 49 -6 104 -25 156c-18 47 -64 98 -124 98c-47 0 -90 -23 -122 -51c-15 -2 -34 35 -26 56c31 21 75 39 126 39c86 0 145 -52 186 -139c37 -76 45 -170 45 -229c0 -73 -11 -175 -43 -249c-37 -89 -98 -151 -184 -151
c-98 0 -165 72 -165 196c0 68 25 124 54 162c32 41 88 73 146 73zM258 377h-1c-39 0 -73 -17 -101 -58c-28 -47 -42 -116 -42 -182c0 -67 33 -127 90 -127c51 0 86 54 108 105c25 59 35 112 45 190c-12 28 -50 72 -99 72z" />
    <glyph glyph-name="product" unicode="&#x220f;" horiz-adv-x="621" 
d="M594 683v-24c-79 -6 -83 -12 -83 -65v-582c0 -61 7 -69 81 -75v-23h-230v23c71 6 76 10 76 75v610c0 27 -5 31 -33 31h-192c-26 0 -31 -3 -31 -28v-613c0 -60 -1 -68 70 -75v-23h-224v23c73 6 80 12 80 75v582c0 53 -5 59 -83 65v24h569z" />
    <glyph glyph-name="summation" unicode="&#x2211;" horiz-adv-x="503" 
d="M481 84l-40 -173h-414v22l208 346l-204 383v21h411c1 -18 7 -89 11 -150l-24 -5c-8 44 -17 73 -29 94c-12 24 -27 31 -97 31h-178l176 -323l-208 -352h235c79 0 91 6 128 113z" />
    <glyph glyph-name="uni2219" unicode="&#x2219;" horiz-adv-x="250" 
d="M124 203c-31 0 -57 28 -57 58s27 58 57 58c31 0 59 -28 59 -58s-27 -58 -59 -58z" />
    <glyph glyph-name="radical" unicode="&#x221a;" horiz-adv-x="507" 
d="M489 877l-152 -1022l-18 -9l-200 540l-80 -37l-10 29l140 65l155 -435h2l128 878z" />
    <glyph glyph-name="infinity" unicode="&#x221e;" horiz-adv-x="705" 
d="M659 284v-1c0 -91 -68 -148 -140 -148c-57 0 -103 32 -166 107c-48 -55 -97 -107 -171 -107s-138 62 -138 145c0 85 61 147 145 147c68 0 119 -49 167 -107c45 50 91 107 169 107s134 -58 134 -143zM188 183h2c56 0 99 54 136 95c-40 50 -79 102 -142 102
c-57 0 -89 -46 -89 -101c0 -54 38 -96 93 -96zM519 380h-1c-59 0 -106 -65 -137 -98c59 -67 92 -99 140 -99c56 0 88 51 88 97c0 62 -37 100 -90 100z" />
    <glyph glyph-name="integral" unicode="&#x222b;" horiz-adv-x="347" 
d="M151 16l-19 409c-15 338 63 404 141 404c24 0 54 -13 55 -42c0 -26 -19 -39 -40 -39c-30 0 -26 41 -48 41c-21 0 -48 -31 -42 -164l17 -379c16 -357 -59 -434 -141 -434c-33 0 -55 20 -55 44c-1 24 20 42 45 42c26 0 26 -44 47 -44c29 0 45 64 40 162z" />
    <glyph glyph-name="approxequal" unicode="&#x2248;" horiz-adv-x="494" 
d="M423 416l32 -27c-23 -49 -62 -90 -116 -90c-36 0 -61 13 -102 37c-27 17 -52 31 -81 31c-40 0 -64 -31 -85 -67l-34 26c26 54 72 90 125 90c43 0 75 -23 98 -36c31 -18 52 -32 81 -32c35 0 58 25 82 68zM423 259l32 -27c-24 -49 -61 -90 -116 -90c-36 0 -61 13 -102 37
c-28 17 -52 32 -80 32c-42 0 -66 -34 -86 -69l-34 27c26 54 72 90 125 90c44 0 75 -23 98 -36c29 -17 51 -32 81 -32c35 0 57 25 82 68z" />
    <glyph glyph-name="notequal" unicode="&#x2260;" horiz-adv-x="494" 
d="M354 478l-38 -86h132v-50h-151l-58 -130h209v-50h-228l-46 -103l-40 16l39 87h-128v50h148l57 130h-205v50h224l46 103z" />
    <glyph glyph-name="lessequal" unicode="&#x2264;" horiz-adv-x="494" 
d="M446 103l-396 207v53l396 207v-60l-344 -172v-2l344 -173v-60zM449 14h-403v51h403v-51z" />
    <glyph glyph-name="greaterequal" unicode="&#x2265;" horiz-adv-x="494" 
d="M51 570l396 -207v-53l-396 -207v60l344 172v3l-344 172v60zM449 14h-403v51h403v-51z" />
    <glyph glyph-name="lozenge" unicode="&#x25ca;" horiz-adv-x="512" 
d="M466 331l-180 -395h-60l-180 395l181 398h59zM410 331l-152 342h-3l-153 -341l153 -342h3z" />
    <glyph glyph-name="uni00A0" unicode="&#xa0;" horiz-adv-x="250" 
 />
    <glyph glyph-name="uni00AD" unicode="&#xad;" horiz-adv-x="333" 
d="M282 215h-260l-5 5l27 67h263l5 -5z" />
    <glyph glyph-name="uni02C9" unicode="&#x2c9;" horiz-adv-x="333" 
d="M323 538h-312v53h312v-53z" />
    <glyph glyph-name="zero.taboldstyle" unicode="&#xf643;" 
d="M22 208c0 158 98 270 240 270c160 0 216 -121 216 -230c0 -167 -113 -268 -239 -268c-152 0 -217 121 -217 228zM252 14c108 0 142 102 142 221c0 137 -40 209 -144 209c-86 0 -144 -64 -144 -198c0 -142 38 -232 146 -232z" />
    <glyph glyph-name="one.taboldstyle" unicode="&#xf644;" 
d="M430 25v-28c-54 1 -109 3 -164 3c-56 0 -113 -2 -170 -3v28l74 5c44 3 54 8 54 69v274c0 23 -2 32 -11 32c-14 0 -87 -34 -123 -40l-16 4l-2 42c61 9 194 43 289 73v-32c-39 -7 -53 -13 -53 -68v-279c0 -65 5 -74 55 -77z" />
    <glyph glyph-name="two.taboldstyle" unicode="&#xf645;" 
d="M152 76h201c41 0 82 5 115 11c-1 -17 -2 -33 -2 -49s1 -31 2 -47c-27 3 -62 5 -101 6c-39 2 -80 3 -120 3c-95 0 -143 -1 -215 -3l-9 12c10 12 22 31 33 57c106 57 276 152 276 253c0 74 -64 94 -114 94c-56 0 -99 -27 -142 -68l-20 16l62 83c30 19 75 34 124 34
c107 0 174 -55 174 -134c0 -118 -132 -179 -264 -266v-2z" />
    <glyph glyph-name="three.taboldstyle" unicode="&#xf646;" 
d="M150 142v36c84 12 158 54 158 138c0 58 -42 98 -101 98c-54 0 -83 -26 -133 -68l-12 18l58 80c21 14 70 34 113 34c89 0 159 -44 159 -122c0 -60 -56 -106 -98 -138v-2c96 0 144 -66 144 -142c0 -128 -162 -310 -363 -310c-26 34 -36 44 -61 62l6 16
c30 -11 64 -24 102 -24c138 0 232 110 232 217c0 78 -34 127 -120 127c-33 0 -59 -10 -84 -20z" />
    <glyph glyph-name="four.taboldstyle" unicode="&#xf647;" 
d="M468 66v-70c-8 2 -16 2 -24 3s-16 1 -25 1h-61v-118c0 -38 4 -66 4 -92c-15 -3 -56 -18 -78 -26l-14 2c2 39 8 68 8 126v108c-12 1 -30 2 -50 2h-152c-26 0 -45 -1 -62 -2l-10 16c86 144 198 306 304 434l44 28l12 -8c-3 -95 -6 -150 -6 -212v-198c38 0 70 2 110 6z
M278 60v300h-2c-66 -90 -123 -168 -198 -298c35 -2 66 -4 106 -4c36 0 63 1 94 2z" />
    <glyph glyph-name="five.taboldstyle" unicode="&#xf648;" 
d="M426 392h-274c-6 -38 -8 -124 -8 -168c23 9 51 22 104 22c120 0 178 -71 178 -161c0 -131 -176 -321 -354 -321c-14 18 -34 36 -58 54l6 16c24 -7 42 -12 83 -12c139 0 239 104 239 221c0 99 -62 139 -128 139c-42 0 -62 -12 -96 -22l-12 6c1 35 2 72 2 105
c0 91 -2 131 -8 191l8 8c21 -1 41 -2 60 -3c20 0 39 -1 60 -1h98c36 0 76 2 106 6l12 -4c-8 -25 -13 -45 -18 -76z" />
    <glyph glyph-name="six.taboldstyle" unicode="&#xf649;" 
d="M388 700l34 -16v-6c-138 -46 -269 -124 -292 -338l2 -2c56 58 112 80 163 80c119 0 173 -91 173 -192c0 -116 -76 -240 -224 -240c-138 0 -211 122 -212 256c-3 338 271 435 356 458zM249 356c-47 0 -94 -30 -112 -59c-9 -13 -15 -27 -15 -64c0 -137 50 -213 130 -213
c94 0 126 82 128 178c2 102 -52 158 -131 158z" />
    <glyph glyph-name="seven.taboldstyle" unicode="&#xf64a;" 
d="M494 470v-24c-128 -224 -278 -508 -340 -680c-32 0 -46 1 -100 -2l-8 6c110 166 206 338 312 511c30 49 50 87 50 92c0 13 -44 13 -155 13c-155 0 -166 -2 -172 -45l-11 -73h-28c2 24 4 56 4 108c0 28 -1 62 -2 88l6 6c59 -3 112 -6 176 -6c98 0 180 3 268 6z" />
    <glyph glyph-name="eight.taboldstyle" unicode="&#xf64b;" 
d="M464 207c0 -102 -89 -221 -236 -221c-120 0 -198 74 -198 173c0 103 64 153 138 189c-82 46 -118 94 -118 163c0 87 69 183 213 183c97 0 175 -57 175 -148c0 -80 -78 -131 -126 -162c94 -48 152 -76 152 -177zM384 164c0 63 -21 107 -180 170
c-30 -17 -104 -76 -104 -168c0 -96 58 -146 138 -146c92 0 146 70 146 144zM368 537c0 94 -56 123 -114 123c-72 0 -124 -42 -124 -111c0 -67 45 -103 148 -149c33 20 90 56 90 137z" />
    <glyph glyph-name="nine.taboldstyle" unicode="&#xf64c;" 
d="M104 -238l-36 16v8c174 41 285 148 304 338c-58 -51 -90 -86 -161 -86c-107 0 -181 76 -181 204c0 160 116 236 216 236c116 0 220 -80 220 -280c0 -330 -306 -436 -362 -436zM246 100c90 0 130 62 130 149c0 129 -54 195 -130 195c-74 0 -132 -70 -132 -180
c0 -70 30 -164 132 -164z" />
    <glyph glyph-name="dollar.taboldstyle" unicode="&#xf653;" 
d="M223 18v279c-109 12 -193 33 -193 161c0 118 78 193 193 208c-1 26 -3 46 -4 65h45c-2 -20 -3 -38 -4 -62c56 -4 115 -12 166 -43c-10 -36 -13 -80 -13 -126h-32v42c0 12 0 24 -3 36c-9 36 -79 53 -118 55v-260c111 -11 211 -30 211 -165s-103 -208 -211 -224
c1 -34 3 -71 4 -100h-45c2 24 3 61 4 98c-45 0 -121 12 -193 42c8 46 10 100 12 148h32v-64c0 -9 0 -20 3 -26c18 -36 93 -61 146 -64zM260 292v-274c70 8 132 72 132 153c0 87 -55 111 -132 121zM223 379v251c-79 -6 -118 -62 -118 -137c0 -78 45 -107 118 -114z" />
    <glyph glyph-name="cent.taboldstyle" unicode="&#xf654;" 
d="M347 411l-106 -353c29 -17 61 -22 84 -22c41 0 77 12 114 28l9 -11l-20 -33c-40 -21 -92 -34 -138 -34c-23 0 -46 1 -69 5l-28 -92h-41l32 104c-84 39 -123 121 -123 210c0 96 26 165 102 203l80 40c27 13 63 14 82 14l27 92h40l-27 -92c26 0 58 -12 80 -26
c-8 -46 -12 -86 -11 -130h-28l-9 66c-13 15 -31 24 -50 31zM208 84l101 335c-90 21 -159 -29 -159 -166c0 -63 15 -131 58 -169z" />
    <glyph glyph-name="f_i.sc" unicode="&#xe03d;" horiz-adv-x="777" 
d="M108 94v300c0 60 -10 65 -88 65v28c31 -1 75 -3 114 -3c31 0 62 2 92 4c31 2 62 4 91 4c47 0 82 -4 103 -8c-6 -35 -10 -72 -12 -118h-28c-2 25 -5 53 -10 78c-53 8 -119 8 -170 8c-2 -45 -2 -103 -2 -189c14 -1 42 -2 72 -2c54 0 60 5 68 67h28c-1 -20 -2 -69 -2 -89
c0 -25 1 -59 2 -87h-28c-5 71 -17 73 -69 73c-29 0 -49 -1 -71 -2v-139c0 -46 10 -59 86 -59v-28c-28 1 -98 3 -136 3c-52 0 -79 -2 -130 -3v28c78 0 90 13 90 69zM564 92v312c0 53 -24 55 -90 55v28c36 -1 80 -3 132 -3c48 0 83 2 138 3v-28c-74 0 -90 -1 -90 -55v-312
c0 -60 8 -67 90 -67v-28c-44 1 -88 3 -133 3c-46 0 -91 -2 -137 -3v28c74 0 90 7 90 67z" />
    <glyph glyph-name="f_l.sc" unicode="&#xe03e;" horiz-adv-x="944" 
d="M108 94v300c0 60 -10 65 -88 65v28c31 -1 75 -3 114 -3c31 0 62 2 92 4c31 2 62 4 91 4c47 0 82 -4 103 -8c-6 -35 -10 -72 -12 -118h-28c-2 25 -5 53 -10 78c-53 8 -119 8 -170 8c-2 -45 -2 -103 -2 -189c14 -1 42 -2 72 -2c54 0 60 5 68 67h28c-1 -20 -2 -69 -2 -89
c0 -25 1 -59 2 -87h-28c-5 71 -17 73 -69 73c-29 0 -49 -1 -71 -2v-139c0 -46 10 -59 86 -59v-28c-28 1 -98 3 -136 3c-52 0 -79 -2 -130 -3v28c78 0 90 13 90 69zM554 104v308c0 46 -16 47 -90 47v28c46 -1 82 -3 128 -3c34 0 83 2 138 3v-28c-64 0 -86 -1 -86 -62v-265
c0 -34 1 -61 4 -93c20 -1 40 -2 68 -2c62 0 118 4 146 14l20 81h30c-9 -43 -14 -85 -17 -132c-33 -2 -79 -3 -123 -3c-96 0 -125 3 -172 3c-42 0 -69 -2 -104 -3v28c44 7 58 13 58 79z" />
    <glyph glyph-name="germandbls.sc" unicode="&#xe03f;" horiz-adv-x="888" 
d="M362 364h-28c-1 48 -7 64 -20 74c-23 17 -44 24 -83 24c-64 0 -107 -38 -107 -93c0 -157 276 -2 276 -207c0 -98 -90 -176 -219 -176c-65 0 -100 11 -135 28c5 35 6 58 6 114h28c0 -75 33 -106 112 -106c62 0 124 32 124 112c0 153 -272 -8 -272 203
c0 101 84 161 191 161c75 0 113 -22 135 -34c-7 -36 -8 -62 -8 -100zM806 364h-28c-1 48 -7 64 -20 74c-23 17 -44 24 -83 24c-64 0 -107 -38 -107 -93c0 -157 276 -2 276 -207c0 -98 -90 -176 -219 -176c-65 0 -100 11 -135 28c5 35 6 58 6 114h28c0 -75 33 -106 112 -106
c62 0 124 32 124 112c0 153 -272 -8 -272 203c0 101 84 161 191 161c75 0 113 -22 135 -34c-7 -36 -8 -62 -8 -100z" />
    <glyph glyph-name="uni2215" unicode="&#x2215;" horiz-adv-x="167" 
d="M-114 0h-52l451 689h52z" />
    <glyph glyph-name="A.sc" unicode="&#xe000;" horiz-adv-x="611" 
d="M290 498h38l174 -395c31 -74 52 -78 90 -78v-28c-16 1 -76 3 -119 3c-42 0 -79 -2 -123 -3v28c59 0 74 8 74 27c0 22 -27 72 -40 100c-34 1 -68 2 -103 2c-33 0 -67 -1 -101 -2c-9 -21 -34 -54 -34 -91c0 -28 23 -36 74 -36v-28c-33 1 -68 3 -104 3c-30 0 -53 -2 -98 -3
v28c45 0 61 6 106 108zM285 390l-88 -196c26 -1 52 -2 81 -2c32 0 58 1 91 2z" />
    <glyph glyph-name="B.sc" unicode="&#xe008;" 
d="M198 250v-212c14 -2 24 -4 45 -4c95 0 123 65 123 114c0 68 -43 106 -132 106c-13 0 -25 -2 -36 -4zM198 450v-164c62 0 148 -1 148 85c0 61 -38 83 -101 83c-17 0 -30 -2 -47 -4zM108 107v306c0 39 -18 45 -80 45v28c34 -2 72 -2 118 -2c52 0 98 2 154 2
c95 0 140 -32 140 -97c0 -56 -44 -105 -118 -111v-2c88 -1 144 -52 144 -113c0 -111 -86 -165 -196 -165c-42 0 -88 2 -128 2c-24 0 -58 0 -84 -2v20c44 16 50 28 50 89z" />
    <glyph glyph-name="C.sc" unicode="&#xe009;" horiz-adv-x="556" 
d="M510 332h-28l-4 68c-27 32 -68 62 -151 62c-105 0 -183 -82 -183 -217c0 -115 69 -215 212 -215c68 0 113 14 160 51l12 -7l-14 -38c-30 -25 -103 -50 -196 -50c-158 0 -274 106 -274 251c0 169 127 261 295 261c53 0 137 -15 183 -36c-10 -49 -12 -104 -12 -130z" />
    <glyph glyph-name="D.sc" unicode="&#xe00b;" horiz-adv-x="611" 
d="M206 377v-335c28 -2 49 -4 66 -4c142 0 194 99 194 213c0 138 -82 199 -184 199c-29 0 -59 -3 -74 -6c-1 -25 -2 -42 -2 -67zM116 113v287c0 42 -16 58 -80 58v28c42 -2 80 -2 124 -2c47 0 90 2 141 2c175 0 265 -84 265 -216c0 -103 -64 -272 -278 -272
c-42 0 -86 2 -127 2c-32 0 -64 -1 -93 -2v20c35 14 48 29 48 95z" />
    <glyph glyph-name="E.sc" unicode="&#xe00c;" 
d="M116 108v282c0 66 -18 70 -93 70v27c31 -1 59 -3 94 -3c37 0 73 2 109 4s73 4 109 4c40 0 89 -3 121 -8c-6 -34 -10 -72 -12 -120h-28c-3 38 -4 59 -10 80c-39 7 -87 10 -135 10c-24 0 -45 -3 -63 -6c-3 -52 -2 -117 -2 -175c23 -1 50 -2 96 -2c48 0 56 11 56 67h30
c-1 -27 -2 -58 -2 -85c0 -31 1 -65 2 -93h-30c0 63 -8 75 -95 75c-25 0 -41 -1 -57 -2c0 -80 1 -146 4 -193c27 -2 54 -4 88 -4c44 0 88 5 112 12c10 27 17 57 22 90h26c-1 -51 -4 -97 -8 -136c-40 -4 -89 -5 -136 -5c-58 0 -107 3 -155 3c-45 0 -80 -2 -129 -3v28
c80 0 86 12 86 83z" />
    <glyph glyph-name="F.sc" unicode="&#xe012;" horiz-adv-x="444" 
d="M108 94v300c0 60 -10 65 -88 65v28c31 -1 75 -3 114 -3c31 0 62 2 92 4c31 2 62 4 91 4c47 0 82 -4 103 -8c-6 -35 -10 -72 -12 -118h-28c-2 25 -5 53 -10 78c-53 8 -119 8 -170 8c-2 -45 -2 -103 -2 -189c14 -1 42 -2 72 -2c54 0 60 5 68 67h28c-1 -20 -2 -69 -2 -89
c0 -25 1 -59 2 -87h-28c-5 71 -17 73 -69 73c-29 0 -49 -1 -71 -2v-139c0 -46 10 -59 86 -59v-28c-28 1 -98 3 -136 3c-52 0 -79 -2 -130 -3v28c78 0 90 13 90 69z" />
    <glyph glyph-name="G.sc" unicode="&#xe013;" horiz-adv-x="556" 
d="M487 350h-27l-3 48c-3 44 -81 59 -143 60c-124 2 -182 -92 -182 -212c0 -191 134 -222 186 -222c50 0 78 8 96 20c2 25 2 59 2 86c0 33 -16 38 -78 40v24c54 0 94 -2 128 -2c28 0 49 1 62 2v-24l-27 -14c0 -56 1 -105 3 -132c-75 -28 -144 -38 -205 -38
c-156 0 -271 116 -271 250s112 261 290 261c74 0 134 -18 187 -33z" />
    <glyph glyph-name="H.sc" unicode="&#xe014;" horiz-adv-x="667" 
d="M118 92v306c0 59 -14 61 -94 61v28c41 -1 94 -3 133 -3c46 0 85 2 137 3v-28c-75 0 -86 -2 -86 -61v-121c40 -1 82 -2 129 -2s89 1 129 2v121c0 59 -11 61 -86 61v28c52 -1 91 -3 137 -3c39 0 92 2 133 3v-28c-80 0 -94 -2 -94 -61v-306c0 -56 12 -67 90 -67v-28
c-42 1 -84 3 -126 3c-47 0 -95 -2 -140 -3v28c72 0 86 5 86 67v149c-40 1 -82 2 -129 2s-89 -1 -129 -2v-149c0 -62 14 -67 86 -67v-28c-45 1 -93 3 -140 3c-42 0 -84 -2 -126 -3v28c78 0 90 11 90 67z" />
    <glyph glyph-name="I.sc" unicode="&#xe015;" horiz-adv-x="333" 
d="M120 92v312c0 53 -24 55 -90 55v28c36 -1 80 -3 132 -3c48 0 83 2 138 3v-28c-74 0 -90 -1 -90 -55v-312c0 -60 8 -67 90 -67v-28c-44 1 -88 3 -133 3c-46 0 -91 -2 -137 -3v28c74 0 90 7 90 67z" />
    <glyph glyph-name="J.sc" unicode="&#xe01a;" horiz-adv-x="333" 
d="M124 -24v415c0 62 -14 68 -92 68v28c21 -1 88 -3 132 -3c42 0 91 2 136 3v-28c-78 0 -86 -4 -86 -93v-299c0 -152 -86 -214 -188 -214h-14c1 10 2 19 2 33s-1 26 -2 33l9 3c23 -24 37 -25 53 -25c35 0 50 25 50 79z" />
    <glyph glyph-name="K.sc" unicode="&#xe01b;" horiz-adv-x="556" 
d="M292 487v-28c-78 0 -86 -1 -86 -57v-143l6 -1c72 74 136 132 190 200v29c29 0 48 -1 72 -1c17 0 38 1 60 1v-27c-41 0 -55 -4 -84 -30l-158 -146l209 -225c19 -20 30 -34 51 -34v-28c-18 0 -36 1 -54 1c-22 0 -44 -1 -66 -1l-216 243l-10 -4v-154c0 -52 12 -57 88 -57
v-28c-43 1 -88 3 -132 3s-89 -2 -134 -3v28c72 0 88 5 88 67v300c0 64 -14 67 -88 67v28c55 -1 88 -3 128 -3c52 0 88 2 136 3z" />
    <glyph glyph-name="L.sc" unicode="&#xe01c;" 
d="M110 104v308c0 46 -16 47 -90 47v28c46 -1 82 -3 128 -3c34 0 83 2 138 3v-28c-64 0 -86 -1 -86 -62v-265c0 -34 1 -61 4 -93c20 -1 40 -2 68 -2c62 0 118 4 146 14l20 81h30c-9 -43 -14 -85 -17 -132c-33 -2 -79 -3 -123 -3c-96 0 -125 3 -172 3c-42 0 -69 -2 -104 -3
v28c44 7 58 13 58 79z" />
    <glyph glyph-name="M.sc" unicode="&#xe01e;" horiz-adv-x="778" 
d="M374 -12h-18l-190 410h-2v-318c0 -48 18 -55 86 -55v-28c-37 1 -75 3 -112 3c-34 0 -69 -2 -104 -3v28c68 0 90 5 90 65v312c0 48 -26 57 -90 57v28c34 -1 67 -3 101 -3c30 0 61 2 91 3c32 -83 103 -230 165 -365c79 172 124 262 167 365c24 -1 52 -3 76 -3
c34 0 72 2 104 3v-28c-60 0 -82 -3 -82 -65v-312c0 -48 18 -57 82 -57v-28c-38 1 -78 3 -124 3c-50 0 -83 -2 -130 -3v28c70 0 82 11 82 51v338h-2z" />
    <glyph glyph-name="N.sc" unicode="&#xe01f;" horiz-adv-x="667" 
d="M116 86v331c0 32 -21 41 -88 42v28c26 -1 50 -3 82 -3c26 0 57 2 84 3c102 -133 213 -260 316 -391h2v312c0 46 -29 51 -92 51v28c41 -1 80 -3 112 -3c38 0 74 2 112 3v-28c-76 0 -92 -7 -92 -77v-290c0 -40 4 -73 6 -106l-80 10l-320 388h-2v-304c0 -50 10 -55 86 -55
v-28c-37 1 -75 3 -113 3c-35 0 -71 -2 -105 -3v28c77 0 92 11 92 61z" />
    <glyph glyph-name="O.sc" unicode="&#xe021;" horiz-adv-x="611" 
d="M313 498c172 0 257 -116 257 -239c0 -135 -102 -273 -272 -273c-120 0 -258 90 -258 250c0 172 128 262 273 262zM294 464c-86 0 -154 -72 -154 -198c0 -110 42 -240 182 -240c118 0 148 114 148 210c0 124 -52 228 -176 228z" />
    <glyph glyph-name="P.sc" unicode="&#xe029;" 
d="M114 86v314c0 52 -8 59 -90 59v28c28 -1 82 -3 123 -3c26 0 50 2 75 4s51 4 77 4c135 0 169 -52 169 -120c0 -67 -56 -146 -176 -146c-18 0 -35 4 -44 8l-6 30c8 -5 20 -8 32 -8c70 0 100 42 100 104c0 60 -48 98 -108 98c-26 0 -45 -7 -62 -12v-360c0 -46 12 -57 88 -61
v-28c-24 1 -59 3 -132 3c-45 0 -90 -2 -136 -3v28c72 0 90 15 90 61z" />
    <glyph glyph-name="Q.sc" unicode="&#xe02a;" horiz-adv-x="611" 
d="M216 -97v24c43 36 79 55 96 57v3c-5 -1 -9 -1 -14 -1c-120 0 -258 90 -258 250c0 172 128 262 273 262c172 0 257 -116 257 -239c0 -127 -90 -257 -242 -271v-2c18 0 53 -18 93 -34c33 -13 52 -26 95 -26c16 0 38 1 44 8v-22c-28 -18 -43 -31 -68 -50
c-50 6 -79 14 -122 33c-31 14 -66 27 -92 27c-22 0 -38 -7 -62 -19zM294 464c-86 0 -154 -72 -154 -198c0 -110 42 -240 182 -240c118 0 148 114 148 210c0 124 -52 228 -176 228z" />
    <glyph glyph-name="R.sc" unicode="&#xe02b;" horiz-adv-x="556" 
d="M24 -3v28c72 0 90 2 90 61v314c0 52 -8 59 -90 59v28c43 0 84 -3 132 -3c52 0 110 3 163 3c89 0 155 -25 155 -108c0 -93 -86 -117 -134 -135l153 -187c20 -24 28 -32 59 -32v-25h-124l-200 242l4 16c11 -1 22 -2 36 -2c60 0 106 44 106 104c0 65 -34 94 -106 94
c-22 0 -46 -2 -64 -10v-370c0 -47 12 -49 88 -49v-28c-24 1 -59 3 -132 3c-45 0 -90 -2 -136 -3z" />
    <glyph glyph-name="S.sc" unicode="&#xe02c;" horiz-adv-x="444" 
d="M362 364h-28c-1 48 -7 64 -20 74c-23 17 -44 24 -83 24c-64 0 -107 -38 -107 -93c0 -157 276 -2 276 -207c0 -98 -90 -176 -219 -176c-65 0 -100 11 -135 28c5 35 6 58 6 114h28c0 -75 33 -106 112 -106c62 0 124 32 124 112c0 153 -272 -8 -272 203
c0 101 84 161 191 161c75 0 113 -22 135 -34c-7 -36 -8 -62 -8 -100z" />
    <glyph glyph-name="T.sc" unicode="&#xe02e;" 
d="M116 -3v28c70 0 86 7 86 55v366h-52c-87 0 -96 -12 -98 -50l-2 -40h-28l-4 131c48 -3 120 -3 228 -3s180 0 228 3l-4 -131h-28l-2 40c-2 38 -11 50 -98 50h-50v-366c0 -44 14 -55 84 -55v-28c-41 1 -82 3 -124 3c-45 0 -91 -2 -136 -3z" />
    <glyph glyph-name="U.sc" unicode="&#xe030;" horiz-adv-x="611" 
d="M194 419v-242c0 -86 32 -139 135 -139c87 0 136 39 136 141v216c0 55 -7 64 -85 64v28c36 -1 72 -3 107 -3c44 0 77 2 103 3v-28c-72 0 -85 -7 -85 -60v-215c0 -103 -29 -198 -197 -198c-166 0 -204 68 -204 189v234c0 45 -26 50 -84 50v28c43 -1 86 -3 128 -3
c32 0 64 2 122 3v-26c-64 -2 -76 -13 -76 -42z" />
    <glyph glyph-name="V.sc" unicode="&#xe035;" horiz-adv-x="556" 
d="M306 -8h-50l-169 422c-15 39 -29 45 -75 45v28c50 -1 80 -3 108 -3c36 0 84 2 134 3v-28c-58 0 -76 -1 -76 -24c0 -11 14 -40 26 -69l104 -261l109 282c6 15 11 28 11 42c0 24 -23 30 -72 30v28c34 -1 64 -3 103 -3c23 0 49 2 83 3v-28c-50 0 -56 -15 -79 -74z" />
    <glyph glyph-name="W.sc" unicode="&#xe036;" horiz-adv-x="778" 
d="M388 488h38l139 -375h2l72 248c6 22 13 45 13 65s-18 33 -74 33v28c36 -1 66 -3 96 -3c36 0 65 2 88 3v-28c-49 -3 -53 -11 -67 -59l-121 -408h-58l-130 359h-2l-124 -359h-56l-108 384c-19 67 -34 83 -84 83v28c28 -1 65 -3 115 -3c31 0 74 2 121 3v-28
c-57 0 -76 -1 -76 -26c0 -10 4 -23 7 -33l78 -287h2z" />
    <glyph glyph-name="X.sc" unicode="&#xe037;" 
d="M28 442v32c46 4 93 8 138 19c18 -23 26 -38 43 -68l61 -107l110 166h94v-28c-43 0 -51 -11 -75 -42l-105 -138l118 -206c20 -35 31 -39 72 -44v-28c-29 1 -50 2 -65 2c-21 0 -45 -1 -73 -2l-108 202c-50 -72 -90 -140 -126 -202c-14 1 -30 2 -45 2c-21 0 -35 -1 -51 -2
v28c47 2 57 14 81 48l117 166l-79 137c-37 65 -52 69 -80 69c-10 0 -18 -2 -27 -4z" />
    <glyph glyph-name="Y.sc" unicode="&#xe038;" 
d="M124 -3v28c74 0 88 15 88 48v131c-45 81 -82 141 -109 179c-42 59 -53 65 -89 65v28c31 5 75 9 103 17c26 -9 52 -36 75 -79l90 -166c22 39 94 167 130 236h68v-14c-59 -67 -122 -173 -178 -272v-103c0 -68 26 -70 86 -70v-28c-44 1 -96 3 -132 3c-52 0 -88 -2 -132 -3z
" />
    <glyph glyph-name="Z.sc" unicode="&#xe03b;" 
d="M20 0v24l330 422c-31 1 -77 2 -120 2c-129 0 -138 1 -142 -58l-2 -22l-28 -4c1 20 2 40 2 63c0 20 0 41 -2 60c35 -1 154 -3 256 -3c84 0 129 2 160 3v-29l-335 -422c18 -1 43 -2 71 -2c52 0 98 1 166 4c63 3 65 21 70 94h31c-6 -44 -6 -89 -9 -132
c-55 -3 -114 -3 -184 -3c-82 0 -223 0 -264 3z" />
    <glyph glyph-name="Lslash.sc" unicode="&#xe01d;" 
d="M48 154v44l62 38v176c0 46 -16 47 -90 47v28c46 -1 82 -3 128 -3c34 0 83 2 138 3v-28c-64 0 -86 -1 -86 -62v-106l114 69v-44l-114 -69v-115c0 -34 1 -61 4 -93c20 -1 40 -2 68 -2c62 0 118 4 146 14l20 81h30c-9 -43 -14 -85 -17 -132c-33 -2 -79 -3 -123 -3
c-96 0 -125 3 -172 3c-42 0 -69 -2 -104 -3v28c44 7 58 13 58 79v88z" />
    <glyph glyph-name="Scaron.sc" unicode="&#xe02d;" horiz-adv-x="444" 
d="M362 364h-28c-1 48 -7 64 -20 74c-23 17 -44 24 -83 24c-64 0 -107 -38 -107 -93c0 -157 276 -2 276 -207c0 -98 -90 -176 -219 -176c-65 0 -100 11 -135 28c5 35 6 58 6 114h28c0 -75 33 -106 112 -106c62 0 124 32 124 112c0 153 -272 -8 -272 203
c0 101 84 161 191 161c75 0 113 -22 135 -34c-7 -36 -8 -62 -8 -100zM223 603l122 103h34l-125 -167h-62l-125 167h35z" />
    <glyph glyph-name="Zcaron.sc" unicode="&#xe03c;" 
d="M20 0v24l330 422c-31 1 -77 2 -120 2c-129 0 -138 1 -142 -58l-2 -22l-28 -4c1 20 2 40 2 63c0 20 0 41 -2 60c35 -1 154 -3 256 -3c84 0 129 2 160 3v-29l-335 -422c18 -1 43 -2 71 -2c52 0 98 1 166 4c63 3 65 21 70 94h31c-6 -44 -6 -89 -9 -132
c-55 -3 -114 -3 -184 -3c-82 0 -223 0 -264 3zM251 603l122 103h34l-125 -167h-62l-125 167h35z" />
    <glyph glyph-name="Agrave.sc" unicode="&#xe005;" horiz-adv-x="611" 
d="M290 498h38l174 -395c31 -74 52 -78 90 -78v-28c-16 1 -76 3 -119 3c-42 0 -79 -2 -123 -3v28c59 0 74 8 74 27c0 22 -27 72 -40 100c-34 1 -68 2 -103 2c-33 0 -67 -1 -101 -2c-9 -21 -34 -54 -34 -91c0 -28 23 -36 74 -36v-28c-33 1 -68 3 -104 3c-30 0 -53 -2 -98 -3
v28c45 0 61 6 106 108zM285 390l-88 -196c26 -1 52 -2 81 -2c32 0 58 1 91 2zM330 551l-144 90c-17 10 -40 23 -40 46c0 20 12 35 33 35c16 0 38 -18 53 -33l138 -138h-40z" />
    <glyph glyph-name="Aacute.sc" unicode="&#xe002;" horiz-adv-x="611" 
d="M290 498h38l174 -395c31 -74 52 -78 90 -78v-28c-16 1 -76 3 -119 3c-42 0 -79 -2 -123 -3v28c59 0 74 8 74 27c0 22 -27 72 -40 100c-34 1 -68 2 -103 2c-33 0 -67 -1 -101 -2c-9 -21 -34 -54 -34 -91c0 -28 23 -36 74 -36v-28c-33 1 -68 3 -104 3c-30 0 -53 -2 -98 -3
v28c45 0 61 6 106 108zM285 390l-88 -196c26 -1 52 -2 81 -2c32 0 58 1 91 2zM217 551l138 138c15 15 37 33 53 33c21 0 33 -15 33 -35c0 -23 -23 -36 -40 -46l-144 -90h-40z" />
    <glyph glyph-name="Acircumflex.sc" unicode="&#xe003;" horiz-adv-x="611" 
d="M290 498h38l174 -395c31 -74 52 -78 90 -78v-28c-16 1 -76 3 -119 3c-42 0 -79 -2 -123 -3v28c59 0 74 8 74 27c0 22 -27 72 -40 100c-34 1 -68 2 -103 2c-33 0 -67 -1 -101 -2c-9 -21 -34 -54 -34 -91c0 -28 23 -36 74 -36v-28c-33 1 -68 3 -104 3c-30 0 -53 -2 -98 -3
v28c45 0 61 6 106 108zM285 390l-88 -196c26 -1 52 -2 81 -2c32 0 58 1 91 2zM263 718h62l125 -167h-35l-121 103l-121 -103h-35z" />
    <glyph glyph-name="Atilde.sc" unicode="&#xe007;" horiz-adv-x="611" 
d="M290 498h38l174 -395c31 -74 52 -78 90 -78v-28c-16 1 -76 3 -119 3c-42 0 -79 -2 -123 -3v28c59 0 74 8 74 27c0 22 -27 72 -40 100c-34 1 -68 2 -103 2c-33 0 -67 -1 -101 -2c-9 -21 -34 -54 -34 -91c0 -28 23 -36 74 -36v-28c-33 1 -68 3 -104 3c-30 0 -53 -2 -98 -3
v28c45 0 61 6 106 108zM285 390l-88 -196c26 -1 52 -2 81 -2c32 0 58 1 91 2zM430 677h29c0 -15 -8 -41 -26 -64c-17 -22 -43 -41 -80 -41c-41 0 -57 14 -93 30c-13 6 -33 15 -49 15c-27 0 -44 -21 -53 -45h-29c10 58 48 100 109 100c27 0 53 -14 76 -25
c17 -8 41 -22 60 -20c34 4 44 20 56 50z" />
    <glyph glyph-name="Adieresis.sc" unicode="&#xe004;" horiz-adv-x="611" 
d="M290 498h38l174 -395c31 -74 52 -78 90 -78v-28c-16 1 -76 3 -119 3c-42 0 -79 -2 -123 -3v28c59 0 74 8 74 27c0 22 -27 72 -40 100c-34 1 -68 2 -103 2c-33 0 -67 -1 -101 -2c-9 -21 -34 -54 -34 -91c0 -28 23 -36 74 -36v-28c-33 1 -68 3 -104 3c-30 0 -53 -2 -98 -3
v28c45 0 61 6 106 108zM285 390l-88 -196c26 -1 52 -2 81 -2c32 0 58 1 91 2zM194 682c30 0 50 -20 50 -50s-20 -50 -50 -50s-50 20 -50 50s20 50 50 50zM393 682c30 0 50 -20 50 -50s-20 -50 -50 -50s-50 20 -50 50s20 50 50 50z" />
    <glyph glyph-name="Aring.sc" unicode="&#xe006;" horiz-adv-x="611" 
d="M290 498h38l174 -395c31 -74 52 -78 90 -78v-28c-16 1 -76 3 -119 3c-42 0 -79 -2 -123 -3v28c59 0 74 8 74 27c0 22 -27 72 -40 100c-34 1 -68 2 -103 2c-33 0 -67 -1 -101 -2c-9 -21 -34 -54 -34 -91c0 -28 23 -36 74 -36v-28c-33 1 -68 3 -104 3c-30 0 -53 -2 -98 -3
v28c45 0 61 6 106 108zM285 390l-88 -196c26 -1 52 -2 81 -2c32 0 58 1 91 2zM294 741c55 0 101 -45 100 -100c1 -55 -45 -100 -100 -100s-101 45 -100 100c-1 55 45 100 100 100zM294 705c-37 0 -62 -25 -62 -64s25 -64 62 -64s62 25 62 64s-25 64 -62 64z" />
    <glyph glyph-name="AE.sc" unicode="&#xe001;" horiz-adv-x="778" 
d="M200 456v28c57 -1 115 -4 170 -4c42 0 78 2 115 4c36 2 72 4 114 4c61 0 103 -4 128 -8l-9 -118h-26l-12 76c-46 6 -104 10 -137 10c-18 0 -45 -2 -63 -6c-1 -57 -1 -113 -2 -171c30 0 66 -1 106 -1c39 0 50 16 51 68h30c-2 -28 -5 -50 -5 -75c0 -34 3 -67 5 -101h-30
c-2 71 -20 72 -96 72c-21 0 -42 -1 -61 -2c1 -64 3 -126 4 -188c18 -3 49 -6 75 -6c47 0 97 4 129 14l20 88h30l-12 -136c-42 -3 -84 -4 -135 -4c-88 0 -131 4 -156 4c-34 0 -54 -2 -89 -4v22l42 18c2 17 4 90 4 130c-26 1 -68 2 -99 2c-35 0 -70 -1 -90 -2
c-18 -35 -53 -90 -53 -114s31 -28 76 -28v-28c-39 2 -78 4 -118 4c-26 0 -55 -2 -98 -4v28c62 0 81 27 131 118l124 226c15 26 29 49 29 62c0 20 -27 22 -92 22zM221 210h171c1 14 2 39 2 61c0 157 -5 183 -20 183c-20 0 -89 -130 -125 -194z" />
    <glyph glyph-name="Ccedilla.sc" unicode="&#xe00a;" horiz-adv-x="556" 
d="M253 -108l42 96c-147 9 -251 112 -251 249c0 169 127 261 295 261c53 0 137 -15 183 -36c-10 -49 -12 -104 -12 -130h-28l-4 68c-27 32 -68 62 -151 62c-105 0 -183 -82 -183 -217c0 -115 69 -215 212 -215c68 0 113 14 160 51l12 -7l-14 -38c-29 -24 -98 -48 -185 -49
l-25 -62c9 3 19 4 29 4c44 0 83 -23 83 -70c0 -65 -69 -84 -122 -84c-36 0 -50 5 -86 16l14 31c18 -5 42 -11 61 -11c34 0 58 8 58 46c0 23 -21 36 -40 36c-15 0 -27 -3 -41 -7z" />
    <glyph glyph-name="Egrave.sc" unicode="&#xe010;" 
d="M116 108v282c0 66 -18 70 -93 70v27c31 -1 59 -3 94 -3c37 0 73 2 109 4s73 4 109 4c40 0 89 -3 121 -8c-6 -34 -10 -72 -12 -120h-28c-3 38 -4 59 -10 80c-39 7 -87 10 -135 10c-24 0 -45 -3 -63 -6c-3 -52 -2 -117 -2 -175c23 -1 50 -2 96 -2c48 0 56 11 56 67h30
c-1 -27 -2 -58 -2 -85c0 -31 1 -65 2 -93h-30c0 63 -8 75 -95 75c-25 0 -41 -1 -57 -2c0 -80 1 -146 4 -193c27 -2 54 -4 88 -4c44 0 88 5 112 12c10 27 17 57 22 90h26c-1 -51 -4 -97 -8 -136c-40 -4 -89 -5 -136 -5c-58 0 -107 3 -155 3c-45 0 -80 -2 -129 -3v28
c80 0 86 12 86 83zM299 551l-144 90c-17 10 -40 23 -40 46c0 20 12 35 33 35c16 0 38 -18 53 -33l138 -138h-40z" />
    <glyph glyph-name="Eacute.sc" unicode="&#xe00d;" 
d="M116 108v282c0 66 -18 70 -93 70v27c31 -1 59 -3 94 -3c37 0 73 2 109 4s73 4 109 4c40 0 89 -3 121 -8c-6 -34 -10 -72 -12 -120h-28c-3 38 -4 59 -10 80c-39 7 -87 10 -135 10c-24 0 -45 -3 -63 -6c-3 -52 -2 -117 -2 -175c23 -1 50 -2 96 -2c48 0 56 11 56 67h30
c-1 -27 -2 -58 -2 -85c0 -31 1 -65 2 -93h-30c0 63 -8 75 -95 75c-25 0 -41 -1 -57 -2c0 -80 1 -146 4 -193c27 -2 54 -4 88 -4c44 0 88 5 112 12c10 27 17 57 22 90h26c-1 -51 -4 -97 -8 -136c-40 -4 -89 -5 -136 -5c-58 0 -107 3 -155 3c-45 0 -80 -2 -129 -3v28
c80 0 86 12 86 83zM186 551l138 138c15 15 37 33 53 33c21 0 33 -15 33 -35c0 -23 -23 -36 -40 -46l-144 -90h-40z" />
    <glyph glyph-name="Ecircumflex.sc" unicode="&#xe00e;" 
d="M116 108v282c0 66 -18 70 -93 70v27c31 -1 59 -3 94 -3c37 0 73 2 109 4s73 4 109 4c40 0 89 -3 121 -8c-6 -34 -10 -72 -12 -120h-28c-3 38 -4 59 -10 80c-39 7 -87 10 -135 10c-24 0 -45 -3 -63 -6c-3 -52 -2 -117 -2 -175c23 -1 50 -2 96 -2c48 0 56 11 56 67h30
c-1 -27 -2 -58 -2 -85c0 -31 1 -65 2 -93h-30c0 63 -8 75 -95 75c-25 0 -41 -1 -57 -2c0 -80 1 -146 4 -193c27 -2 54 -4 88 -4c44 0 88 5 112 12c10 27 17 57 22 90h26c-1 -51 -4 -97 -8 -136c-40 -4 -89 -5 -136 -5c-58 0 -107 3 -155 3c-45 0 -80 -2 -129 -3v28
c80 0 86 12 86 83zM232 718h62l125 -167h-35l-121 103l-121 -103h-35z" />
    <glyph glyph-name="Edieresis.sc" unicode="&#xe00f;" 
d="M116 108v282c0 66 -18 70 -93 70v27c31 -1 59 -3 94 -3c37 0 73 2 109 4s73 4 109 4c40 0 89 -3 121 -8c-6 -34 -10 -72 -12 -120h-28c-3 38 -4 59 -10 80c-39 7 -87 10 -135 10c-24 0 -45 -3 -63 -6c-3 -52 -2 -117 -2 -175c23 -1 50 -2 96 -2c48 0 56 11 56 67h30
c-1 -27 -2 -58 -2 -85c0 -31 1 -65 2 -93h-30c0 63 -8 75 -95 75c-25 0 -41 -1 -57 -2c0 -80 1 -146 4 -193c27 -2 54 -4 88 -4c44 0 88 5 112 12c10 27 17 57 22 90h26c-1 -51 -4 -97 -8 -136c-40 -4 -89 -5 -136 -5c-58 0 -107 3 -155 3c-45 0 -80 -2 -129 -3v28
c80 0 86 12 86 83zM151 682c30 0 50 -20 50 -50s-20 -50 -50 -50s-50 20 -50 50s20 50 50 50zM350 682c30 0 50 -20 50 -50s-20 -50 -50 -50s-50 20 -50 50s20 50 50 50z" />
    <glyph glyph-name="Igrave.sc" unicode="&#xe019;" horiz-adv-x="333" 
d="M120 92v312c0 53 -24 55 -90 55v28c36 -1 80 -3 132 -3c48 0 83 2 138 3v-28c-74 0 -90 -1 -90 -55v-312c0 -60 8 -67 90 -67v-28c-44 1 -88 3 -133 3c-46 0 -91 -2 -137 -3v28c74 0 90 7 90 67zM227 551l-144 90c-17 10 -40 23 -40 46c0 20 12 35 33 35
c16 0 38 -18 53 -33l138 -138h-40z" />
    <glyph glyph-name="Iacute.sc" unicode="&#xe016;" horiz-adv-x="333" 
d="M120 92v312c0 53 -24 55 -90 55v28c36 -1 80 -3 132 -3c48 0 83 2 138 3v-28c-74 0 -90 -1 -90 -55v-312c0 -60 8 -67 90 -67v-28c-44 1 -88 3 -133 3c-46 0 -91 -2 -137 -3v28c74 0 90 7 90 67zM90 551l138 138c15 15 37 33 53 33c21 0 33 -15 33 -35
c0 -23 -23 -36 -40 -46l-144 -90h-40z" />
    <glyph glyph-name="Icircumflex.sc" unicode="&#xe017;" horiz-adv-x="333" 
d="M120 92v312c0 53 -24 55 -90 55v28c36 -1 80 -3 132 -3c48 0 83 2 138 3v-28c-74 0 -90 -1 -90 -55v-312c0 -60 8 -67 90 -67v-28c-44 1 -88 3 -133 3c-46 0 -91 -2 -137 -3v28c74 0 90 7 90 67zM148 718h62l125 -167h-35l-121 103l-121 -103h-35z" />
    <glyph glyph-name="Idieresis.sc" unicode="&#xe018;" horiz-adv-x="333" 
d="M120 92v312c0 53 -24 55 -90 55v28c36 -1 80 -3 132 -3c48 0 83 2 138 3v-28c-74 0 -90 -1 -90 -55v-312c0 -60 8 -67 90 -67v-28c-44 1 -88 3 -133 3c-46 0 -91 -2 -137 -3v28c74 0 90 7 90 67zM79 682c30 0 50 -20 50 -50s-20 -50 -50 -50s-50 20 -50 50s20 50 50 50z
M278 682c30 0 50 -20 50 -50s-20 -50 -50 -50s-50 20 -50 50s20 50 50 50z" />
    <glyph glyph-name="Eth.sc" unicode="&#xe011;" horiz-adv-x="611" 
d="M206 236v-194c28 -2 49 -4 66 -4c142 0 194 99 194 213c0 138 -82 199 -184 199c-29 0 -59 -3 -74 -6c-1 -25 -2 -42 -2 -67v-101h130v-40h-130zM116 113v123h-80v40h80v124c0 42 -16 58 -80 58v28c42 -2 80 -2 124 -2c47 0 90 2 141 2c175 0 265 -84 265 -216
c0 -103 -64 -272 -278 -272c-42 0 -86 2 -127 2c-32 0 -64 -1 -93 -2v20c35 14 48 29 48 95z" />
    <glyph glyph-name="Ntilde.sc" unicode="&#xe020;" horiz-adv-x="667" 
d="M116 86v331c0 32 -21 41 -88 42v28c26 -1 50 -3 82 -3c26 0 57 2 84 3c102 -133 213 -260 316 -391h2v312c0 46 -29 51 -92 51v28c41 -1 80 -3 112 -3c38 0 74 2 112 3v-28c-76 0 -92 -7 -92 -77v-290c0 -40 4 -73 6 -106l-80 10l-320 388h-2v-304c0 -50 10 -55 86 -55
v-28c-37 1 -75 3 -113 3c-35 0 -71 -2 -105 -3v28c77 0 92 11 92 61zM458 677h29c0 -15 -8 -41 -26 -64c-17 -22 -43 -41 -80 -41c-41 0 -57 14 -93 30c-13 6 -33 15 -49 15c-27 0 -44 -21 -53 -45h-29c10 58 48 100 109 100c27 0 53 -14 76 -25c17 -8 41 -22 60 -20
c34 4 44 20 56 50z" />
    <glyph glyph-name="Ograve.sc" unicode="&#xe026;" horiz-adv-x="611" 
d="M313 498c172 0 257 -116 257 -239c0 -135 -102 -273 -272 -273c-120 0 -258 90 -258 250c0 172 128 262 273 262zM294 464c-86 0 -154 -72 -154 -198c0 -110 42 -240 182 -240c118 0 148 114 148 210c0 124 -52 228 -176 228zM342 551l-144 90c-17 10 -40 23 -40 46
c0 20 12 35 33 35c16 0 38 -18 53 -33l138 -138h-40z" />
    <glyph glyph-name="Oacute.sc" unicode="&#xe023;" horiz-adv-x="611" 
d="M313 498c172 0 257 -116 257 -239c0 -135 -102 -273 -272 -273c-120 0 -258 90 -258 250c0 172 128 262 273 262zM294 464c-86 0 -154 -72 -154 -198c0 -110 42 -240 182 -240c118 0 148 114 148 210c0 124 -52 228 -176 228zM217 551l138 138c15 15 37 33 53 33
c21 0 33 -15 33 -35c0 -23 -23 -36 -40 -46l-144 -90h-40z" />
    <glyph glyph-name="Ocircumflex.sc" unicode="&#xe024;" horiz-adv-x="611" 
d="M313 498c172 0 257 -116 257 -239c0 -135 -102 -273 -272 -273c-120 0 -258 90 -258 250c0 172 128 262 273 262zM294 464c-86 0 -154 -72 -154 -198c0 -110 42 -240 182 -240c118 0 148 114 148 210c0 124 -52 228 -176 228zM275 718h62l125 -167h-35l-121 103
l-121 -103h-35z" />
    <glyph glyph-name="Otilde.sc" unicode="&#xe028;" horiz-adv-x="611" 
d="M313 498c172 0 257 -116 257 -239c0 -135 -102 -273 -272 -273c-120 0 -258 90 -258 250c0 172 128 262 273 262zM294 464c-86 0 -154 -72 -154 -198c0 -110 42 -240 182 -240c118 0 148 114 148 210c0 124 -52 228 -176 228zM442 677h29c0 -15 -8 -41 -26 -64
c-17 -22 -43 -41 -80 -41c-41 0 -57 14 -93 30c-13 6 -33 15 -49 15c-27 0 -44 -21 -53 -45h-29c10 58 48 100 109 100c27 0 53 -14 76 -25c17 -8 41 -22 60 -20c34 4 44 20 56 50z" />
    <glyph glyph-name="Odieresis.sc" unicode="&#xe025;" horiz-adv-x="611" 
d="M313 498c172 0 257 -116 257 -239c0 -135 -102 -273 -272 -273c-120 0 -258 90 -258 250c0 172 128 262 273 262zM294 464c-86 0 -154 -72 -154 -198c0 -110 42 -240 182 -240c118 0 148 114 148 210c0 124 -52 228 -176 228zM206 682c30 0 50 -20 50 -50
s-20 -50 -50 -50s-50 20 -50 50s20 50 50 50zM405 682c30 0 50 -20 50 -50s-20 -50 -50 -50s-50 20 -50 50s20 50 50 50z" />
    <glyph glyph-name="OE.sc" unicode="&#xe022;" horiz-adv-x="833" 
d="M442 181v175c0 28 -2 49 -4 74c-38 19 -71 32 -113 32c-89 0 -183 -62 -183 -211c0 -102 50 -225 206 -225c46 0 75 11 88 18c4 37 6 74 6 137zM532 228v-186c26 -2 46 -4 84 -4c54 0 92 5 128 12l22 88h28l-10 -138c-23 1 -106 4 -172 4c-103 0 -167 -4 -212 -9
c-44 -4 -69 -9 -92 -9c-164 0 -266 134 -266 268c0 128 91 244 275 244c30 0 60 -4 89 -9c30 -4 59 -9 88 -9c48 0 97 8 158 8c58 0 102 -5 134 -8l-10 -120h-24c-4 26 -6 50 -14 78c-32 6 -95 10 -130 10c-26 0 -51 -3 -76 -4v-172c15 -1 38 -2 105 -2c49 0 55 8 55 64h30
c-2 -32 -4 -54 -4 -84c0 -28 2 -56 4 -88h-30c0 61 -10 70 -84 70c-22 0 -41 -2 -76 -4z" />
    <glyph glyph-name="Oslash.sc" unicode="&#xe027;" horiz-adv-x="611" 
d="M164 135l265 260c-29 43 -73 69 -135 69c-86 0 -154 -72 -154 -198c0 -43 7 -90 24 -131zM448 360l-265 -261c27 -43 71 -73 139 -73c118 0 148 114 148 210c0 46 -7 89 -22 124zM570 480l-60 -59c40 -44 60 -102 60 -162c0 -135 -102 -273 -272 -273
c-58 0 -119 21 -168 61l-70 -69l-28 28l69 68c-37 41 -61 95 -61 162c0 172 128 262 273 262c72 0 128 -20 168 -52l61 60z" />
    <glyph glyph-name="Ugrave.sc" unicode="&#xe034;" horiz-adv-x="611" 
d="M194 419v-242c0 -86 32 -139 135 -139c87 0 136 39 136 141v216c0 55 -7 64 -85 64v28c36 -1 72 -3 107 -3c44 0 77 2 103 3v-28c-72 0 -85 -7 -85 -60v-215c0 -103 -29 -198 -197 -198c-166 0 -204 68 -204 189v234c0 45 -26 50 -84 50v28c43 -1 86 -3 128 -3
c32 0 64 2 122 3v-26c-64 -2 -76 -13 -76 -42zM330 551l-144 90c-17 10 -40 23 -40 46c0 20 12 35 33 35c16 0 38 -18 53 -33l138 -138h-40z" />
    <glyph glyph-name="Uacute.sc" unicode="&#xe031;" horiz-adv-x="611" 
d="M194 419v-242c0 -86 32 -139 135 -139c87 0 136 39 136 141v216c0 55 -7 64 -85 64v28c36 -1 72 -3 107 -3c44 0 77 2 103 3v-28c-72 0 -85 -7 -85 -60v-215c0 -103 -29 -198 -197 -198c-166 0 -204 68 -204 189v234c0 45 -26 50 -84 50v28c43 -1 86 -3 128 -3
c32 0 64 2 122 3v-26c-64 -2 -76 -13 -76 -42zM241 551l138 138c15 15 37 33 53 33c21 0 33 -15 33 -35c0 -23 -23 -36 -40 -46l-144 -90h-40z" />
    <glyph glyph-name="Ucircumflex.sc" unicode="&#xe032;" horiz-adv-x="611" 
d="M194 419v-242c0 -86 32 -139 135 -139c87 0 136 39 136 141v216c0 55 -7 64 -85 64v28c36 -1 72 -3 107 -3c44 0 77 2 103 3v-28c-72 0 -85 -7 -85 -60v-215c0 -103 -29 -198 -197 -198c-166 0 -204 68 -204 189v234c0 45 -26 50 -84 50v28c43 -1 86 -3 128 -3
c32 0 64 2 122 3v-26c-64 -2 -76 -13 -76 -42zM275 718h62l125 -167h-35l-121 103l-121 -103h-35z" />
    <glyph glyph-name="Udieresis.sc" unicode="&#xe033;" horiz-adv-x="611" 
d="M194 419v-242c0 -86 32 -139 135 -139c87 0 136 39 136 141v216c0 55 -7 64 -85 64v28c36 -1 72 -3 107 -3c44 0 77 2 103 3v-28c-72 0 -85 -7 -85 -60v-215c0 -103 -29 -198 -197 -198c-166 0 -204 68 -204 189v234c0 45 -26 50 -84 50v28c43 -1 86 -3 128 -3
c32 0 64 2 122 3v-26c-64 -2 -76 -13 -76 -42zM206 682c30 0 50 -20 50 -50s-20 -50 -50 -50s-50 20 -50 50s20 50 50 50zM405 682c30 0 50 -20 50 -50s-20 -50 -50 -50s-50 20 -50 50s20 50 50 50z" />
    <glyph glyph-name="Yacute.sc" unicode="&#xe039;" 
d="M124 -3v28c74 0 88 15 88 48v131c-45 81 -82 141 -109 179c-42 59 -53 65 -89 65v28c31 5 75 9 103 17c26 -9 52 -36 75 -79l90 -166c22 39 94 167 130 236h68v-14c-59 -67 -122 -173 -178 -272v-103c0 -68 26 -70 86 -70v-28c-44 1 -96 3 -132 3c-52 0 -88 -2 -132 -3z
M194 551l138 138c15 15 37 33 53 33c21 0 33 -15 33 -35c0 -23 -23 -36 -40 -46l-144 -90h-40z" />
    <glyph glyph-name="Thorn.sc" unicode="&#xe02f;" 
d="M114 92v312c0 54 -24 55 -90 55v28c36 -2 80 -3 132 -3c48 0 83 2 138 3v-28c-74 0 -90 -1 -90 -55v-44c28 6 54 10 95 10c135 0 169 -44 169 -120c0 -67 -54 -146 -180 -146c-22 0 -33 4 -40 8l-6 30c8 -5 20 -8 32 -8c68 0 100 42 100 104s-42 98 -110 98
c-24 0 -42 -6 -60 -12v-232c0 -60 8 -67 90 -67v-28c-44 1 -88 3 -133 3c-46 0 -91 -2 -137 -3v28c74 0 90 7 90 67z" />
    <glyph glyph-name="Ydieresis.sc" unicode="&#xe03a;" 
d="M124 -3v28c74 0 88 15 88 48v131c-45 81 -82 141 -109 179c-42 59 -53 65 -89 65v28c31 5 75 9 103 17c26 -9 52 -36 75 -79l90 -166c22 39 94 167 130 236h68v-14c-59 -67 -122 -173 -178 -272v-103c0 -68 26 -70 86 -70v-28c-44 1 -96 3 -132 3c-52 0 -88 -2 -132 -3z
M151 682c30 0 50 -20 50 -50s-20 -50 -50 -50s-50 20 -50 50s20 50 50 50zM350 682c30 0 50 -20 50 -50s-20 -50 -50 -50s-50 20 -50 50s20 50 50 50z" />
    <glyph glyph-name="uni03A9" unicode="&#x3a9;" horiz-adv-x="655" 
d="M623 133l-22 -133h-211l-5 17c40 85 120 219 119 362c-1 208 -89 286 -178 286c-96 0 -176 -77 -176 -291c0 -139 68 -263 117 -357l-7 -17h-209l-21 133l23 2c19 -65 34 -75 69 -75h96c-56 55 -154 160 -154 321c0 192 117 312 264 312c150 0 260 -114 260 -305
c0 -145 -92 -257 -156 -328h99c38 0 49 8 68 75z" />
    <glyph glyph-name="Amacron" unicode="&#x100;" horiz-adv-x="778" 
d="M408 700l242 -568c9 -20 20 -47 32 -68c11 -19 22 -32 40 -34l34 -3v-30c-44 1 -88 3 -133 3c-35 0 -79 -2 -133 -3v30l47 3c21 1 41 8 41 20c0 14 -11 40 -21 64l-46 115h-288l-28 -67c-9 -21 -35 -88 -35 -104c0 -21 17 -25 48 -28l37 -3v-30c-48 1 -86 3 -115 3
c-39 0 -77 -2 -115 -3v30l37 3c24 2 43 23 54 49l178 405c31 70 65 144 92 216h32zM240 269h253l-126 298zM553 800h-312v53h312v-53z" />
    <glyph glyph-name="amacron" unicode="&#x101;" 
d="M225 270l99 18v3c0 76 -39 125 -126 125c-43 0 -57 -4 -70 -21c-6 -8 -11 -20 -17 -33l-13 -31l-26 7v65l53 32c43 26 84 34 116 34c125 0 163 -55 163 -199v-183c0 -16 1 -32 3 -43c2 -10 11 -14 25 -15l39 -2v-30c-25 1 -50 3 -75 3c-26 0 -51 -2 -77 -3l5 85l-124 -86
c-8 -6 -28 -8 -46 -8c-68 0 -122 40 -122 121c0 115 101 144 193 161zM324 124v132c-50 -7 -95 -15 -146 -35c-35 -14 -60 -57 -60 -94c0 -51 38 -82 78 -82c31 0 63 21 96 46c16 12 28 27 32 33zM403 588h-312v53h312v-53z" />
    <glyph glyph-name="Imacron" unicode="&#x12a;" horiz-adv-x="337" 
d="M216 569v-449c0 -38 2 -64 9 -75c6 -10 18 -14 42 -15l48 -3v-30c-52 2 -99 3 -145 3c-49 0 -96 -1 -148 -3v30l48 3c24 1 36 5 42 15c7 11 9 37 9 75v449c0 38 -2 64 -9 75c-6 10 -18 14 -42 15l-48 3v30c52 -2 99 -3 148 -3c46 0 93 1 145 3v-30l-48 -3
c-24 -1 -36 -5 -42 -15c-7 -11 -9 -37 -9 -75zM322 801h-312v53h312v-53z" />
    <glyph glyph-name="imacron" unicode="&#x12b;" horiz-adv-x="291" 
d="M188 465v-363c0 -27 1 -47 5 -58c4 -9 15 -13 32 -14l46 -3v-30c-36 1 -76 3 -125 3s-89 -2 -125 -3v30l46 3c17 1 28 5 32 14c4 11 5 31 5 58v225c0 32 -2 54 -7 62c-6 8 -16 11 -37 11h-37v28c59 6 119 25 156 41zM272 587h-250v53h250v-53z" />
    <glyph glyph-name="Umacron" unicode="&#x16a;" horiz-adv-x="778" 
d="M111 214v355c0 38 -2 64 -9 75c-6 10 -18 14 -42 15l-48 3v30c52 -2 99 -3 148 -3c46 0 93 1 145 3v-30l-48 -3c-24 -1 -36 -5 -42 -15c-7 -11 -9 -37 -9 -75v-344c0 -142 74 -183 206 -183c108 0 206 41 206 207v320c0 38 -2 64 -9 75c-6 10 -18 13 -42 15l-44 3v30
c40 -1 80 -3 116 -3c40 0 76 2 120 3v-30l-44 -3c-24 -2 -36 -5 -42 -15c-7 -11 -9 -37 -9 -75v-289c0 -214 -81 -300 -283 -300c-170 0 -270 51 -270 234zM662 798h-525v53h525v-53z" />
    <glyph glyph-name="umacron" unicode="&#x16b;" horiz-adv-x="603" 
d="M503 465v-363c0 -27 1 -47 5 -58c4 -9 15 -13 32 -14l41 -3v-30c-25 1 -54 3 -82 3c-29 0 -58 -2 -84 -3c2 28 4 55 4 92l-67 -62c-28 -25 -64 -39 -112 -39c-141 0 -141 90 -141 171v168c0 32 -2 54 -7 62c-6 8 -16 11 -37 11h-37v28c59 6 119 25 156 41l9 -4v-295
c0 -79 17 -121 109 -121c65 0 127 67 127 115v163c0 32 -2 54 -7 62c-6 8 -16 11 -37 11h-37v28c59 6 119 25 156 41zM472 588h-351v53h351v-53z" />
    <glyph glyph-name="candrabindunosp" unicode="&#x310;" horiz-adv-x="0" 
d="M-136 785c-33 5 -117 22 -152 182l33 -20c19 -28 49 -102 122 -102c67 0 105 58 105 117l20 -9c16 -93 -55 -179 -128 -168zM-133 1000c27 0 48 -21 48 -48s-21 -49 -48 -49s-49 22 -49 49s22 48 49 48z" />
    <glyph glyph-name="Ddotbelow" unicode="&#x1e0c;" horiz-adv-x="774" 
d="M113 95v474c0 38 -2 64 -9 75c-6 10 -18 13 -42 15l-40 3v30c67 -1 131 -3 197 -3s130 2 174 3h13c198 0 345 -115 345 -305c0 -164 -94 -305 -215 -355c-57 -23 -116 -35 -195 -35h-19c-40 1 -84 3 -129 3s-89 -2 -136 -3v23l31 16c17 9 25 32 25 59zM208 644v-595
c28 -7 80 -8 114 -8c50 0 108 3 163 29c110 51 159 154 159 289c0 248 -142 293 -322 293c-34 0 -86 -1 -114 -8zM360 -101c-31 0 -54 -25 -54 -57c0 -33 26 -53 54 -53c33 0 54 22 54 53s-21 57 -54 57z" />
    <glyph glyph-name="ddotbelow" unicode="&#x1e0d;" horiz-adv-x="611" 
d="M412 437v183c0 23 -3 41 -25 41h-56v28c53 8 106 17 156 37l9 -8v-616c0 -27 1 -47 5 -58c4 -9 15 -13 32 -14l46 -3v-30c-41 1 -66 3 -91 3c-26 0 -51 -2 -77 -3l5 92l-111 -93c-9 -7 -38 -8 -64 -8c-140 0 -206 100 -206 231c0 91 44 159 94 185l88 46
c30 16 57 19 74 19c45 0 78 -13 121 -32zM412 221v129c0 20 -78 72 -138 72h-3c-102 -3 -149 -61 -149 -183c0 -93 52 -194 156 -194c42 0 82 29 109 63c23 29 25 57 25 91v22zM300 -101c-31 0 -54 -25 -54 -57c0 -33 26 -53 54 -53c33 0 54 22 54 53s-21 57 -54 57z" />
    <glyph glyph-name="Hdotbelow" unicode="&#x1e24;" horiz-adv-x="832" 
d="M711 569v-449c0 -38 2 -64 9 -75c6 -10 18 -14 42 -15l48 -3v-30c-52 2 -99 3 -145 3c-49 0 -96 -1 -148 -3v30l48 3c24 1 36 5 42 15c7 11 9 37 9 75v223c-12 1 -39 2 -83 2h-234c-44 0 -71 -1 -83 -2v-223c0 -38 2 -64 9 -75c6 -10 18 -14 42 -15l48 -3v-30
c-52 2 -99 3 -145 3c-49 0 -96 -1 -148 -3v30l48 3c24 1 36 5 42 15c7 11 9 37 9 75v449c0 38 -2 64 -9 75c-6 10 -18 14 -42 15l-48 3v30c52 -2 99 -3 148 -3c46 0 93 1 145 3v-30l-48 -3c-24 -1 -36 -5 -42 -15c-7 -11 -9 -37 -9 -75v-178c12 -1 39 -2 83 -2h234
c44 0 71 1 83 2v178c0 38 -2 64 -9 75c-6 10 -18 14 -42 15l-48 3v30c52 -2 99 -3 148 -3c46 0 93 1 145 3v-30l-48 -3c-24 -1 -36 -5 -42 -15c-7 -11 -9 -37 -9 -75zM420 -101c-31 0 -54 -25 -54 -57c0 -33 26 -53 54 -53c33 0 54 22 54 53s-21 57 -54 57z" />
    <glyph glyph-name="hdotbelow" unicode="&#x1e25;" horiz-adv-x="582" 
d="M88 102v518c0 23 -3 41 -25 41h-56v28c53 8 106 17 156 37l9 -8v-338h2l74 64c22 19 41 25 81 25c117 0 165 -65 165 -174v-193c0 -27 1 -47 5 -58c4 -9 15 -13 32 -14l41 -3v-30c-25 1 -54 3 -82 3s-57 -2 -80 -3v284c0 83 -47 127 -115 127c-61 0 -123 -53 -123 -94
v-212c0 -27 1 -47 5 -58c4 -9 15 -13 32 -14l45 -3v-30c-35 1 -75 3 -124 3s-89 -2 -124 -3v30l45 3c17 1 28 5 32 14c4 11 5 31 5 58zM310 -91c-31 0 -54 -25 -54 -57c0 -33 26 -53 54 -53c33 0 54 22 54 53s-21 57 -54 57z" />
    <glyph glyph-name="Ldotbelow" unicode="&#x1e36;" horiz-adv-x="611" 
d="M216 569v-522c28 -7 57 -8 84 -8c82 0 204 3 221 19c10 9 16 43 21 64l12 50h32c-6 -55 -13 -122 -21 -172c-38 -1 -102 -3 -166 -3h-31c-90 1 -156 3 -218 3c-34 0 -59 -2 -85 -3v23l31 16c17 9 25 32 25 59v474c0 38 -2 64 -9 75c-6 10 -18 14 -42 15l-48 3v30
c52 -2 99 -3 148 -3c46 0 93 1 145 3v-30l-48 -3c-24 -1 -36 -5 -42 -15c-7 -11 -9 -37 -9 -75zM340 -101c-31 0 -54 -25 -54 -57c0 -33 26 -53 54 -53c33 0 54 22 54 53s-21 57 -54 57z" />
    <glyph glyph-name="ldotbelow" unicode="&#x1e37;" horiz-adv-x="291" 
d="M104 102v518c0 23 -3 41 -25 41h-56v28c53 8 106 17 156 37l9 -8v-616c0 -27 1 -47 5 -58c4 -9 15 -13 32 -14l46 -3v-30c-36 1 -76 3 -125 3s-89 -2 -125 -3v30l46 3c17 1 28 5 32 14c4 11 5 31 5 58zM140 -91c-31 0 -54 -25 -54 -57c0 -33 26 -53 54 -53
c33 0 54 22 54 53s-21 57 -54 57z" />
    <glyph glyph-name="Mdotaccent" unicode="&#x1e40;" horiz-adv-x="946" 
d="M827 569v-449c0 -38 2 -64 9 -75c6 -10 18 -14 42 -15l48 -3v-30c-52 2 -99 3 -145 3c-49 0 -96 -1 -134 -3v30l34 3c24 2 36 5 42 15c7 11 9 37 9 75v454h-2c-15 -27 -29 -55 -42 -82l-178 -378c-19 -41 -36 -85 -54 -127h-20l-277 587h-2v-454c0 -38 2 -64 9 -75
c6 -10 18 -13 42 -15l44 -3v-30c-44 1 -80 3 -120 3c-36 0 -76 -2 -116 -3v30l44 3c24 2 36 5 42 15c7 11 9 37 9 75v449c0 38 -2 64 -9 75c-6 10 -18 13 -42 15l-44 3v30c31 -1 63 -3 95 -3s64 2 95 3l264 -556l262 556c32 -1 63 -3 95 -3s64 2 93 3v-30l-42 -3
c-24 -2 -36 -5 -42 -15c-7 -11 -9 -37 -9 -75zM475 907c29 0 56 -27 56 -56s-27 -55 -56 -55s-55 26 -55 55s26 56 55 56z" />
    <glyph glyph-name="mdotaccent" unicode="&#x1e41;" horiz-adv-x="883" 
d="M99 102v225c0 32 -2 54 -7 62c-6 8 -16 11 -37 11h-37v28c59 6 119 25 156 41l9 -4v-85l69 64c21 19 48 25 88 25c58 0 109 -27 137 -93l76 68c22 19 48 25 88 25c79 0 144 -57 144 -161v-206c0 -27 1 -47 5 -58c4 -9 15 -13 32 -14l47 -3v-30c-31 1 -60 3 -88 3
s-57 -2 -80 -3v284c0 67 -29 127 -94 127c-61 0 -123 -53 -123 -94v-212c0 -27 1 -47 5 -58c4 -9 15 -13 32 -14l46 -3v-30c-36 1 -76 3 -125 3s-89 -2 -125 -3v30l46 3c17 1 28 5 32 14c4 11 5 31 5 58v179c0 67 -29 127 -94 127c-61 0 -123 -53 -123 -94v-212
c0 -27 1 -47 5 -58c4 -9 15 -13 32 -14l42 -3v-30c-32 1 -72 3 -121 3s-89 -2 -125 -3v30l46 3c17 1 28 5 32 14c4 11 5 31 5 58zM435 687c29 0 56 -27 56 -56s-27 -55 -56 -55s-55 26 -55 55s26 56 55 56z" />
    <glyph glyph-name="Ndotaccent" unicode="&#x1e44;" horiz-adv-x="831" 
d="M112 120v449c0 38 -2 64 -9 75c-6 10 -18 13 -42 15l-44 3v30c44 -1 84 -3 120 -3c18 0 36 2 54 3l478 -590h3v467c0 38 -2 64 -9 75c-6 10 -18 13 -42 15l-44 3v30c40 -1 80 -3 116 -3c40 0 76 2 120 3v-30l-44 -3c-24 -2 -36 -5 -42 -15c-7 -11 -9 -37 -9 -75v-552
c0 -12 2 -25 3 -37l-90 16l-471 585h-2v-461c0 -38 2 -64 9 -75c6 -10 18 -13 42 -15l44 -3v-30c-44 1 -80 3 -120 3c-36 0 -76 -2 -116 -3v30l44 3c24 2 36 5 42 15c7 11 9 37 9 75zM415 907c29 0 56 -27 56 -56s-27 -55 -56 -55s-55 26 -55 55s26 56 55 56z" />
    <glyph glyph-name="ndotaccent" unicode="&#x1e45;" horiz-adv-x="582" 
d="M172 314v-212c0 -27 1 -47 5 -58c4 -9 15 -13 32 -14l45 -3v-30c-35 1 -75 3 -124 3s-89 -2 -124 -3v30l45 3c17 1 28 5 32 14c4 11 5 31 5 58v225c0 32 -2 54 -7 62c-6 8 -16 11 -37 11h-37v28c59 6 119 25 156 41l9 -4v-85h2l74 64c22 19 41 25 81 25
c117 0 165 -65 165 -174v-193c0 -27 1 -47 5 -58c4 -9 15 -13 32 -14l41 -3v-30c-25 1 -54 3 -82 3s-57 -2 -80 -3v284c0 83 -47 127 -115 127c-61 0 -123 -53 -123 -94zM295 687c29 0 56 -27 56 -56s-27 -55 -56 -55s-55 26 -55 55s26 56 55 56z" />
    <glyph glyph-name="Ndotbelow" unicode="&#x1e46;" horiz-adv-x="831" 
d="M112 120v449c0 38 -2 64 -9 75c-6 10 -18 13 -42 15l-44 3v30c44 -1 84 -3 120 -3c18 0 36 2 54 3l478 -590h3v467c0 38 -2 64 -9 75c-6 10 -18 13 -42 15l-44 3v30c40 -1 80 -3 116 -3c40 0 76 2 120 3v-30l-44 -3c-24 -2 -36 -5 -42 -15c-7 -11 -9 -37 -9 -75v-552
c0 -12 2 -25 3 -37l-90 16l-471 585h-2v-461c0 -38 2 -64 9 -75c6 -10 18 -13 42 -15l44 -3v-30c-44 1 -80 3 -120 3c-36 0 -76 -2 -116 -3v30l44 3c24 2 36 5 42 15c7 11 9 37 9 75zM390 -101c-31 0 -54 -25 -54 -57c0 -33 26 -53 54 -53c33 0 54 22 54 53s-21 57 -54 57z
" />
    <glyph glyph-name="ndotbelow" unicode="&#x1e47;" horiz-adv-x="582" 
d="M172 314v-212c0 -27 1 -47 5 -58c4 -9 15 -13 32 -14l45 -3v-30c-35 1 -75 3 -124 3s-89 -2 -124 -3v30l45 3c17 1 28 5 32 14c4 11 5 31 5 58v225c0 32 -2 54 -7 62c-6 8 -16 11 -37 11h-37v28c59 6 119 25 156 41l9 -4v-85h2l74 64c22 19 41 25 81 25
c117 0 165 -65 165 -174v-193c0 -27 1 -47 5 -58c4 -9 15 -13 32 -14l41 -3v-30c-25 1 -54 3 -82 3s-57 -2 -80 -3v284c0 83 -47 127 -115 127c-61 0 -123 -53 -123 -94zM300 -91c-31 0 -54 -25 -54 -57c0 -33 26 -53 54 -53c33 0 54 22 54 53s-21 57 -54 57z" />
    <glyph glyph-name="Rdotbelow" unicode="&#x1e5a;" horiz-adv-x="668" 
d="M216 642v-522c0 -38 2 -64 9 -75c6 -10 18 -14 42 -15l48 -3v-30c-52 2 -99 3 -145 3c-49 0 -96 -1 -148 -3v30l48 3c24 1 36 5 42 15c7 11 9 37 9 75v449c0 38 -2 64 -9 75c-6 10 -18 13 -42 15l-41 3v30c53 -1 111 -3 170 -3s117 2 175 3h9c153 0 193 -79 193 -150
c0 -109 -98 -174 -195 -193l227 -296c15 -20 37 -24 61 -26v-30c-26 1 -49 3 -72 3s-45 -2 -68 -3c-13 19 -28 36 -41 54l-184 247c-16 22 -35 41 -52 62l6 12c9 -1 17 -1 27 -1c20 0 40 2 61 5c70 12 130 66 130 140c0 108 -80 138 -158 138c-45 0 -74 -5 -102 -12z
M350 -101c-31 0 -54 -25 -54 -57c0 -33 26 -53 54 -53c33 0 54 22 54 53s-21 57 -54 57z" />
    <glyph glyph-name="rdotbelow" unicode="&#x1e5b;" horiz-adv-x="395" 
d="M104 102v225c0 32 -2 54 -7 62c-6 8 -16 11 -37 11h-37v28c59 6 119 25 156 41l9 -4v-101h2l54 64c24 29 58 41 84 41c17 0 38 -5 46 -11l-9 -120h-21c-11 24 -32 46 -68 46c-44 0 -88 -46 -88 -110v-172c0 -27 1 -47 5 -58c4 -9 19 -13 42 -14l52 -3v-30
c-52 1 -92 3 -141 3s-89 -2 -125 -3v30l46 3c17 1 28 5 32 14c4 11 5 31 5 58zM150 -91c-31 0 -54 -25 -54 -57c0 -33 26 -53 54 -53c33 0 54 22 54 53s-21 57 -54 57z" />
    <glyph glyph-name="Rdotbelowmacron" unicode="&#x1e5c;" horiz-adv-x="668" 
d="M216 642v-522c0 -38 2 -64 9 -75c6 -10 18 -14 42 -15l48 -3v-30c-52 2 -99 3 -145 3c-49 0 -96 -1 -148 -3v30l48 3c24 1 36 5 42 15c7 11 9 37 9 75v449c0 38 -2 64 -9 75c-6 10 -18 13 -42 15l-41 3v30c53 -1 111 -3 170 -3s117 2 175 3h9c153 0 193 -79 193 -150
c0 -109 -98 -174 -195 -193l227 -296c15 -20 37 -24 61 -26v-30c-26 1 -49 3 -72 3s-45 -2 -68 -3c-13 19 -28 36 -41 54l-184 247c-16 22 -35 41 -52 62l6 12c9 -1 17 -1 27 -1c20 0 40 2 61 5c70 12 130 66 130 140c0 108 -80 138 -158 138c-45 0 -74 -5 -102 -12z
M350 -101c-31 0 -54 -25 -54 -57c0 -33 26 -53 54 -53c33 0 54 22 54 53s-21 57 -54 57zM483 798h-312v53h312v-53z" />
    <glyph glyph-name="rdotbelowmacron" unicode="&#x1e5d;" horiz-adv-x="395" 
d="M104 102v225c0 32 -2 54 -7 62c-6 8 -16 11 -37 11h-37v28c59 6 119 25 156 41l9 -4v-101h2l54 64c24 29 58 41 84 41c17 0 38 -5 46 -11l-9 -120h-21c-11 24 -32 46 -68 46c-44 0 -88 -46 -88 -110v-172c0 -27 1 -47 5 -58c4 -9 19 -13 42 -14l52 -3v-30
c-52 1 -92 3 -141 3s-89 -2 -125 -3v30l46 3c17 1 28 5 32 14c4 11 5 31 5 58zM150 -91c-31 0 -54 -25 -54 -57c0 -33 26 -53 54 -53c33 0 54 22 54 53s-21 57 -54 57zM353 538h-312v53h312v-53z" />
    <glyph glyph-name="Sdotbelow" unicode="&#x1e62;" horiz-adv-x="525" 
d="M447 526h-32l-6 57c-3 27 -7 37 -44 60c-28 17 -70 24 -109 24c-70 0 -148 -47 -148 -146c0 -68 40 -110 165 -124c141 -15 230 -50 230 -164c0 -171 -153 -253 -302 -253c-70 0 -138 22 -171 38c6 38 7 78 7 115v38h32l8 -67c5 -42 84 -80 163 -80c90 0 179 55 179 154
c0 95 -74 122 -176 134c-157 18 -219 67 -219 171c0 155 136 226 256 226c80 0 140 -26 181 -42c-10 -51 -14 -94 -14 -141zM250 -101c-31 0 -54 -25 -54 -57c0 -33 26 -53 54 -53c33 0 54 22 54 53s-21 57 -54 57z" />
    <glyph glyph-name="sdotbelow" unicode="&#x1e63;" horiz-adv-x="424" 
d="M41 143h30v-41c0 -62 71 -85 129 -85c63 0 117 37 117 91c0 32 -17 58 -48 66c-44 11 -99 22 -147 40s-85 48 -85 109c0 108 94 146 188 146c47 0 90 -11 129 -25c-3 -36 -4 -73 -5 -113h-28v23c0 52 -59 82 -116 82c-85 0 -98 -47 -98 -81c0 -43 33 -66 109 -79
c119 -20 175 -50 175 -128c0 -110 -110 -168 -221 -168c-48 0 -91 7 -140 24c10 44 11 92 11 139zM210 -91c-31 0 -54 -25 -54 -57c0 -33 26 -53 54 -53c33 0 54 22 54 53s-21 57 -54 57z" />
    <glyph glyph-name="Tdotbelow" unicode="&#x1e6c;" horiz-adv-x="613" 
d="M259 120v423c0 38 -1 70 -4 100h-155c-30 0 -38 -9 -40 -33l-4 -79h-31c0 54 -2 109 -7 161c72 0 144 -3 216 -3h145c36 0 72 1 108 2c36 0 72 1 108 1c-5 -52 -7 -107 -7 -161h-31l-4 79c-2 24 -10 33 -40 33h-155c-3 -30 -4 -62 -4 -100v-423c0 -38 2 -64 9 -75
c6 -10 18 -14 42 -15l48 -3v-30c-52 2 -99 3 -145 3c-49 0 -96 -1 -148 -3v30l48 3c24 1 36 5 42 15c7 11 9 37 9 75zM300 -101c-31 0 -54 -25 -54 -57c0 -33 26 -53 54 -53c33 0 54 22 54 53s-21 57 -54 57z" />
    <glyph glyph-name="tdotbelow" unicode="&#x1e6d;" horiz-adv-x="326" 
d="M98 382l-76 -4v21l78 35v70c0 26 -1 52 -4 79c36 11 68 27 85 38l12 -11c-6 -44 -11 -100 -11 -142v-38l137 6l-9 -54h-128v-262c0 -46 13 -69 55 -69c26 0 45 11 59 19l13 -17l-48 -53c-9 -10 -44 -12 -65 -12c-53 0 -98 25 -98 106v288zM180 -91c-31 0 -54 -25 -54 -57
c0 -33 26 -53 54 -53c33 0 54 22 54 53s-21 57 -54 57z" />
    <glyph glyph-name="ddotbelow.sc" unicode="&#xe040;" horiz-adv-x="611" 
d="M206 377v-335c28 -2 49 -4 66 -4c142 0 194 99 194 213c0 138 -82 199 -184 199c-29 0 -59 -3 -74 -6c-1 -25 -2 -42 -2 -67zM116 113v287c0 42 -16 58 -80 58v28c42 -2 80 -2 124 -2c47 0 90 2 141 2c175 0 265 -84 265 -216c0 -103 -64 -272 -278 -272
c-42 0 -86 2 -127 2c-32 0 -64 -1 -93 -2v20c35 14 48 29 48 95zM290 -101c-31 0 -54 -25 -54 -57c0 -33 26 -53 54 -53c33 0 54 22 54 53s-21 57 -54 57z" />
    <glyph glyph-name="hdotbelow.sc" unicode="&#xe041;" horiz-adv-x="667" 
d="M118 92v306c0 59 -14 61 -94 61v28c41 -1 94 -3 133 -3c46 0 85 2 137 3v-28c-75 0 -86 -2 -86 -61v-121c40 -1 82 -2 129 -2s89 1 129 2v121c0 59 -11 61 -86 61v28c52 -1 91 -3 137 -3c39 0 92 2 133 3v-28c-80 0 -94 -2 -94 -61v-306c0 -56 12 -67 90 -67v-28
c-42 1 -84 3 -126 3c-47 0 -95 -2 -140 -3v28c72 0 86 5 86 67v149c-40 1 -82 2 -129 2s-89 -1 -129 -2v-149c0 -62 14 -67 86 -67v-28c-45 1 -93 3 -140 3c-42 0 -84 -2 -126 -3v28c78 0 90 11 90 67zM340 -101c-31 0 -54 -25 -54 -57c0 -33 26 -53 54 -53
c33 0 54 22 54 53s-21 57 -54 57z" />
    <glyph glyph-name="ldotbelow.sc" unicode="&#xe042;" 
d="M110 104v308c0 46 -16 47 -90 47v28c46 -1 82 -3 128 -3c34 0 83 2 138 3v-28c-64 0 -86 -1 -86 -62v-265c0 -34 1 -61 4 -93c20 -1 40 -2 68 -2c62 0 118 4 146 14l20 81h30c-9 -43 -14 -85 -17 -132c-33 -2 -79 -3 -123 -3c-96 0 -125 3 -172 3c-42 0 -69 -2 -104 -3
v28c44 7 58 13 58 79zM250 -101c-31 0 -54 -25 -54 -57c0 -33 26 -53 54 -53c33 0 54 22 54 53s-21 57 -54 57z" />
    <glyph glyph-name="mdotaccent.sc" unicode="&#xe043;" horiz-adv-x="778" 
d="M374 -12h-18l-190 410h-2v-318c0 -48 18 -55 86 -55v-28c-37 1 -75 3 -112 3c-34 0 -69 -2 -104 -3v28c68 0 90 5 90 65v312c0 48 -26 57 -90 57v28c34 -1 67 -3 101 -3c30 0 61 2 91 3c32 -83 103 -230 165 -365c79 172 124 262 167 365c24 -1 52 -3 76 -3
c34 0 72 2 104 3v-28c-60 0 -82 -3 -82 -65v-312c0 -48 18 -57 82 -57v-28c-38 1 -78 3 -124 3c-50 0 -83 -2 -130 -3v28c70 0 82 11 82 51v338h-2zM405 687c29 0 56 -27 56 -56s-27 -55 -56 -55s-55 26 -55 55s26 56 55 56z" />
    <glyph glyph-name="ndotbelow.sc" unicode="&#xe044;" horiz-adv-x="667" 
d="M116 86v331c0 32 -21 41 -88 42v28c26 -1 50 -3 82 -3c26 0 57 2 84 3c102 -133 213 -260 316 -391h2v312c0 46 -29 51 -92 51v28c41 -1 80 -3 112 -3c38 0 74 2 112 3v-28c-76 0 -92 -7 -92 -77v-290c0 -40 4 -73 6 -106l-80 10l-320 388h-2v-304c0 -50 10 -55 86 -55
v-28c-37 1 -75 3 -113 3c-35 0 -71 -2 -105 -3v28c77 0 92 11 92 61zM320 -101c-31 0 -54 -25 -54 -57c0 -33 26 -53 54 -53c33 0 54 22 54 53s-21 57 -54 57z" />
    <glyph glyph-name="ndotaccent.sc" unicode="&#xe045;" horiz-adv-x="667" 
d="M116 86v331c0 32 -21 41 -88 42v28c26 -1 50 -3 82 -3c26 0 57 2 84 3c102 -133 213 -260 316 -391h2v312c0 46 -29 51 -92 51v28c41 -1 80 -3 112 -3c38 0 74 2 112 3v-28c-76 0 -92 -7 -92 -77v-290c0 -40 4 -73 6 -106l-80 10l-320 388h-2v-304c0 -50 10 -55 86 -55
v-28c-37 1 -75 3 -113 3c-35 0 -71 -2 -105 -3v28c77 0 92 11 92 61zM345 687c29 0 56 -27 56 -56s-27 -55 -56 -55s-55 26 -55 55s26 56 55 56z" />
    <glyph glyph-name="ntilde.alt.sc" unicode="&#xe046;" horiz-adv-x="667" 
d="M116 86v331c0 32 -21 41 -88 42v28c26 -1 50 -3 82 -3c26 0 57 2 84 3c102 -133 213 -260 316 -391h2v312c0 46 -29 51 -92 51v28c41 -1 80 -3 112 -3c38 0 74 2 112 3v-28c-76 0 -92 -7 -92 -77v-290c0 -40 4 -73 6 -106l-80 10l-320 388h-2v-304c0 -50 10 -55 86 -55
v-28c-37 1 -75 3 -113 3c-35 0 -71 -2 -105 -3v28c77 0 92 11 92 61zM458 677h29c0 -15 -8 -41 -26 -64c-17 -22 -43 -41 -80 -41c-41 0 -57 14 -93 30c-13 6 -33 15 -49 15c-27 0 -44 -21 -53 -45h-29c10 58 48 100 109 100c27 0 53 -14 76 -25c17 -8 41 -22 60 -20
c34 4 44 20 56 50z" />
    <glyph glyph-name="rdotbelow.sc" unicode="&#xe047;" horiz-adv-x="556" 
d="M24 -3v28c72 0 90 2 90 61v314c0 52 -8 59 -90 59v28c43 0 84 -3 132 -3c52 0 110 3 163 3c89 0 155 -25 155 -108c0 -93 -86 -117 -134 -135l153 -187c20 -24 28 -32 59 -32v-25h-124l-200 242l4 16c11 -1 22 -2 36 -2c60 0 106 44 106 104c0 65 -34 94 -106 94
c-22 0 -46 -2 -64 -10v-370c0 -47 12 -49 88 -49v-28c-24 1 -59 3 -132 3c-45 0 -90 -2 -136 -3zM280 -101c-31 0 -54 -25 -54 -57c0 -33 26 -53 54 -53c33 0 54 22 54 53s-21 57 -54 57z" />
    <glyph glyph-name="rdotbelowmacron.sc" unicode="&#xe048;" horiz-adv-x="556" 
d="M24 -3v28c72 0 90 2 90 61v314c0 52 -8 59 -90 59v28c43 0 84 -3 132 -3c52 0 110 3 163 3c89 0 155 -25 155 -108c0 -93 -86 -117 -134 -135l153 -187c20 -24 28 -32 59 -32v-25h-124l-200 242l4 16c11 -1 22 -2 36 -2c60 0 106 44 106 104c0 65 -34 94 -106 94
c-22 0 -46 -2 -64 -10v-370c0 -47 12 -49 88 -49v-28c-24 1 -59 3 -132 3c-45 0 -90 -2 -136 -3zM280 -101c-31 0 -54 -25 -54 -57c0 -33 26 -53 54 -53c33 0 54 22 54 53s-21 57 -54 57zM433 563h-312v53h312v-53z" />
    <glyph glyph-name="sdotbelow.sc" unicode="&#xe049;" horiz-adv-x="444" 
d="M362 364h-28c-1 48 -7 64 -20 74c-23 17 -44 24 -83 24c-64 0 -107 -38 -107 -93c0 -157 276 -2 276 -207c0 -98 -90 -176 -219 -176c-65 0 -100 11 -135 28c5 35 6 58 6 114h28c0 -75 33 -106 112 -106c62 0 124 32 124 112c0 153 -272 -8 -272 203
c0 101 84 161 191 161c75 0 113 -22 135 -34c-7 -36 -8 -62 -8 -100zM220 -101c-31 0 -54 -25 -54 -57c0 -33 26 -53 54 -53c33 0 54 22 54 53s-21 57 -54 57z" />
    <glyph glyph-name="sacute.sc" unicode="&#xe04a;" horiz-adv-x="444" 
d="M362 364h-28c-1 48 -7 64 -20 74c-23 17 -44 24 -83 24c-64 0 -107 -38 -107 -93c0 -157 276 -2 276 -207c0 -98 -90 -176 -219 -176c-65 0 -100 11 -135 28c5 35 6 58 6 114h28c0 -75 33 -106 112 -106c62 0 124 32 124 112c0 153 -272 -8 -272 203
c0 101 84 161 191 161c75 0 113 -22 135 -34c-7 -36 -8 -62 -8 -100zM262 620l-132 -60v19l80 69c25 23 48 39 67 47c12 7 30 1 34 -10c7 -25 -5 -44 -49 -65z" />
    <glyph glyph-name="tdotbelow.sc" unicode="&#xe04b;" 
d="M116 -3v28c70 0 86 7 86 55v366h-52c-87 0 -96 -12 -98 -50l-2 -40h-28l-4 131c48 -3 120 -3 228 -3s180 0 228 3l-4 -131h-28l-2 40c-2 38 -11 50 -98 50h-50v-366c0 -44 14 -55 84 -55v-28c-41 1 -82 3 -124 3c-45 0 -91 -2 -136 -3zM240 -101c-31 0 -54 -25 -54 -57
c0 -33 26 -53 54 -53c33 0 54 22 54 53s-21 57 -54 57z" />
    <glyph glyph-name="amacron.sc" unicode="&#xe04c;" horiz-adv-x="611" 
d="M290 498h38l174 -395c31 -74 52 -78 90 -78v-28c-16 1 -76 3 -119 3c-42 0 -79 -2 -123 -3v28c59 0 74 8 74 27c0 22 -27 72 -40 100c-34 1 -68 2 -103 2c-33 0 -67 -1 -101 -2c-9 -21 -34 -54 -34 -91c0 -28 23 -36 74 -36v-28c-33 1 -68 3 -104 3c-30 0 -53 -2 -98 -3
v28c45 0 61 6 106 108zM285 390l-88 -196c26 -1 52 -2 81 -2c32 0 58 1 91 2zM463 563h-312v53h312v-53z" />
    <glyph glyph-name="umacron.sc" unicode="&#xe04d;" horiz-adv-x="611" 
d="M194 419v-242c0 -86 32 -139 135 -139c87 0 136 39 136 141v216c0 55 -7 64 -85 64v28c36 -1 72 -3 107 -3c44 0 77 2 103 3v-28c-72 0 -85 -7 -85 -60v-215c0 -103 -29 -198 -197 -198c-166 0 -204 68 -204 189v234c0 45 -26 50 -84 50v28c43 -1 86 -3 128 -3
c32 0 64 2 122 3v-26c-64 -2 -76 -13 -76 -42zM483 563h-312v53h312v-53z" />
    <glyph glyph-name="imacron.sc" unicode="&#xe04e;" horiz-adv-x="333" 
d="M120 92v312c0 53 -24 55 -90 55v28c36 -1 80 -3 132 -3c48 0 83 2 138 3v-28c-74 0 -90 -1 -90 -55v-312c0 -60 8 -67 90 -67v-28c-44 1 -88 3 -133 3c-46 0 -91 -2 -137 -3v28c74 0 90 7 90 67zM323 563h-312v53h312v-53z" />
    <glyph glyph-name="sacute" unicode="&#x15b;" horiz-adv-x="424" 
d="M41 143h30v-41c0 -62 71 -85 129 -85c63 0 117 37 117 91c0 32 -17 58 -48 66c-44 11 -99 22 -147 40s-85 48 -85 109c0 108 94 146 188 146c47 0 90 -11 129 -25c-3 -36 -4 -73 -5 -113h-28v23c0 52 -59 82 -116 82c-85 0 -98 -47 -98 -81c0 -43 33 -66 109 -79
c119 -20 175 -50 175 -128c0 -110 -110 -168 -221 -168c-48 0 -91 7 -140 24c10 44 11 92 11 139zM142 538l138 138c15 15 37 33 53 33c21 0 33 -15 33 -35c0 -23 -23 -36 -40 -46l-144 -90h-40z" />
    </font>
</defs>
</svg>
